<svg xmlns="http://www.w3.org/2000/svg" width="341.333" height="341.333" version="1.0" viewBox="0 0 256 256"><path d="M108.4 1.5C82.1 5.6 57.2 18.4 37.8 37.6c-50.2 49.9-50.3 130.9-.1 180.6 10.9 10.9 19.5 17.2 32.1 23.6 49.5 25.4 109.3 15.9 148.6-23.6 39.4-39.7 48.8-99 23.4-148.4-6.4-12.6-12.7-21.2-23.6-32.1-28.5-28.8-70-42.4-109.8-36.2zM141 76.4c0 28.4-.8 25.7 7.5 27.1 6.8 1.2 14.3 5.6 20 11.7 11.2 12.1 13.2 28.6 5.4 43.9-4.9 9.6-16.9 18-27.7 19.5l-5.2.7v26l-6.2-.7c-33.8-3.7-59.5-25.4-68.4-57.7-2.5-8.9-2.5-28.9 0-37.8 6.9-25.1 25.5-45.5 49.1-53.6 5.7-1.9 17.4-4.3 22.3-4.4l3.2-.1v25.4z"/><path d="M119.8 64.4C77 79.5 60.5 129.4 86 166.5c8.9 12.9 27 24.9 41 27.1l4 .7v-42.8l-4-2.3c-6.7-3.8-12-13.1-12-21.2s6.7-19.4 13-22l3-1.2V62h-2.2c-1.3 0-5.3 1.1-9 2.4zM150 130c0 11.7.3 16 1.2 16 2.2 0 8.6-5.1 11.2-8.9 4.4-6.3 4.4-8.9-.4-14.3-3.6-4.2-9.6-8.8-11.4-8.8-.3 0-.6 7.2-.6 16zM163.2 150c-2.4 2.2-6.3 4.6-8.8 5.6-4.4 1.7-4.4 1.7-4.4 6.5 0 5.4.9 6 5 3.2 4.9-3.2 8.2-6.9 10.7-11.6 3.5-7 2.6-8.3-2.5-3.7z"/></svg>