<?xml version="1.0" standalone="no"?>
<!DOCTYPE svg PUBLIC "-//W3C//DTD SVG 20010904//EN"
 "http://www.w3.org/TR/2001/REC-SVG-20010904/DTD/svg10.dtd">
<svg version="1.0" xmlns="http://www.w3.org/2000/svg"
 width="256.000000pt" height="256.000000pt" viewBox="0 0 256.000000 256.000000"
 preserveAspectRatio="xMidYMid meet">

<g transform="translate(0.000000,256.000000) scale(0.100000,-0.100000)"
fill="#000000" stroke="none">
<path d="M1084 2545 c-263 -41 -512 -169 -706 -361 -502 -499 -503 -1309 -1
-1806 109 -109 195 -172 321 -236 495 -254 1093 -159 1486 236 394 397 488
990 234 1484 -64 126 -127 212 -236 321 -285 288 -700 424 -1098 362z m326
-749 c0 -284 -8 -257 75 -271 68 -12 143 -56 200 -117 112 -121 132 -286 54
-439 -49 -96 -169 -180 -277 -195 l-52 -7 0 -130 0 -130 -62 7 c-338 37 -595
254 -684 577 -25 89 -25 289 0 378 69 251 255 455 491 536 57 19 174 43 223
44 l32 1 0 -254z"/>
<path d="M1198 1916 c-428 -151 -593 -650 -338 -1021 89 -129 270 -249 410
-271 l40 -7 0 214 0 214 -40 23 c-67 38 -120 131 -120 212 0 81 67 194 130
220 l30 12 0 214 0 214 -22 0 c-13 0 -53 -11 -90 -24z"/>
<path d="M1500 1260 c0 -117 3 -160 12 -160 22 0 86 51 112 89 44 63 44 89 -4
143 -36 42 -96 88 -114 88 -3 0 -6 -72 -6 -160z"/>
<path d="M1632 1060 c-24 -22 -63 -46 -88 -56 -44 -17 -44 -17 -44 -65 0 -54
9 -60 50 -32 49 32 82 69 107 116 35 70 26 83 -25 37z"/>
</g>
</svg>
