<svg xmlns="http://www.w3.org/2000/svg" width="288" height="288"><path fill="#C51F56" d="M0 0h288v288H0V0Z"/><path fill="#AC9A9F" d="m114.438 48.688 3.525-.01c6.907.042 13.33.65 20.037 2.322v2l2.5.313c7.133 1.4 12.435 4.052 18.324 8.187 2.183 1.548 2.183 1.548 4.63 2.914 2.817 1.755 5.15 3.733 7.608 5.961l2.536 2.273c7.127 6.977 11.606 14.049 11.891 24.14l.011 2.4.019 2.303c-.183 8.197-3.41 14.98-8.832 21.134-3.693 4.279-6.102 9.383-8.687 14.375h-2l-.813 2.938L164 143l-3 1a77.576 77.576 0 0 0-2 5c-2.051 4.005-4.257 6.474-8 9h-3v3c-15.56 6.704-15.56 6.704-24 7l1.5 2.375c1.448 3.499 1.666 5.18 1.594 8.852l-.041 2.713L127 184c14.748-5.88 28.372-12.882 42-21 24.66-14.604 49.782-28.148 79.418-21.75 8.807 2.558 15.612 6.91 22.582 12.75l2.688 1.875c5.494 5.05 9.85 11.882 10.514 19.426.103 2.674.12 5.336.11 8.012l.05 2.724c.004 5.882-.452 11.719-3.362 16.963l-3 1a77.576 77.576 0 0 0-2 5c-1.5 2.813-1.5 2.813-3 5h-2v2l-9 2v2h-2l-1 3a75.608 75.608 0 0 1-7.563 3l-2.037.75c-13.432 4.676-26.7 5.706-40.787 5.531-2.6-.032-5.199-.04-7.799-.047l-4.966-.03-2.351-.014c-5.38-.073-5.38-.073-6.497-1.19-1.757-.204-3.52-.348-5.285-.465l-3.299-.236c-2.292-.156-4.583-.31-6.875-.461-9.452-.683-9.452-.683-13.725-1.842-10.853-2.833-22.256-2.126-33.386-2.094l-5.675.005c-4.948.003-9.896.013-14.844.024-5.062.01-10.123.015-15.184.02-9.91.01-19.818.028-29.727.049v2l-3.184.332c-6.788.751-13.092 1.515-19.507 3.953-2.938.91-5.821 1.265-8.871 1.653-6.197.788-12.092 2.11-18.108 3.741C6.046 238.556 3.437 239 0 239v-41c15.678-1.377 31.362-2.545 47.063-3.625l2.97-.207c2.833-.196 5.668-.39 8.502-.582l2.577-.18c4.642-.31 9.235-.465 13.888-.406l-1.094-1.582C70.02 185.254 68.965 180.235 70 173c1.25-3.375 1.25-3.375 3-6l1.625-2.563c3.288-3.375 7.097-5.496 11.375-7.437h2a637.303 637.303 0 0 0-2.313-4.813l-1.3-2.707c-1.239-2.488-1.239-2.488-3.055-4.117C80 144 80 144 80 141h-2c-3.332-5.371-3.411-9.727-3.328-15.84l.004-2.883c.01-3.072.04-6.143.074-9.215l.038-6.292c.074-10.653.187-21.31.587-31.957l.093-2.705c.188-3.83.362-5.853 2.532-9.108h3l.746-1.777c1.46-2.587 2.988-3.95 5.317-5.785.712-.58 1.425-1.158 2.16-1.754 8.088-4.903 15.926-5.125 25.215-4.996Z"/><path fill="#6C0312" d="M287 195h1v93H0v-49c24.821-6.205 24.821-6.205 28.938-6.438 4.315-.364 7.988-1.41 12.05-2.863C46.884 227.65 52.842 227.89 59 228v-2c9.854-.927 19.641-1.163 29.527-1.168l4.687-.01c3.253-.006 6.506-.008 9.76-.007 4.129 0 8.258-.014 12.387-.031 3.22-.011 6.44-.013 9.66-.013 1.52 0 3.041-.005 4.562-.013 11-.051 21.7.524 32.417 3.242 1.938.2 3.88.362 5.824.5l3.365.25 7.032.5 3.353.25 3.081.219C187 230 187 230 188 231c2.625.126 5.222.189 7.848.203l2.436.017c1.716.01 3.432.016 5.148.02 2.568.01 5.135.04 7.703.072 13.981.092 27.105-1.427 40.303-6.375l2.212-.775c3.895-1.182 3.895-1.182 6.35-4.162h2v-2c3.314-2.21 4.345-2.225 8.188-2.125l2.73.055L275 216l1-2 1.438-1.25c2.107-2.36 2.596-4.738 3.562-7.75 3.257-7.257 3.257-7.257 6-10Z"/><path fill="#E8E5E4" d="m271 154 2.813 2.063c6.456 5.718 8.696 13.125 9.546 21.46.483 13-3.135 23.149-11.691 32.965-4.695 4.42-9.985 7.489-15.668 10.512l-2.84 1.586c-3.94 1.763-7.823 2.66-12.035 3.539l-2.316.512C214.547 231.868 189.283 228.63 165 225v-2l-7-1v-2l-3.875-.938c-2.226-.538-4.072-1.036-6.125-2.062l-1-3c-1.333 3-1.333 3 0 6-2.27.054-4.542.093-6.813.125l-3.832.07C133 220 133 220 130 218l.5-1.813c.611-2.3.611-2.3.5-5.187l-3.375-.75C124 209 124 209 122.75 206.937L122 205l-3-1v-2h-2v-2l-3-1-1-9c2.188-1.625 2.188-1.625 5-3l2.043.887c4.336 1.632 8.486 1.52 13.082 1.55l2.746.1c2.48.02 4.705-.013 7.129-.537 2.062-2.314 2.062-2.314 3-5 2.945-1.705 4.428-2.076 7.813-1.625L156 183l-1-3 4-4-2.082 1.094-2.73 1.406-2.708 1.406C149 181 149 181 146 181v2c-6.765 3.704-12.46 4.13-20 4v-2l2.038-.895c15.12-6.69 29.418-13.988 43.521-22.623 30.863-18.744 68.21-33.73 99.441-7.482Z"/><path fill="#9CA1A0" d="m114.063 48.813 3.607-.038c7.025-.011 13.512.494 20.33 2.225v2l2.5.313c7.133 1.4 12.435 4.052 18.324 8.187 2.183 1.548 2.183 1.548 4.63 2.914 2.817 1.755 5.15 3.733 7.608 5.961l2.536 2.273c5.986 5.86 10.934 12.49 11.754 21.008.056 9.12.056 9.12-1.352 13.344h-2l-.25 2.188c-.913 3.422-2.49 5.099-4.75 7.812l-1.75 3.25c-1.746 3.218-3.93 5.653-6.438 8.313-3.337 3.606-4.06 5.597-4.812 10.437-1.632 1.632-3.388 2.996-5.21 4.41-2.784 2.473-4.135 5.28-5.79 8.59h-2v3l-7 1c.535-4.544 2.399-7.295 5-11a85.912 85.912 0 0 0 2-4h3l2-10 3-1 1-5-1.606.494c-2.948.623-5.678.618-8.69.604l-3.653-.01-3.801-.025-3.848-.014c-3.134-.012-6.268-.028-9.402-.049l-1-3-2.629-.348c-3.4-.658-6.15-1.69-9.308-3.09-3.322-1.442-6.468-2.764-10-3.562-3.775-1.232-5.39-3.116-8.063-6a197.599 197.599 0 0 0-5-3c-1.813-1.563-1.813-1.563-3-3v-2l-1.75-.188c-3.933-1.42-5.755-4.927-7.734-8.468C77.208 85.912 75.733 79.13 77 71c3.304-7.865 8.905-16.083 16.875-19.625A79.415 79.415 0 0 1 98 50c5.175-1.725 10.646-1.185 16.063-1.188Z"/><path fill="#F9F9F9" d="M90 156c2.867.573 3.861.861 6 3 .722 6.399-.216 11.867-2 18-.264 3.347-.415 6.663 0 10 2.59 2.59 4.027 2.374 7.625 2.625l3.04.227L107 190v4l-2 2c.319 2.108.319 2.108 1 4l2-1v3h2v2l5 1 1 3 2 1v2l9 3v3c-1.516 1.516-2.964 1.284-5.082 1.465l-2.708.232-3.022.24-3.18.262c-8.829.697-17.662 1.168-26.505 1.62-29.865 1.252-29.865 1.252-59.01 7.27-4.822 1.257-9.645 1.777-14.599 2.228-4.652.44-8.269 1.361-12.894 2.683v-35c15.678-1.377 31.362-2.545 47.063-3.625l2.97-.207c2.833-.196 5.668-.39 8.502-.582l2.577-.18c4.642-.31 9.235-.465 13.888-.406l-1.094-1.582C70.02 185.254 68.965 180.235 70 173c2.715-7.33 7.03-11.755 14-15 3.438-.25 3.438-.25 6 0v-2Z"/><path fill="#DBC5CA" d="m114.063 48.813 3.607-.038c7.025-.011 13.512.494 20.33 2.225v2l2.5.313c7.133 1.4 12.435 4.052 18.324 8.187 2.183 1.548 2.183 1.548 4.63 2.914 2.817 1.755 5.15 3.733 7.608 5.961l2.536 2.273c5.986 5.86 10.934 12.49 11.754 21.008.056 9.12.056 9.12-1.352 13.344h-2l-.25 2.188c-.913 3.422-2.49 5.099-4.75 7.812l-1.75 3.25c-1.746 3.218-3.93 5.653-6.438 8.313-3.337 3.606-4.06 5.597-4.812 10.437-1.632 1.632-3.388 2.996-5.21 4.41-2.784 2.473-4.135 5.28-5.79 8.59h-2v3l-7 1c.535-4.544 2.399-7.295 5-11a85.912 85.912 0 0 0 2-4h3l2-10 3-1 1-5-1.606.494c-2.948.623-5.678.618-8.69.604l-3.653-.01-3.801-.025-3.848-.014c-3.134-.012-6.268-.028-9.402-.049l-1-3-2.629-.348c-3.4-.658-6.15-1.69-9.308-3.09-3.322-1.442-6.468-2.764-10-3.562-3.775-1.232-5.39-3.116-8.063-6a197.599 197.599 0 0 0-5-3c-1.813-1.563-1.813-1.563-3-3v-2l-1.75-.188c-3.933-1.42-5.755-4.927-7.734-8.468C77.208 85.912 75.733 79.13 77 71c3.304-7.865 8.905-16.083 16.875-19.625A79.415 79.415 0 0 1 98 50c5.175-1.725 10.646-1.185 16.063-1.188ZM84 66c-1.26 2.809-1.26 2.809-1 6l-.242 2.395C82.085 83.804 86.038 91.83 92 99l2.313 1.375C97 102 97 102 99.563 104.813c4.278 4.455 9.893 6.661 15.437 9.187l2.086 1.008c3.919 1.826 7.627 2.555 11.914 2.992v2c3.931 1.966 8.865 1.185 13.188 1.188l3.119.037c5.586.01 10.49-.08 15.693-2.225 2.252-3.172 2.252-3.172 3-7-.673-3.361-.673-3.361-2-6h2l.184-2.633.254-3.492.246-3.445C165 93 165 93 165.55 89.836c.628-3.967.237-6.894-.551-10.836l-3-2h2v-4h-2l-.75-2.313c-1.371-2.948-2.485-4.045-5.25-5.687h-2v-3c-11.562-5.489-21.716-8.684-34.656-8.521-2.04.021-4.078 0-6.12-.026C100.786 53.502 92.343 56.506 84 66Z"/><path fill="#944F52" d="M87 104c2.768 1.128 4.222 2.234 6.313 4.438 4.496 4.287 10.09 5.72 15.87 7.609a478.214 478.214 0 0 1 11.317 4.016l2.18.78c5.205 1.926 5.205 1.926 6.32 4.157h31v5l-4 1 .125 2.75c-.121 3.15-.333 4.704-2.125 7.25l-3 1-1 3c-3.444 3-3.444 3-6 3v2h-2l-.75 2.25c-1.374 3.023-2.656 4.69-5.25 6.75h-4l-1 3c-2.229.054-4.458.093-6.688.125l-3.761.07c-3.363-.185-5.55-.737-8.551-2.195v-2l-1.773-.207c-3.093-1.101-4.025-2.788-5.852-5.48-.59-.85-1.18-1.7-1.79-2.575-3.45-5.957-3.877-11.088-3.772-17.8l.001-2.393c.03-3.986.265-7.648 1.186-11.545v-2l-4-1v-2l-2.25-.75c-3-1.364-4.67-2.709-6.75-5.25v-3Z"/><path fill="#AC6065" d="m86 56 2 1-1.68 1.793-2.195 2.395-2.18 2.355c-4.176 5.275-4.484 10.263-4.402 16.82.879 6.992 3.75 16.174 9.457 20.637l3 1c1.231 1.49 2.46 2.983 3.66 4.5 1.827 2.046 3.918 3.254 6.34 4.5-1.773.71-1.773.71-4 1-1.852-1.398-1.852-1.398-3.625-3.375-2.393-2.699-2.393-2.699-5.375-4.625 2.234 4.468 4.853 6.327 9 9v2l4 1c.381 1.991.713 3.993 1 6l-1 1c-1.006 14.125-1.006 14.125 4 27l1.273 2.05c2.593 3.921 2.593 3.921 6.727 5.95v2c4.156 1.01 8.044 1.102 12.313 1.063l3.8-.028L131 161l1-2 2.313-.813c3.857-1.704 5.825-4.463 7.687-8.187h2v-2c2.5-1.625 2.5-1.625 5-3-1.074 2.915-1.778 4.778-4 7-.643 2.069-.643 2.069-1 4l7-1v-3h2l.254-1.703c.975-3.002 2.574-4.713 4.684-7.047l2.152-2.422C162 139 162 139 164 139l-.313-2.625c.432-4.657 2.04-6.102 5.313-9.375h2l.746-2.152c1.859-4.222 4.682-7.583 7.477-11.227 1.59-2.346 2.355-3.861 2.777-6.621h2l1-3c-.397 5.859-1.003 8.533-5 13l-1.563 3.125C177 123 177 123 175.61 124.325c-2.13 2.218-3.36 4.649-4.797 7.362l-1.605 3.012L168 137h-2l-.813 2.938L164 143l-3 1a77.576 77.576 0 0 0-2 5c-2.051 4.005-4.257 6.474-8 9h-3v3c-15.56 6.704-15.56 6.704-24 7l-1 3v-4h-6l-1-4-3.063-.875-1.925-.559a202.082 202.082 0 0 0-5.762-1.504c-3.024-.988-4.438-1.504-6.25-4.062v-2h-2l-1-1-1 3h-5v2l-4-1h2a637.303 637.303 0 0 0-2.313-4.813l-1.3-2.707c-1.239-2.488-1.239-2.488-3.055-4.117C80 144 80 144 80 141h-2c-3.332-5.371-3.411-9.727-3.328-15.84l.004-2.883c.01-3.072.04-6.143.074-9.215l.038-6.292c.074-10.653.187-21.31.587-31.957l.093-2.705c.188-3.83.362-5.853 2.532-9.108h3l.813-1.813c1.172-2.16 2.38-3.545 4.187-5.187Z"/><path fill="#A38177" d="M280 166c2 1 2 1 3.105 3.418 1.17 4.687 1.225 9.082 1.207 13.894l.05 2.725c.004 5.882-.452 11.719-3.362 16.963l-3 1a77.576 77.576 0 0 0-2 5c-1.5 2.813-1.5 2.813-3 5h-2v2l-9 2v2h-2l-1 3a75.608 75.608 0 0 1-7.563 3l-2.037.75c-13.432 4.676-26.7 5.706-40.787 5.531-2.6-.032-5.199-.04-7.799-.047l-4.966-.03-2.351-.014c-5.38-.073-5.38-.073-6.497-1.19-1.757-.204-3.52-.348-5.285-.465l-3.299-.236c-2.292-.156-4.583-.31-6.875-.461-9.452-.683-9.452-.683-13.725-1.842-10.853-2.833-22.256-2.126-33.386-2.094l-5.675.005c-4.948.003-9.896.013-14.844.024-5.062.01-10.123.015-15.184.02-9.91.01-19.818.028-29.727.049v2l-3.184.332c-6.788.751-13.092 1.515-19.507 3.953-2.938.91-5.821 1.265-8.871 1.653-6.197.788-12.092 2.11-18.108 3.741C6.046 238.556 3.437 239 0 239v-3c8.207-2.526 16.285-4.587 24.756-5.96 3.38-.572 5.337-1.102 8.244-3.04a136.958 136.958 0 0 1 7.938-1.563l2.11-.38c14.154-2.438 28.633-2.553 42.952-3.12l3.378-.133c43.957-1.718 43.957-1.718 60.872.008l2.078.212c3.352.424 6.044 1.136 9.156 2.476 6.473 2.564 13.64 2.364 20.516 2.688 1.527.078 3.055.157 4.582.237 43.68 2.286 43.68 2.286 82.61-15.679 7.36-7.105 12.276-16.277 13.117-26.496.113-6.73-.216-12.842-2.309-19.25Z"/><path fill="#DD1052" d="m167 141 1 3h4l1-2 1 4 4-1 1 3h-3v2l4 2-2.313 2.188c-2.7 2.584-2.7 2.584-4.048 5.283-1.894 2.922-3.555 4.056-6.55 5.799l-2.975 1.743-3.177 1.8-3.24 1.861C134.147 184 134.147 184 127 184l-.148-2.082-.227-2.73c-.07-.894-.14-1.787-.21-2.708-.281-2.724-.281-2.724-2.415-5.48v-3l3.035-.77 4.028-1.042 1.99-.502c3.4-.888 6.599-1.903 9.818-3.323C146 161 146 161 148 161v-3c2.626-1.845 4.951-2.984 8-4l.875-1.875c1.125-2.125 1.125-2.125 3.5-3.5 3.258-2.017 4.674-4.373 6.625-7.625Z"/><path fill="#975558" d="M106 116c5.086.649 9.551 2.13 14.313 3.938l2.205.802c5.358 2.013 5.358 2.013 6.482 4.26h31v5l-4 1 .125 2.75c-.121 3.15-.333 4.704-2.125 7.25l-3 1-1 3c-3.444 3-3.444 3-6 3v2h-2l-.75 2.25c-1.374 3.023-2.656 4.69-5.25 6.75h-4l-1 3c-2.229.054-4.458.093-6.688.125l-3.761.07c-3.363-.185-5.55-.737-8.551-2.195v-2l-1.773-.207c-3.093-1.101-4.025-2.788-5.852-5.48-.59-.85-1.18-1.7-1.79-2.575-3.436-5.934-3.925-11.166-3.897-17.863l-.05-2.418c-.004-5.841-.004-5.841 1.882-9.012L102 119c.625 1.813.625 1.813 1 4l-2 3c-.355 2.64-.355 2.64-.313 5.5l-.05 2.906c.15 2.617.15 2.617 1.722 4.371 4.879 3.636 11.789 4.136 17.641 5.223v2c3.562.058 7.125.094 10.688.125 1.007.017 2.014.034 3.052.05l2.96.02 2.713.032c2.92-.256 4.99-.871 7.587-2.227 2.48-4.446 3.37-7.931 3-13h3v-3l-3.734.105c-9.525.191-18.177.094-27.266-3.105l-1.94-.683a322.358 322.358 0 0 1-6.248-2.317l-2.002-.754c-1.853-.746-1.853-.746-4.81-2.246l-1-3Z"/><path fill="#CCCCCF" d="M83 68c.978 3.176.938 5.705.688 9-.12 8.073 3.947 14.452 8.312 21l2.25 1.313C97 101 97 101 99.563 103.813c4.276 4.453 9.892 6.668 15.437 9.187l2.086.973c3.887 1.75 7.806 2.937 11.914 4.027v2h29c-2.762 2.762-5.207 2.579-9 3 11.297.76 18.018-2.367 27.152-8.73C178 113 178 113 180 112c-3.052 6.389-6.74 12.791-11.813 17.75-2.47 2.167-2.47 2.167-3.062 5.688-1.345 4.257-2.955 5.368-6.371 8.007-2.767 2.453-4.111 5.27-5.754 8.555h-2v3l-7 1c.535-4.544 2.399-7.295 5-11a85.912 85.912 0 0 0 2-4h3l2-10 3-1 1-5-1.606.494c-2.948.623-5.678.618-8.69.604l-3.653-.01-3.801-.025-3.848-.014c-3.134-.012-6.268-.028-9.402-.049l-1-3-2.629-.348c-3.4-.658-6.15-1.69-9.308-3.09-3.322-1.442-6.468-2.764-10-3.562-3.775-1.232-5.39-3.116-8.063-6a197.599 197.599 0 0 0-5-3c-1.813-1.563-1.813-1.563-3-3v-2l-1.75-.188c-3.81-1.376-5.509-4.552-7.5-7.937C80 92 80 92 80 89h2v4h2l-.691-2.527C81.229 82.329 80.295 76.113 83 68Z"/><path fill="#C3B5B4" d="m96 159 4 1v3h-2l1.563 2.25C101 168 101 168 100.813 170.188 100 172 100 172 98 174c-.462 2.433-.462 2.433-.625 5.125l-.227 2.758L97 184h2c1.625 1.375 1.625 1.375 3 3v2l3.313-.063C109 189 109 189 112 190c2 3 2 3 2.5 6.125L115 199l2 1v2h2l2.188 2.813c2 2.56 3.49 3.646 6.562 4.687L131 211c1 3.125 1 3.125 1 6l-1 1c2.884 1.442 5.417 1.094 8.625 1.063l3.602-.028L146 219l-1-3c.16-2.701.604-5.319 1-8h1l1 9 10 3v2l7 1v2l15 1v1c-8.455.456-15.442.044-23.379-3.027-9.094-2.443-18.938-2.168-28.309-2.16l-3.454.002c-12.856.084-25.7.57-38.546 1.06l-3.257.119c-28.194.3-28.194.3-55.056 7.242-3.888 1.486-7.981 2.132-12.061 2.889l-2.643.512C8.873 234.487 4.446 235.285 0 236v-3c5.033-2.418 9.42-3.497 15-3.938 5.51-.532 10.556-1.378 15.875-3 21.48-5.99 44.97-5.793 67.103-7.06l3.149-.181c1.948-.111 3.897-.22 5.846-.327 2.677-.15 5.352-.318 8.027-.494l3.085-.193 3.03-.223 2.762-.193L126 217l1-2-3.375-1.438c-1.892-.815-3.782-1.64-5.625-2.562v-2l-3-1-1-3c-2.015-.733-2.015-.733-4-1v-2h-4l-2-7 3-1v-4l-2.3.105-3.013.083-2.988.105C96 190 96 190 94.164 188.785 91.868 185.264 92.628 181.04 93 177a308.57 308.57 0 0 1 2-7c.452-3.659.747-7.322 1-11Z"/><path fill="#AD767E" d="M184 104c1.353 3.075.929 4.195-.25 7.438-2.05 4.172-3.982 7.69-7.063 11.187-3.693 4.279-6.102 9.383-8.687 14.375h-2l-.813 2.938L164 143l-3 1a77.576 77.576 0 0 0-2 5c-2.051 4.005-4.257 6.474-8 9h-3v3c-15.56 6.704-15.56 6.704-24 7l-1 3v-4h-6l-1-4-3.063-.875-1.925-.559a202.082 202.082 0 0 0-5.762-1.504c-3.024-.988-4.438-1.504-6.25-4.062v-2h-2l-1-1-1 3h-5v2l-4-1h3v-3l3-1v-30l3-1v-5h4v2h2l-.485 1.75c-1.933 8.447-1.98 19.771 2.274 27.418L104 150l1.273 2.05c2.593 3.921 2.593 3.921 6.727 5.95v2c4.156 1.01 8.044 1.102 12.313 1.063l3.8-.028L131 161l1-2 2.313-.813c3.857-1.704 5.825-4.463 7.687-8.187h2v-2c2.5-1.625 2.5-1.625 5-3-1.074 2.915-1.778 4.778-4 7-.643 2.069-.643 2.069-1 4l7-1v-3h2l.254-1.703c.975-3.002 2.574-4.713 4.684-7.047l2.152-2.422C162 139 162 139 164 139l-.313-2.625c.432-4.657 2.04-6.102 5.313-9.375h2l.746-2.152c1.859-4.222 4.682-7.583 7.477-11.227 1.59-2.346 2.355-3.861 2.777-6.621h2v-3Z"/><path fill="#CC1351" d="m11 159 2 1v2l1.75-1.063C17 160 17 160 19 160.063c4.08 1.913 6.224 5.943 8 9.938l-1.25 1.188c-4.427 4.334-4.427 4.334-6 10.125L20 184l7 2 2-3v5h3l2 4 8-2v2h6v2l-38 2v-2h2c-.283-4.854-.562-9.02-2.563-13.5C7.55 175.903 7.734 171.901 8 167l2-1-.625-1.813C9 162 9 162 11 159Zm21 28 2 1Z"/><path fill="#F8F5F4" d="M173 77c5.31 1.77 7.854 4.117 10.75 8.875 2.493 6.205 2.34 14.855.25 21.125h-2l-.219 2.277c-1.454 5.068-6.442 7.157-10.781 9.723-2.95 1.48-5.938 2.773-9 4l-2 1a81.687 81.687 0 0 1-4.79.098l-2.85-.01-2.985-.025-3.008-.014c-2.456-.012-4.911-.028-7.367-.049v-1l3.402-.297c8.169-.788 15.343-1.585 22.598-5.703l2.067-.731c2.18-1.116 2.18-1.116 2.507-3.626l.113-2.944.168-3.268L170 103c.159-2.202.325-4.404.5-6.605.254-3.336.506-6.67.75-10.006l.25-3.244.219-2.927C172 78 172 78 173 77Z"/><path fill="#E6E9EE" d="m111 204 4 1 1 3 2 1v2l9 3v3c-1.516 1.516-2.964 1.284-5.082 1.465l-2.708.232-3.022.24-3.18.262c-8.829.697-17.662 1.168-26.505 1.62-29.865 1.252-29.865 1.252-59.01 7.27-4.822 1.257-9.645 1.777-14.599 2.228C8.35 230.747 4.331 231.635 0 233v-2c7.186-2.875 14.538-4.96 22-7l2.902-.816c3.02-.81 6.045-1.516 9.098-2.184l3.707-.816c12.537-2.47 25.101-2.592 37.83-2.839A381.352 381.352 0 0 0 111 215v-11Z"/><path fill="#A47674" d="m114.5 221.875 3.267-.008c3.13-.006 6.26-.004 9.39 0l2.816-.006c6.388.022 12.675.467 19.027 1.139v2h5v1H59v2l-3.184.332c-6.788.751-13.092 1.515-19.507 3.953-2.938.91-5.821 1.265-8.871 1.653-6.197.788-12.092 2.11-18.108 3.741C6.046 238.556 3.437 239 0 239v-3c8.207-2.526 16.285-4.587 24.756-5.96 3.38-.572 5.337-1.102 8.244-3.04a136.958 136.958 0 0 1 7.938-1.563l2.11-.38c23.385-4.028 47.807-3.156 71.452-3.182Z"/><path fill="#A10B3A" d="M0 272h2l1 8 3-1 1-2c2.125-1.313 2.125-1.313 5-2 2.543.732 4.622 1.788 7 3v2l-3 1v3h2l1-2 1 3h2v-3c4.28-1.522 7.48-2 12-2l-.188-2.313C34 275 34 275 35.376 273.188 37 272 37 272 39 272c-.75 5.75-.75 5.75-3 8h9v3h2l1-4 2 1c-1.875 4.875-1.875 4.875-3 6l2 2H0v-16Z"/><path fill="#FADDE1" d="m259 146 1 2-1 2h-2l-1 2-2-1v-2l-2.625-.875c-1.995-.665-3.978-1.374-5.922-2.176-4.726-1.299-9.198-1.29-14.078-1.262l-2.982.015c-7.17.116-13.621.813-20.393 3.298l-2.785.996c-12.725 4.95-24.863 11.648-35.895 19.668L167 170l-3-1c2.447-5.86 7.45-7.972 12.75-10.875l2.86-1.594C202.871 143.7 233.62 130.96 259 146Z"/><path fill="#BAA" d="M179 112c0 6.578-6.572 12.626-10.875 17.25-2.338 2.565-3.063 3.36-3.625 6.875-.685 3.939-2.651 4.912-5.71 7.285-2.784 2.473-4.135 5.28-5.79 8.59h-2v3l-7 1c.535-4.544 2.399-7.295 5-11a85.912 85.912 0 0 0 2-4h3l2-10 3-1 1-5-1.606.494c-2.948.623-5.678.618-8.69.604l-3.653-.01-3.801-.025-3.848-.014c-3.134-.012-6.268-.028-9.402-.049l-1-2 2.272.063c25.633.76 25.633.76 47.728-11.063l1-1Z"/><path fill="#AF9791" d="M146 208h1l1 9 10 3v2l7 1v2l15 1v1c-8.455.456-15.442.044-23.379-3.027-9.094-2.443-18.938-2.168-28.309-2.16l-3.454.002c-12.856.084-25.7.57-38.546 1.06l-3.257.119c-28.194.3-28.194.3-55.056 7.242-3.888 1.486-7.981 2.132-12.061 2.889l-2.643.512C8.873 234.487 4.446 235.285 0 236v-3c5.033-2.418 9.42-3.497 15-3.938 5.51-.532 10.556-1.378 15.875-3 23.734-6.654 49.615-5.725 74.064-6.195 4.647-.092 9.295-.198 13.942-.303 9.04-.201 18.079-.388 27.119-.564l-1-3c.16-2.701.604-5.319 1-8Z"/><path fill="#E17B91" d="m86 56 2 1-1.68 1.793-2.195 2.395-2.18 2.355C77.06 69.715 77.235 76.42 78 84a53.415 53.415 0 0 0 3.223 7.879c.923 2.52.537 3.607-.223 6.121l.938 2.188c1.49 3.945 1.226 7.64 1.062 11.812l-4 1 1 3c.367 6.073-.11 11.995-1 18h-2c-2.38-8.843-2.271-17.615-2.188-26.688l.024-4.671c.06-9.05.203-18.097.539-27.141l.093-2.835.118-2.571.095-2.198C76 66 76 66 78 63h3l.813-1.813c1.172-2.16 2.38-3.545 4.187-5.187Z"/><path fill="#A1284B" d="M268 151c7.422.608 7.422.608 9.938 2.313 1.185 1.882 1.685 3.502 2.062 5.687h2l1 8 5-2c.1 4.163.172 8.324.22 12.488.02 1.414.047 2.828.082 4.242.049 2.04.071 4.08.089 6.122l.063 3.713c-.541 4.095-1.983 6.174-4.454 9.435-1.697 3.19-3.182 6.415-4.563 9.75C278 214 278 214 276 216c-2.625.125-2.625.125-5 0v-2l2-1a83.47 83.47 0 0 0 2.5-4.5c2.278-4.389 2.278-4.389 4.5-5.5 3.082-6.256 3.492-12.645 3.438-19.5l.06-2.684c-.006-8.782-3.118-15.9-8.498-22.816a106.872 106.872 0 0 0-5.61-4.8c-.458-.397-.917-.792-1.39-1.2v-1Z"/><path fill="#8A3A2F" d="M87 104c2.768 1.128 4.222 2.234 6.313 4.438 3.036 2.895 5.845 3.955 9.687 5.562l1.566 1.828c3.74 3.338 8.144 4.657 12.809 6.36l2.828 1.076c7.97 2.974 15.223 3.91 23.672 4.299l2.664.13c2.154.106 4.307.207 6.461.307v3c-4.146.088-8.291.14-12.438.188l-3.529.076c-10.245.086-17.626-2.276-26.595-6.952l-1.9-.97A833.449 833.449 0 0 1 104 121v-2l-4-1v-2l-4-1v-2l-2.25-.75c-3-1.364-4.67-2.709-6.75-5.25v-3Z"/><path fill="#C68E9A" d="M184 104c1.353 3.075.929 4.195-.25 7.438-2.05 4.172-3.982 7.69-7.063 11.187-3.693 4.279-6.102 9.383-8.687 14.375h-2l-.813 2.938L164 143l-3 1a77.576 77.576 0 0 0-2 5c-4.048 7.903-11.039 10.872-19 14h-2c-.375-2.188-.375-2.188 0-5 1.84-1.99 3.792-3.39 6-5v3l7-1v-3h2l.254-1.703c.975-3.002 2.574-4.713 4.684-7.047l2.152-2.422C162 139 162 139 164 139l-.313-2.625c.432-4.657 2.04-6.102 5.313-9.375h2l.746-2.152c1.859-4.222 4.682-7.583 7.477-11.227 1.59-2.346 2.355-3.861 2.777-6.621h2v-3Z"/><path fill="#A15B5C" d="M80 95c3.71 1.237 4.6 3 7 6l3 1c1.231 1.49 2.46 2.983 3.66 4.5 1.827 2.046 3.918 3.254 6.34 4.5-1.773.71-1.773.71-4 1-1.852-1.398-1.852-1.398-3.625-3.375-2.393-2.699-2.393-2.699-5.375-4.625 2.234 4.468 4.853 6.327 9 9v2l1.938.313L100 116l1 3h-2v-2h-4v5l-2 1c-.656 2.527-.656 2.527-1 5-4.37-.504-6.972-2.972-10-6-.875-3.313-.875-3.313-1-6h4c1.416-2.831 1.242-4.85 1-8-1.598-4.295-1.598-4.295-5-7-.625-3.063-.625-3.063-1-6Z"/><path fill="#A17D78" d="M280 166c2 1 2 1 3.105 3.418 1.17 4.687 1.225 9.082 1.207 13.894l.05 2.725c.004 5.882-.452 11.719-3.362 16.963l-3 1a77.576 77.576 0 0 0-2 5c-1.5 2.813-1.5 2.813-3 5h-2v2l-9 2v2h-2l-1 3a75.608 75.608 0 0 1-7.563 3l-2.037.75c-14.358 4.999-28.378 5.666-43.4 5.438-1.758-.016-3.516-.03-5.273-.042-4.243-.032-8.485-.084-12.727-.146v-1l2.788-.028C234.02 230.68 234.02 230.68 271 210c8.482-9.878 11.617-19.571 11.273-32.516-.32-4.075-1.007-7.606-2.273-11.484Z"/><path fill="#AA8387" d="M95 117h4v2h2l-2 16h-3l1 3.313c1.33 5.216 1.177 10.34 1 15.687l-1-2-2 4h-5v2l-4-1h3v-3l3-1v-30l3-1v-5Z"/><path fill="#923B41" d="M101 133c2.343.256 4.678.593 7 1l1 2c11.054 4.887 25.072 6.053 37 7v2c-7.062 4.423-18.093 2.265-26 1v-2l-3.625.188c-4.139.021-6.748-1.164-10.375-3.188h-3v-3h-2v-5Z"/><path fill="#D90B4B" d="M148 161v2l-2.047.813c-4.813 2.114-8.211 3.636-10.578 8.5L134 176l-3-1v2l6 1 1-2c2.626-1.575 3.871-2 7-2v-2l5 1v-2h5c-4.514 4.118-9.6 6.316-15.125 8.75l-2.746 1.246C130.393 184 130.393 184 127 184l-.148-2.082-.227-2.73c-.07-.894-.14-1.787-.21-2.708-.281-2.724-.281-2.724-2.415-5.48v-3c1.502-.38 1.502-.38 3.035-.77l4.028-1.042 1.99-.502c3.4-.888 6.599-1.903 9.818-3.323C146 161 146 161 148 161Z"/><path fill="#E30B50" d="M151 160h3l1 3 3 2h-2l-1 6h-5v2l-5-1v2l-2.875 1.375c-3.128 1.427-3.128 1.427-5.125 3.625-3.625-.375-3.625-.375-7-1l1-3h3l1.125-3.25c1.756-4.045 3.846-5.813 7.875-7.75 3.875-.25 3.875-.25 7 0l1-4Z"/><path fill="#926253" d="M106 116c5.086.649 9.551 2.13 14.313 3.938l2.205.802c5.358 2.013 5.358 2.013 6.482 4.26h31v5l-4 1 .125 2.75c-.121 3.15-.333 4.704-2.125 7.25l-3 1-2 3 .219-2.3.281-3.012.281-2.989c.26-2.746.26-2.746.219-5.699h3v-3l-3.734.105c-9.525.191-18.177.094-27.266-3.105l-1.94-.683a322.358 322.358 0 0 1-6.248-2.317l-2.002-.754c-1.853-.746-1.853-.746-4.81-2.246l-1-3Z"/><path fill="#FBEEED" d="m100 54-2.188.625c-3.04 1.486-4.52 3.213-6.554 5.875C90 62 90 62 87.375 63.875 84.077 66.825 82.827 69.677 82 74c-.077 6.74 1.564 13.446 3 20l-3-1v-4l-3-1c-3.42-4.871-2.432-11.35-2-17 1.818-5.907 6.402-10.942 11-15 4.18-2.208 7.436-3.521 12-2Z"/><path fill="#E0EEF4" d="m172 78 3 2c.25 2.73.327 5.215.25 7.938l-.016 2.208c-.046 3.194-.218 5.807-1.234 8.854a280.309 280.309 0 0 0-.43 9.55c-.238 5.025-.238 5.025-2.11 7.419L170 117l1 2a161725421.615 161725421.615 0 0 1-4.375 1.938l-2.46 1.09c-1.402.629-2.791 1.285-4.165 1.972a81.687 81.687 0 0 1-4.79.098l-2.85-.01-2.985-.025-3.008-.014c-2.456-.012-4.911-.028-7.367-.049v-1l3.402-.297c8.169-.788 15.343-1.585 22.598-5.703l2.067-.731c2.18-1.116 2.18-1.116 2.505-3.623l.112-2.943.167-3.267L170 103c.17-2.214.348-4.428.535-6.64l.528-6.61.275-3.45L172 78Z"/><path fill="#B5C1C7" d="M154 63c3.786.54 5.554 2.117 8 5v2l4 2v3h2c.334 35.21.334 35.21-3 43-3 2-3 2-5.188 1.625L158 119h3c1.94-6.448 1.94-6.448 1-13h2l-.035-2.633-.028-3.492-.035-3.445c.098-3.43.098-3.43.63-6.586.436-2.65.439-4.59.03-7.219L164 79h-2v-2h2v-4h-2l-.75-2.375c-1.425-2.992-2.228-3.492-5.25-4.625l-2-1v-2Z"/><path fill="#D9D4D9" d="M83.313 218.938c1.82.005 3.639.01 5.458.013 4.41.011 8.82.028 13.229.049v1l-2.876.136c-36.464 1.091-36.464 1.091-72.07 8.012C22.74 229.351 18.464 229.79 14 230c7.516-8.65 22.668-8.024 33.241-8.766 1.784-.056 1.784-.056 2.759-1.234 10.99-1.55 22.245-1.116 33.313-1.063Z"/><path fill="#C8CDD7" d="m96 159 4 1v3h-2l1.563 2.25C101 168 101 168 100.813 170.188 100 172 100 172 98 174c-.462 2.433-.462 2.433-.625 5.125l-.227 2.758L97 184h2c1.625 1.375 1.625 1.375 3 3v2h7v13h-3l-2-7 3-1v-4l-2.3.105-3.013.083-2.988.105C96 190 96 190 94.164 188.785 91.868 185.264 92.628 181.04 93 177a308.57 308.57 0 0 1 2-7c.452-3.659.747-7.322 1-11Z"/><path fill="#D3D5DC" d="M83 68c.978 3.176.938 5.705.688 9-.057 10.557 6.13 18.426 13.066 25.844 2.933 2.815 5.8 5.474 9.496 7.219C108 111 108 111 109 114c-4.95-.437-7.342-2.799-11-6a103.31 103.31 0 0 0-6.914-4.012C85.782 100.998 82.456 97.643 80 92v-3h2v4h2l-.691-2.527C81.229 82.329 80.295 76.113 83 68Z"/><path fill="#BFCED8" d="M161 67c2.95 1.37 5.525 2.878 8 5v2h2c5.331 10.663-.022 29.83-2 41l-3 1 2-41h-2l-.813-1.813c-1.173-2.162-2.423-3.503-4.187-5.187v-1Z"/><path fill="#571617" d="M248 228c-10.698 7.294-23.932 6.347-36.39 6.316-2.671-.003-5.34.02-8.01.045-8.124.03-15.654 0-23.437-2.649-3.346-1.102-6.665-1.382-10.163-1.712v-1c5.77-.12 11.294.083 17 1l1 1c2.625.126 5.222.189 7.848.203l2.436.017c1.716.01 3.432.016 5.148.02 2.568.01 5.135.04 7.703.072 10.616.068 27.753-6.046 36.865-3.312Z"/><path fill="#F9ECEC" d="m237.75 140.625 2.65-.079c6.815-.019 13.224 1.305 18.353 6.09L260 148l-1 2h-2l-1 2-2-1v-2l-2.625-.875a154.766 154.766 0 0 1-6.153-2.183c-3.547-1.037-6.462-1.17-10.152-1.137l-3.906.02-4.039.05A1882.073 1882.073 0 0 0 213 145l1-2c7.631-2.192 15.864-2.251 23.75-2.375Z"/><path fill="#D7B4BB" d="m115.063 48.813 3.779.04c3.053.036 6.105.085 9.158.147v2l-18 1c5.744-.079 5.744-.079 11.487-.18l2.185-.015 2.222-.032c2.405.26 4.019 1.035 6.106 2.227l-2.627.06c-3.25.079-6.5.165-9.75.257-1.401.038-2.802.073-4.202.105-7.353.168-14.358.339-21.421 2.578l1-2-7 1c6.594-8.314 17.436-7.387 27.063-7.188Z"/><path fill="#996660" d="m111.832 221.867 2.174-.003c1.506 0 3.013.001 4.52.006 2.27.005 4.541 0 6.812-.007 7.932-.003 15.775.199 23.662 1.137v2h5v1l-62-1c6.398-3.199 12.777-3.127 19.832-3.133Z"/><path fill="#96817E" d="M115.988 177.16c2.012.84 2.012.84 3.242 2.836l.957 2.441.981 2.434L122 187l1 2-2.75-.625c-3.37-.389-4.532-.288-7.25 1.625l-1 2v-2l-2.875-.188L106 189c-1.375-2.563-1.375-2.563-2-5 2.498-2.676 4.636-4.542 8-6 2-1 2-1 3.988-.84Z"/><path fill="#DFD3D3" d="M215 147c-3.42 2.787-6.688 4.296-10.898 5.578-8.242 2.559-16.266 6.1-23.102 11.422a438.385 438.385 0 0 1-4.438 2.938c-2.585 1.7-4.938 3.378-7.312 5.375-2.464 1.847-4.219 2.34-7.25 2.687v-2h4l.566-2.203c1.949-3.801 4.809-5.429 8.371-7.547.698-.425 1.395-.85 2.113-1.29 8.324-4.96 17.092-9.054 25.95-12.96l2.813-1.242c3.086-1.07 5.952-.885 9.187-.758Z"/><path fill="#F7D9DB" d="M157 175c-2.476 2.653-4.59 4.68-8 6h-3v2c-6.765 3.704-12.46 4.13-20 4v-2c3.466-1.695 6.95-3.35 10.438-5l2.95-1.445c6.235-2.92 10.728-4.125 17.612-3.555Z"/><path fill="#A92E4F" d="M268 151c7.422.608 7.422.608 9.938 2.313 1.185 1.882 1.685 3.502 2.062 5.687h2l1 8 5-2v12h-2l-1 11h-1l-.078-2.965c-.335-7.738-.91-14.243-4.922-21.035l-1.813-3.188c-2.337-3.005-4.836-5.243-7.796-7.613L268 152v-1Z"/><path fill="#D4335E" d="M75 64h2l-2 60c-2.051-4.102-2.304-6.109-2.45-10.594l-.13-3.87-.053-2.008a672.294 672.294 0 0 0-.197-6.063C71.852 91.126 71.852 91.126 73 87c.039-2.333.045-4.667 0-7h-3l1-5h3l-.035-2.152-.028-2.785-.035-2.778C74 65 74 65 75 64Z"/><path fill="#B4A29B" d="M249 225c-19.891 7.735-41.061 6.34-62 6v-2l-7-1v-1l3.531.219C201.8 228.285 233.12 220.07 249 225Z"/><path fill="#C37481" d="M82 101c3.443 3.443 4.81 5.175 5.313 10-.344 3.3-1.095 4.597-3.313 7l-3-2 .691 2.59.871 3.347.88 3.34L84 128l-1 1a91.472 91.472 0 0 0-.063 5.063l.028 2.785L83 139h-4c-1.052-3.74-.83-6.72-.258-10.531.536-5.133.329-10.315.258-15.469l3-1v-11Z"/><path fill="#D1CFD1" d="m111 204 4 1 1 3 2 1v2l9 3v3c-3.012 3.012-11.62 1.993-15.621 2.063-3.127 0-6.252-.018-9.379-.063v-1h11v-2l-2-1v-11Z"/><path fill="#B57581" d="M280 166c2 1 2 1 3.105 3.418 1.17 4.687 1.225 9.082 1.207 13.894l.05 2.725c.004 5.882-.452 11.719-3.362 16.963l-3 1a77.576 77.576 0 0 0-2 5c-1.5 2.813-1.5 2.813-3 5h-2v2l-4-1 2.012-2.387c9.831-11.98 14.422-22.752 12.988-38.613-.478-2.806-1.115-5.288-2-8Z"/><path fill="#D9154F" d="m77 159 3 1-1.172 1.25C71.163 169.75 69.35 176.535 69 188h-1l-.25-3.625c-.394-3.445-.814-4.465-2.938-7.438C63 174 63 174 63.563 170.188c.475-1.051.95-2.103 1.438-3.187l3-1 2 1 1.375-2L73 163h2v-3l2-1Zm-9 9 1 2Z"/><path fill="#C72E5B" d="m159 52 1 4h2v3c1.934 1.9 4.024 3.506 6.152 5.184 2 1.966 2.47 3.08 2.848 5.816l-2.469-1.68c-3.93-2.617-7.969-5.039-12.031-7.445l-2.223-1.34C150.27 57.163 146.517 55.272 142 54c3.395-1.165 5.34-.83 8.688.375l2.386.836C155 56 155 56 156 57l3-5Z"/><path fill="#8E5756" d="M39 230c-3.993 2.662-6.38 3.234-11.125 3.813-6.325.856-12.386 2.197-18.543 3.866C6.048 238.556 3.438 239 0 239v-3c9.799-3.116 18.856-5.104 29.219-4.953C32.68 230.989 35.4 229.905 39 230Z"/><path fill="#A4605C" d="M80 95c3.71 1.237 4.6 3 7 6l3 1c1.231 1.49 2.46 2.983 3.66 4.5 1.827 2.046 3.918 3.254 6.34 4.5-1.773.71-1.773.71-4 1-1.852-1.398-1.852-1.398-3.625-3.375-2.393-2.699-2.393-2.699-5.375-4.625l.727 1.758c2.451 6.46 2.451 6.46 1.46 10.805L88 119h-5l-1 3-1-6h4c1.416-2.831 1.242-4.85 1-8-1.598-4.295-1.598-4.295-5-7-.625-3.063-.625-3.063-1-6Z"/><path fill="#DC225B" d="M75 135c1.5 1.313 1.5 1.313 3 3v3h2c1.066 1.625 2.047 3.306 3 5 1.331 2.048 2.667 4.094 4.012 6.133C88 154 88 154 88 157c-2.888 2.108-4.385 3-8 3-.125-5.75-.125-5.75 1-8h2v-2l-5 1 2-5c-1.925-2.224-1.925-2.224-5-3l1-3c-.394-2.638-.394-2.638-1-5Z"/><path fill="#CBC7D5" d="M118 168c2.9.468 3.867.867 6 3 .633 2.602.633 2.602 1.125 5.625l.508 3.04L126 182c-1.902.566-1.902.566-4 1-3.162-2.15-4.611-5.528-6-9 .39-4.39.39-4.39 2-6Z"/><path fill="#DBDCDA" d="m100 54-2.188.625c-3.04 1.486-4.52 3.213-6.554 5.875C90 62 90 62 87.375 63.875c-3.962 3.545-5.21 7.62-5.555 12.867-.007 2.428.046 4.834.18 7.258-2.492-3.737-2.41-6.677-2-11 .526-2.412 1.217-4.652 2-7l-2-1c4.39-5.706 7.982-9.74 15.02-11.758C97 53 97 53 100 54Z"/><path fill="#BDAEA6" d="M146 208h1l1 9 10 3v2l7 1v2l15 1v1c-9.87.533-17.716-.707-27-4a113.91 113.91 0 0 0-4-1v-2l-3-1c-1.35-4.05-.62-6.792 0-11Z"/><path fill="#D2154A" d="M150 171h5c-4.514 4.118-9.6 6.316-15.125 8.75l-2.746 1.246C130.393 184 130.393 184 127 184v-8l2 1v2l3.938-.375c.73-.07 1.461-.14 2.214-.21L137 178l1-2c2.626-1.575 3.871-2 7-2v-2l5 1v-2Z"/><path fill="#760D26" d="M279 0h9v16c-4.5-4.5-4.5-4.5-5-8h-2V6l-2-1V0Z"/><path fill="#D88F9E" d="M76 93h2c2.106 5.528 3.379 10.07 3 16l-3 1v14h-1c-.886-3.79-1.117-7.287-1.098-11.176l.01-3.506.025-3.63.014-3.69c.012-3 .028-5.999.049-8.998Z"/><path fill="#C37585" d="M184 104c1.353 3.075.929 4.195-.25 7.438-2.05 4.172-3.982 7.69-7.063 11.187-3.693 4.279-6.102 9.383-8.687 14.375-1.534-3.069-.55-5.7 0-9l3-1a161.991 161.991 0 0 0 2-5c1.988-2.866 4.1-5.612 6.223-8.379 1.59-2.346 2.355-3.861 2.777-6.621h2v-3Z"/><path fill="#C0838E" d="M78 90h2c.73 1.977 1.394 3.98 2 6l-1 2 .938 2.063c1.451 4.013 1.228 7.714 1.062 11.937l-4 1 1 3c.367 6.073-.11 11.995-1 18h-1v-24l2-1c.196-4.889-.436-8.405-2-13-.125-3.375-.125-3.375 0-6Z"/><path fill="#D1C2C1" d="m159 175 2 1-2.5 2.313c-2.84 2.441-2.84 2.441-2.5 5.687h-9l-2.23 1.984c-3.775 2.748-6.552 2.477-11.083 2.266l-2.244-.055c-1.815-.047-3.629-.118-5.443-.195v-1l2.852-.367 3.773-.508 3.727-.492c3.388-.588 6.425-1.453 9.648-2.633v-2c2.12-1.03 4.246-2.049 6.375-3.063l3.586-1.722L159 175Z"/><path fill="#B8A6A8" d="m151 141 2 3 5-1-5 9h-2v3l-7 1c.535-4.544 2.399-7.295 5-11a85.912 85.912 0 0 0 2-4Z"/><path fill="#D7D7D3" d="m148 210 2 1 .426 1.973L151 215c2.679 1.208 5.21 2.112 8 3 2.441.822 4.879 1.656 7.313 2.5l3.613 1.219C173 223 173 223 176 226l-11-1v-2l-7-1v-2l-3.875-.938c-2.226-.538-4.072-1.036-6.125-2.062v-7Z"/><path fill="#C75C71" d="M75 124h1l3 15 3-1c.315.58.63 1.16.953 1.758 2.5 4.564 5.085 8.963 8.047 13.242l-2 1-1 3-.988-2.082-1.325-2.73-1.3-2.708c-1.239-2.488-1.239-2.488-3.055-4.117C80 144 80 144 80 141h-2c-3.616-5.575-3.307-10.606-3-17Z"/><path fill="#842A32" d="M88 225v1a3705.617 3705.617 0 0 0-11.5 1.375l-3.266.383c-4.609.562-9.099 1.119-13.578 2.367-3.834.918-6.752.907-10.656.5l-3.438-.336L43 230v-1c5.361-1.129 10.553-1.097 16-1v-2c9.696-.93 19.273-1.112 29-1Z"/><path fill="#BA3153" d="m226 133 2 3h3c4.985 0 9.398 1.078 14 3l1 2-26-1 1-4 5 1v-4Z"/><path fill="#A47474" d="M95 117h4v2h2l-2 13-7-4v-5l3-1v-5Z"/><path fill="#BDADAC" d="M80 221v1l-2.484.228c-3.819.354-7.636.716-11.454 1.084-1.026.1-1.026.1-2.073.2-9.41.916-18.673 2.103-27.934 4.035-2.912.432-4.313.254-7.055-.547 7.676-2.661 15.186-3.86 23.25-4.688l3.597-.385C63.93 221.1 71.873 220.594 80 221Z"/><path fill="#FDEFEF" d="M184 157v2c-2.589 2.143-5.487 3.872-8.313 5.688l-2.38 1.587-2.295 1.487-2.11 1.373C167 170 167 170 164 169c2.22-4.433 4.599-6.365 8.875-8.813l3.117-1.832c3.001-1.352 4.77-1.66 8.008-1.355Z"/><path fill="#CDD3D5" d="m158 121-9 2 6 1v1c-3 .082-5.999.14-9 .188l-2.543.076c-5.861.068-10.089-.897-15.457-3.264v-1c4.25-.197 8.5-.38 12.75-.563l3.656-.17 3.516-.146 3.237-.143C154 120 154 120 158 121Z"/><path fill="#CCD7DF" d="M161 67c2.95 1.37 5.525 2.878 8 5v2h2c1.671 3.342 1.19 7.077 1.188 10.75l.001 2.568c-.06 7.367-.864 14.428-2.189 21.682h-1V75h-3l-.813-1.813c-1.173-2.162-2.423-3.503-4.187-5.187v-1Z"/><path fill="#C74567" d="M134 48v2c1.423-.03 1.423-.03 2.875-.063C140 50 140 50 142 51v2h-4v-2c-7.535-.86-15.048-1.282-22.625-1.563l-3.332-.13c-2.68-.105-5.362-.207-8.043-.307v-2c10.401-1 19.67-.953 30 1Z"/><path fill="#C69EAB" d="M124 171c3 3 3 3 3.293 5.48l-.106 2.708-.082 2.73L127 184l2 1h-3v3c2.625-.14 5.25-.287 7.875-.438l2.262-.119c4.063-.159 4.063-.159 7.863-1.443l-1 4c-2.564.108-5.123.187-7.688.25l-2.185.102c-3.882.07-5.734-.114-9.147-2.18C122 186 122 186 122 183l3-1-1-11Z"/><path fill="#A98C87" d="M160 125v5l-4 1 .125 2.75c-.121 3.15-.333 4.704-2.125 7.25l-3 1-2 3c.523-2.763 1.109-5.326 2-8h2l-.25-2.25C153 132 153 132 157 128l-19-1v-1c2.917-.168 5.833-.334 8.75-.5l2.5-.145 2.422-.136 2.222-.127c2.033-.089 4.07-.092 6.106-.092Z"/><path fill="#B1A298" d="M110 190h2c2 3 2 3 2.5 6.125L115 199l2 1v2h2l2.188 2.813c2.81 3.558 5.58 4.694 9.812 6.187v3c-6.991-2.5-14.665-7.104-18.625-13.563-1.46-3.652-2.057-6.541-2.375-10.437Z"/><path fill="#F7BEC7" d="M71 170h1l1 16h2l1 3 2 1v3c-4.97 1.991-9.123 2.248-14.375 2.125l-2.23-.027c-1.799-.024-3.597-.06-5.395-.098v-1l19-1-2.5-3.813c-3.013-5.37-3.193-10.148-2.5-16.187l1-3Z"/><path fill="#BFB9B5" d="m109 190 2 1c.463 1.953.925 3.906 1.371 5.863 1.345 4.568 3.73 7.537 7.629 10.137v3h2v2l3 1-2 1c-2.625-1.313-2.625-1.313-5-3v-2l-3-1-1-3a70.134 70.134 0 0 0-4-1c-1.382-2.765-1.095-5.046-1.063-8.125l.028-3.32L109 190Z"/><path fill="#C6BCC5" d="m96 159 4 1v3h-2l1.563 2.25C101 168 101 168 100.813 170.188 100 172 100 172 98 174c-.462 2.433-.462 2.433-.625 5.125l-.227 2.758L97 184h-2l1-25Z"/><path fill="#CDC0BB" d="M179 112c0 3 0 3-1.313 4.688C176 118 176 118 173 118v3l-2 1-.688 1.938C169 126 169 126 165.375 127.25L162 128v-4l-2-1 1.652-.664C167.734 119.778 174.27 116.73 179 112Z"/><path fill="#B2B5B7" d="M154 63c3.786.54 5.554 2.117 8 5v2l4 2v3h2l-1 12h-2l-1-8h-2v-2h2v-4h-2l-.75-2.375c-1.425-2.992-2.228-3.492-5.25-4.625l-2-1v-2Z"/><path fill="#9F0836" d="M19 278v2l-3 1c-1.209 2-1.209 2-2 4h-4v-2l-3-2v-4c4.146-3.283 7.72-.933 12 1Z"/><path fill="#FCF8FA" d="m244 142-1 2-30 1 1-2c9.894-2.82 19.909-1.894 30-1Z"/><path fill="#863F3C" d="m128 142 18 1v2c-7.062 4.423-18.093 2.265-26 1v-1l12-1-4-2Z"/><path fill="#6F3735" d="M170 229c5.77-.12 11.294.083 17 1l1 1c2.446.16 4.867.26 7.316.316l2.216.063c2.343.066 4.687.125 7.03.184l4.756.13c3.894.108 7.788.209 11.682.307v1c-5.16.05-10.319.086-15.479.11-1.753.01-3.507.024-5.26.04-2.527.025-5.054.037-7.581.045l-2.359.032c-4.52 0-8.05-.564-12.321-2.227-2.667-.473-5.302-.72-8-1v-1Z"/><path fill="#AFB6B6" d="M93 99c2.968 1.142 4.318 2.35 6.5 4.75 4.307 4.482 9.916 6.714 15.5 9.25l2.086.973c3.887 1.75 7.806 2.937 11.914 4.027v1c-11.523 0-23.262-6.574-31.52-14.36-1.622-1.797-3.06-3.68-4.48-5.64Z"/><path fill="#DAD8D9" d="m137 180 2 1-1 2 8-1c-5.62 5.151-12.8 5.257-20 5v-2c1.787-.864 3.58-1.716 5.375-2.563l3.023-1.44L137 180Z"/><path fill="#842F32" d="M116 141h12v2l14 1v1c-3.583.03-7.167.047-10.75.063l-3.078.025-2.969.01-2.73.016c-2.307-.106-4.264-.463-6.473-1.114v-3Z"/><path fill="#AA837A" d="M106 116c5.138.64 9.588 2.197 14.375 4.063l2.23.853c1.8.69 3.598 1.386 5.395 2.084v2c-5.271.369-9.037-.842-13.813-2.813l-2.06-.79c-1.75-.707-3.444-1.544-5.127-2.397l-1-3Z"/><path fill="#E5CAD3" d="M160 65c5.132.435 7.495 1.837 11.188 5.375l2.542 2.398A514.658 514.658 0 0 1 179 78l-1 2c-4.677-1.477-4.677-1.477-6.313-4.125L171 74h-2v-2l-1.688-.688c-2.944-1.671-4.994-3.865-7.312-6.312Z"/><path fill="#B8959A" d="m143 153 1 3 7-1c-1 3-1 3-3.215 4.387l-2.722 1.3-2.715 1.325C140 163 140 163 138 163c-.313-2.188-.313-2.188 0-5 2.5-2.813 2.5-2.813 5-5Z"/><path fill="#AA8887" d="M148 145c0 3.739-.905 4.366-3.375 7.063l-1.898 2.097c-1.221 1.3-2.466 2.579-3.727 3.84l-.313 2.5c-.687 2.5-.687 2.5-3 3.875-2.799.651-4.004.415-6.687-.375l1.61-1.355c6.578-5.57 6.578-5.57 11.39-12.645h2v-2c2-1.625 2-1.625 4-3Z"/><path fill="#AF7173" d="M82 101c3.443 3.443 4.81 5.175 5.313 10-.344 3.3-1.095 4.597-3.313 7l-5-2v-3l3-1v-11Z"/><path fill="#996A68" d="M141 148h3v2h-2l-.75 2.25c-1.374 3.023-2.656 4.69-5.25 6.75h-4l-1 3h-14v-1l14-1v-2c1.68-1.621 1.68-1.621 3.875-3.438 2.587-2.146 4.237-3.73 6.125-6.562Z"/><path fill="#BDB3B0" d="m180 227 3.637.184c12.453.626 24.908 1.228 37.363 1.816v1c-4.714.05-9.428.086-14.142.11-1.601.01-3.202.023-4.804.04-2.31.025-4.622.037-6.933.045l-2.144.032c-4.735 0-8.53-.76-12.977-2.227v-1Z"/><path fill="#7E2E36" d="M271 216c-5.754 6.093-10.776 9.54-19 11-2.242-.457-2.242-.457-4-1l2.371-.805 3.066-1.07 3.06-1.055c2.643-.81 2.643-.81 3.503-3.07h2v-2c3.435-2.29 4.985-2.178 9-2Z"/><path fill="#E9DFD5" d="M0 212h3c2.454 3.681 2.233 5.653 2 10l-1 3H0v-13Z"/><path fill="#D11B4D" d="M171 161c-2.803 2.999-5.594 5.163-9.125 7.25l-2.633 1.578C157 171 157 171 155 171v-4h5l.188-1.813c.812-2.187.812-2.187 3.062-4 3.149-1.36 4.533-1.198 7.75-.187Z"/><path fill="#933C32" d="M87 104c2.768 1.128 4.222 2.234 6.313 4.438 2.367 2.257 3.543 3.09 6.437 4.25C103 114 103 114 104 116h-2l-1 3-1-3c-2.015-.733-2.015-.733-4-1v-2l-2.25-.75c-3-1.364-4.67-2.709-6.75-5.25v-3Z"/><path fill="#E2E8F0" d="M95 159h1c.211 6.497-.177 11.732-2 18-.621 6.871-.621 6.871 2 13h-5c-1.403-7.013-.47-11.324 2.008-17.98C94.42 167.72 94.8 163.5 95 159Z"/><path fill="#EBF1F1" d="m160 210 3 1-3 5h2l1 2c2.158.946 4.352 1.81 6.563 2.625l3.628 1.352L176 223c-4.063 1.354-6 .234-10-1.188l-3.75-1.292c-3.228-1.51-4.675-2.352-6.25-5.52 1-3 1-3 4-5Z"/><path fill="#8D776C" d="M109 182c5.75.875 5.75.875 8 2l-1 5c-3.623 1.208-4.641.543-8-1l1-6Z"/><path fill="#C38690" d="M92 141c2.938 3.918 4.071 6.271 5 11-.875 2.438-.875 2.438-2 4h-5v2l-4-1h3v-3l3-1v-12Z"/><path fill="#BBAAA2" d="M120 208c3.483 1.258 6.074 2.757 9 5l3 1-.625 1.875L131 218l2 2h-15v-1l9-1v-3a158.623 158.623 0 0 0-5-3v-2h-2v-2Z"/><path fill="#CFD3D9" d="m91 98 1.32 1.137c1.245 1.07 2.491 2.137 3.739 3.203a632.002 632.002 0 0 1 3.601 3.101c2.14 1.834 4.11 3.447 6.653 4.684C108 111 108 111 109 114c-5.073-.448-7.288-2.772-11-6l-3-1c-1.063-2.313-1.063-2.313-2-5a218.813 218.813 0 0 0-2-4Z"/><path fill="#AB6C73" d="M91 128h1l1 26c-4-2-4-2-4.75-4.125L88 148h2l-.035-3.105-.028-4.083-.025-2.04c-.018-3.726.195-7.15 1.088-10.772Z"/><path fill="#ABB6BB" d="M165 89h1c.03 3.23.047 6.458.063 9.688l.025 2.763.01 2.686.016 2.46c-.121 2.552-.554 4.913-1.114 7.403-1.945-2.918-2.453-4.625-3-8h2l-.035-2.703-.028-3.547-.035-3.516c.08-2.644.312-4.732 1.098-7.234Z"/><path fill="#B9C2C1" d="M83 68c.978 3.176.938 5.705.688 9-.107 6.105 2.026 10.238 5 15.469C90 95 90 95 90 98c-3.137-2.823-4.67-5.01-6-9l-.82-2.004C80.582 80.266 80.728 74.816 83 68Z"/><path fill="#873437" d="m101 133 7 1 1 4 4 1v2c-4.195-.6-8.01-1.575-12-3v-5Z"/><path fill="#CDC8CB" d="M39 225c-8.307 2.381-16.315 4.591-25 5 2.227-2.574 3.742-3.438 7.09-3.984l2.377-.395 2.47-.371 2.46-.418c3.895-.62 6.775-.997 10.603.168Z"/><path fill="#9E6F74" d="M99 141c2 2 2 2 3.313 5.188 1.64 3.972 3.754 7.647 6.687 10.812l3 1-1 2c-3.233-1.011-6.17-2.119-9-4-1.374-2.742-1.594-4.902-2-8l-1-1c-.04-2-.043-4 0-6Z"/><path fill="#BFBBC5" d="m118 168 2 1-2 6 3 1v4c2.51-1.255 2.871-2.5 4-5l1 7c-1.813.688-1.813.688-4 1-3.162-2.15-4.611-5.528-6-9 .39-4.39.39-4.39 2-6Z"/><path fill="#AA3D59" d="M268 151c7.303.599 7.303.599 10.063 2.188 1.43 2.765.654 4.88-.063 7.812-7.483-6.15-7.483-6.15-10-10Z"/><path fill="#C4576F" d="m182 84 3 1v2h2c1.148 5.869.773 11.089 0 17h-2l-.148-2.852-.227-3.773c-.07-1.23-.14-2.46-.21-3.727-.396-3.485-1.178-6.378-2.415-9.648Z"/><path fill="#CE345F" d="M148 161v2c-8.144 4.363-14.742 6.33-24 6 2.35-2.35 3.292-2.377 6.5-2.875 4.799-.865 9.004-2.385 13.469-4.32C146 161 146 161 148 161Z"/><path fill="#CBCACB" d="M103 189h6v13h-3l-2-7 3-1v-4l-4-1Z"/><path fill="#EBE1E5" d="m100 54-3.5 1.625C91.915 57.901 87.99 60.816 84 64c.507-3.753 1.079-5.578 4-8 2.156-.984 2.156-.984 4.5-1.75l2.344-.797C97 53 97 53 100 54Z"/><path fill="#DDD8D5" d="m226.938 143.875 3.652-.008c2.942.115 5.555.45 8.41 1.133v1l-23 1v-2c3.66-1.15 7.12-1.133 10.938-1.125Z"/><path fill="#DDE7EA" d="M162 121v2c-2.453 1.226-4.05 1.114-6.79 1.098l-2.85-.01-2.985-.025-3.008-.014c-2.456-.012-4.911-.028-7.367-.049v-1l3.648-.402 4.727-.535 2.406-.264c10.773-1.233 10.773-1.233 12.219-.799Z"/><path fill="#C7BAB8" d="M148.375 182.313 150 183c-1.79 1.01-3.58 2.018-5.371 3.027-1.608.87-1.608.87-2.629 1.973-2.697.073-5.367.092-8.063.063l-2.298-.014c-1.88-.012-3.76-.03-5.639-.049v-1l2.852-.332 3.773-.48 3.727-.458c4.163-.833 7.906-3.96 12.023-3.417Z"/><path fill="#C14E68" d="M184 104c1.353 3.075.929 4.195-.25 7.438-2.685 5.465-5.299 9.351-9.75 13.562l.875-1.723c2.622-5.308 4.988-10.756 7.125-16.277h2v-3Z"/><path fill="#DEE3E5" d="m21 226-1.813.875c-2.38 1.172-2.38 1.172-5.187 3.125-2.33.358-4.664.688-7 1-2.363.592-4.67 1.287-7 2v-2c13.863-5.446 13.863-5.446 21-5Z"/><path fill="#D7D1CF" d="M178 166c-11.738 9-11.738 9-16 9v-2h4l.5-2.313c1.972-3.533 3.922-4.011 7.625-5.304C176 165 176 165 178 166Z"/><path fill="#DB285B" d="m77 159 3 1-1.207 1.32c-3.282 3.69-5.787 7.11-7.793 11.68l-2-3c.77-3.155 1.33-4.586 4.125-6.313L75 163v-3l2-1Z"/><path fill="#C1ACA8" d="M90 103c6.587 3.04 12.259 7.628 18 12-1.852.637-1.852.637-4 1-2.375-2.188-2.375-2.188-5-5l-3.125-2.063C93.202 107.136 91.723 105.68 90 103Z"/><path fill="#A6A092" d="M114.816 53.902c1.582.007 3.165.019 4.746.035l2.444.014c1.998.012 3.996.03 5.994.049l-1 2c-2.514.368-4.91.605-7.438.75l-2.103.168c-1.816.116-3.64.107-5.459.082l-2-2c1-1 1-1 4.816-1.098Z"/><path fill="#BAA9A5" d="m143 186 1 3c-3.534 1.077-6.88 1.2-10.563 1.25l-3.44.078c-3.363-.368-3.852-.91-5.997-3.328l3.902.035 5.035.028 2.577.025 2.45.01 2.27.016c1.793.08 1.793.08 2.766-1.114Z"/><path fill="#D71752" d="M75 135c1.5 1.313 1.5 1.313 3 3v3h2l3 9-5 1 2-5c-1.925-2.224-1.925-2.224-5-3l1-3c-.394-2.638-.394-2.638-1-5Z"/><path fill="#DD7485" d="m86 56 2 1-1.645 1.758C82.5 62.968 79.175 66.698 77 72h-1c-.25-5.625-.25-5.625 2-9h3l.813-1.813c1.172-2.16 2.38-3.545 4.187-5.187Z"/><path fill="#6C3332" d="M248 228c-3.814 3.909-8.121 3.547-13.25 3.688l-2.547.103c-2.067.082-4.135.147-6.203.209v-1l3.43-.621 4.445-.816 2.262-.409c9.724-1.796 9.724-1.796 11.863-1.154Z"/><path fill="#AA8985" d="M166 227c14.781-.369 14.781-.369 21 2v1c-2.75-.114-5.5-.24-8.25-.375-.777-.03-1.555-.062-2.355-.094-7.12-.365-7.12-.365-10.395-2.531Z"/><path fill="#BF1B4C" d="m5 191 7 1v2h-2v2h9v1c-10.558.369-10.558.369-15-2l1-4Z"/><path fill="#BB2F51" d="m127 176 2 1v2l2.875-.125C135 179 135 179 137 181c-6.625 3-6.625 3-10 3v-8Z"/><path fill="#BA9F9D" d="M173 118h3a174.184 174.184 0 0 1-2 4l-1.25 2.438c-2.206 3.23-4.667 5.164-7.75 7.562.313-2.375.313-2.375 1-5l3-2c1.192-2.05 1.192-2.05 2-4h2v-3Z"/><path fill="#97052F" d="M58 264h3v2l2 1-.5 1.813c-.611 2.3-.611 2.3-.5 5.187l-3 1c-.693-3.724-1.111-7.21-1-11Z"/><path fill="#CE436A" d="M70 184c3.092 2.53 3.91 5.225 5 9h-7c0-3.38.875-5.835 2-9Z"/><path fill="#D8416A" d="M75 124h1l3 15h2l1 6-2-1v-3h-2c-3.616-5.575-3.307-10.606-3-17Z"/><path fill="#9A6364" d="m101 119 2 1c-.875 4.875-.875 4.875-2 6-.073 2.863-.092 5.7-.063 8.563l.014 2.443c.012 1.998.03 3.996.049 5.994-2.352-2.352-2.256-2.807-2.266-5.992l-.007-2.387.023-2.496-.023-2.473.007-2.394.007-2.183c.296-2.37 1.087-4.01 2.259-6.075Z"/><path fill="#D2C9C3" d="M168 121v5l-6 2v-4l-2-1c2.906-1.257 4.796-2 8-2Z"/><path fill="#A88F94" d="M104 159c4.75.75 4.75.75 7 3 .375 2.438.375 2.438 0 5-2 1.813-2 1.813-4 3l-2-1v-3h5v-3l-5-1-1-3Z"/><path fill="#B13F59" d="M248 141c7.625.875 7.625.875 11 2l1-2 1 3c2 1.209 2 1.209 4 2-4.077 1.685-6.83.17-10.75-1.438l-3.547-1.433L248 142v-1Z"/><path fill="#AE4162" d="M283 170h2v3l3-1v5h-2l-1 11h-1l-1-18Z"/><path fill="#CF194F" d="m134 169-2.375 1.813c-2.77 2.098-2.77 2.098-4.625 5.187-3-4.75-3-4.75-3-7 7.75-1.125 7.75-1.125 10 0Z"/><path fill="#D4164F" d="M167 141c.695 1.773.695 1.773 1 4-2.902 4.272-6.987 7.633-12 9 1.06-2.795 1.742-3.85 4.375-5.375 3.258-2.017 4.674-4.373 6.625-7.625Z"/><path fill="#C45670" d="M142 53c9.428.959 9.428.959 13 3 1.813 2.625 1.813 2.625 3 5-2.653-.985-5.022-2.014-7.438-3.5-2.776-1.625-5.49-2.571-8.562-3.5v-1Z"/><path fill="#AB9291" d="M32 228c-2.365 2.365-3.64 2.55-6.875 3.188l-2.617.542c-2.5.27-4.139.047-6.508-.73h2v-2c4.763-.953 9.167-1.083 14-1Z"/><path fill="#C6C1BA" d="M146 208h1l1 9 10 3v1h-7v-2l-6-2 1-9Z"/><path fill="#A39C8F" d="m98 57 2 1c-3.648 5.084-5.852 6.794-12 8 1.495-3.805 3.694-5.662 7-8l3-1Z"/><path fill="#B57177" d="M81 119c2.133 3.199 2.59 5.23 3 9l-1 1a91.472 91.472 0 0 0-.063 5.063l.028 2.785L83 139l-2-1v-19Z"/><path fill="#C35973" d="M158 61h4v2l2.25-.25c3.532.321 4.516 1.603 6.75 4.25l-1 3-2.625-2.313c-2.911-2.44-5.904-4.117-9.375-5.687v-1Z"/><path fill="#DBE1E5" d="m153 208 4 1-2 2c-.167 2.584-.167 2.584 0 5l-5-1c.613-2.962 1.254-4.38 3-7Z"/><path fill="#F4D4D7" d="m165 165 2 1-2 3 2 2-1 2h-4v-3l-3-1 6-4Z"/><path fill="#D3BBB8" d="M80 89h2v4h2l1 4h2l1 5c-4.071-2.86-6.132-5.378-8-10v-3Z"/><path fill="#913D49" d="M271 216c-4.185 4.923-4.185 4.923-8.313 5.313L260 221l2-1v-2c3.435-2.29 4.985-2.178 9-2Z"/><path fill="#DF98AC" d="M76 93h2c1.158 3.473 1.069 6.36 1 10l-3 1V93Z"/><path fill="#94062A" d="M98 264h3v3l3 1-2 4h-3l-1-8Z"/><path fill="#9D0A37" d="M92 280c2 2 2 2 2.125 5.125L94 288h-4c-.125-2.875-.125-2.875 0-6l2-2Z"/><path fill="#A4887C" d="m0 215 4 1v5l-4 2v-8Z"/><path fill="#F0F8FB" d="m160 210 3 1-3 5h2v2l-5-2v-4l3-2Z"/><path fill="#984142" d="M84 120c2.862 1.283 5.025 2.53 7 5v3c-2.862-1.283-5.025-2.53-7-5v-3Z"/><path fill="#EFFBFE" d="M174 79h2v9h2c-.281 1.481-.575 2.96-.875 4.438l-.492 2.496L176 97l-2 1V79Z"/><path fill="#C1BEBB" d="M14 230c-2.571 2.571-4.605 2.801-8.125 3.625-1.644.39-1.644.39-3.32.79L0 235v-2c4.97-2.434 8.346-3.346 14-3Z"/><path fill="#C53D61" d="m1 194 3.563.938c3.801.955 7.55 1.576 11.437 2.062v1c-1.937.027-3.875.046-5.813.063l-3.269.035C4 198 4 198 1 197v-3Z"/><path fill="#C6CDD6" d="M91 98c7.483 6.15 7.483 6.15 10 10-2.875-.188-2.875-.188-6-1-1.25-2.313-1.25-2.313-2-5a149.783 149.783 0 0 0-2-4Z"/><path fill="#B07D73" d="M88 102h2a340.854 340.854 0 0 1 3.625 4.465c1.844 2.058 3.933 3.28 6.375 4.535-1.734.738-1.734.738-4 1-2.14-1.582-2.14-1.582-4.25-3.813l-2.14-2.207C88 104 88 104 88 102Z"/><path fill="#F8D0DA" d="m139 181-1 4-7 1c.188-1.875.188-1.875 1-4 4.333-2.333 4.333-2.333 7-1Z"/><path fill="#F2F3F0" d="M150 175h7c-3.323 3.938-3.323 3.938-6.75 4.25L148 179l2-4Z"/><path fill="#E20C55" d="M65 167h1l1 12c-3.71-3.71-3.71-3.71-4-7 .938-2.75.938-2.75 2-5Z"/><path fill="#AF204E" d="M288 165v7l-3 1v-3h-2v-3c3.875-2 3.875-2 5-2Z"/><path fill="#C6B7B7" d="M158 139v4l-5 2-2-2c3.826-4 3.826-4 7-4Z"/><path fill="#BC938C" d="M92 128c2.438.75 2.438.75 5 2 .813 2.125.813 2.125 1 4l-6-1v-5Z"/><path fill="#9A0933" d="M84 264c3 3.625 3 3.625 3 7l-5 2c-.25-5.625-.25-5.625 2-9Z"/><path fill="#E3EFF3" d="m158 208 2 3-3 2 1 4h-3c-.75-2.25-.75-2.25-1-5 1.938-2.313 1.938-2.313 4-4Z"/><path fill="#D1134D" d="M68 193H53c6.13-3.065 9.333-4.25 15 0Z"/><path fill="#A81F4D" d="M287 185h1c.08 1.624.14 3.25.188 4.875l.105 2.742L288 195l-3 2c-.178-4.548.002-7.88 2-12Z"/><path fill="#A1938C" d="M117 178c2.43 3.241 3.65 5.336 5 9l1 2-5-1-1-10Z"/><path fill="#988E88" d="M106 181h1v7l6 1-1 3v-2l-2.875-.188C106 189 106 189 104.5 186.625 104 184 104 184 106 181Z"/><path fill="#FBD6DB" d="m159 170-1 5h-8c6.129-5 6.129-5 9-5Z"/><path fill="#C60E4C" d="m7 151 2 1-1 5-3 1c-.688-1.813-.688-1.813-1-4 1.438-1.75 1.438-1.75 3-3Z"/><path fill="#F9C0CC" d="m84 158 2 1c-3.564 3.15-6.407 5.514-11 7 1.053-3.277 2.638-4.605 5.5-6.313L84 158Z"/><path fill="#D12B59" d="M82 146c2.653 2.476 4.68 4.59 6 8v3h-2v-3h-2l-2-8Z"/><path fill="#B38B93" d="M94 145c2.395 2.395 2.755 3.658 3 7-1.488 1.66-1.488 1.66-3 3-.194-1.478-.38-2.958-.563-4.438l-.316-2.496L93 146l1-1Z"/><path fill="#C796A1" d="M79 100c2 2 2 2 2.125 5.625L81 109l-3-1c-.813-1.813-.813-1.813-1-4 .938-2.25.938-2.25 2-4Z"/><path fill="#CA3A5E" d="m87 52 4 2-9 6v-3h2l.375-1.938L85 53l2-1Z"/><path fill="#FAF7F6" d="M170.188 164.75 173 165c-1.933 2.025-3.632 3.421-6 5l-3-1c1.823-3.241 2.362-3.95 6.188-4.25Z"/><path fill="#B6A0A6" d="M97 159c6.364-.49 6.364-.49 9.438 1.875C108 163 108 163 108 165l-5-1-1-3-5-1v-1Z"/><path fill="#DADFE6" d="M84 89c2.797 1.399 2.91 3.137 4 6l2 3-2 2-1-3h-2c-1-5.75-1-5.75-1-8Z"/><path fill="#C95A76" d="M128 49c1.959.14 3.917.288 5.875.438l3.305.246C140 50 140 50 142 51v2h-4v-2l-10-1v-1Z"/><path fill="#CDD5DC" d="M117 118c5.415-.37 5.415-.37 8.375 1.5L127 121c-6.625.125-6.625.125-10-1v-2Z"/><path fill="#ADB1A4" d="m88 62 2 1-5 9h-1c-.25-2.75-.25-2.75 0-6 2-2.375 2-2.375 4-4Z"/><path fill="#CFCECD" d="m148 210 2 1c.625 3.063.625 3.063 1 6l3 1-2 1c-2.125-.938-2.125-.938-4-2v-7Z"/><path fill="#A6A3A9" d="M103 181c1.231 2.463 1.072 4.28 1 7l2 1h-4l-2-5 3-3Z"/><path fill="#D3D6DF" d="m120 168 2 1v5h-4c.875-4.875.875-4.875 2-6Z"/><path fill="#C6325D" d="M163 143c.688 1.813.688 1.813 1 4-1.438 1.75-1.438 1.75-3 3l-3-1c2.75-4.875 2.75-4.875 5-6Z"/><path fill="#964B41" d="M98 112c4.875 1.75 4.875 1.75 6 4h-2l-1 3-1-3h-2v-4Z"/><path fill="#EFF9FE" d="M172 104h1c.08 1.624.14 3.25.188 4.875l.105 2.742L173 114l-3 2 2-12Z"/><path fill="#A69AA4" d="M284 0h4v8l-2-1a128.606 128.606 0 0 1-2-7Z"/><path fill="#BEB1AB" d="M120 208c3.375 1.186 5.647 2.276 8 5l-1 2c-2.5-1.375-2.5-1.375-5-3v-2h-2v-2Z"/><path fill="#C52C50" d="M150 175c-1.29.672-2.581 1.337-3.875 2l-2.18 1.125C142 179 142 179 140 179v-2c5.893-3.348 5.893-3.348 10-2Z"/><path fill="#D22C52" d="M166.063 162.938 169 163c-2.688 2.252-4.646 3.882-8 5 1.125-4.982 1.125-4.982 5.063-5.063Z"/><path fill="#D16180" d="M157 149c0 3 0 3-2.375 5.625C152 157 152 157 150 158c1.555-3.817 4.036-6.192 7-9Z"/><path fill="#CC8C9B" d="m147 155 4 1c-1.813 2-1.813 2-4 4h-3l1-3h2v-2Z"/><path fill="#B2214A" d="M245 139c1.458-.054 2.916-.093 4.375-.125l2.46-.07C254 139 254 139 256 141c-4.002 1.6-7.046.293-11-1v-1Z"/><path fill="#CF7C8E" d="M184 104c.987 2.666 1.028 3.901.25 6.688C183 113 183 113 180 114l2-7h2v-3Z"/><path fill="#EAEDEF" d="M82 84c1.884 3.265 2.493 6.281 3 10l-3-1v-4l-2-1h2v-4Z"/><path fill="#E4D9E0" d="m160 65 6 1v3h2l-1 3a858.147 858.147 0 0 1-3.5-2.938l-1.969-1.652L160 66v-1Z"/><path fill="#FCF5F8" d="M139 180c2.625-.188 2.625-.188 5 0v2c-1.813 1.063-1.813 1.063-4 2l-3-1 2-3Z"/><path fill="#D5C5C3" d="m167 170 4 1c-5.625 4-5.625 4-9 4v-2h4l1-3Z"/><path fill="#FBD2D6" d="M176 160v2l-7 4-2-2c6.75-4 6.75-4 9-4Z"/><path fill="#9C696A" d="m153 130 2 1-2 6h-2l-1-6 3-1Z"/><path fill="#A04846" d="M88 108c1.339.783 2.67 1.577 4 2.375l2.25 1.336L96 113v2c-3.337-1.173-5.774-2.189-8-5v-2Z"/><path fill="#CA4366" d="M101 49c-3.285 2.19-6.207 2.998-10 4v-2c3.624-2.795 5.622-3.376 10-2Z"/><path fill="#68191F" d="M257 226c-3.534 2.12-6.944 2.532-11 3 3.26-3.26 6.6-4.467 11-3Z"/><path fill="#DBC7CB" d="m130 183 2 1-1 2 3 1h-8v-2c1.875-1.063 1.875-1.063 4-2Z"/><path fill="#BDAFBB" d="m98 166 3 2c-.313 1.875-.313 1.875-1 4l-3 2 1-8Z"/><path fill="#D90C4C" d="M145 164v5l-5-1 1-3c2-1 2-1 4-1Z"/><path fill="#9E7578" d="M96 135h3c.125 2.875.125 2.875 0 6l-2 2-1-8Z"/><path fill="#C7CBCE" d="m108 112 6 2-2 3-5-2 1-3Z"/><path fill="#CC8A97" d="m76 104 4 5-2 1-1 4-1-10Z"/><path fill="#BD8480" d="M78 90h2l2 6h-4v-6Z"/><path fill="#E7D2DA" d="M171 74c5.662 1.477 5.662 1.477 7.375 4.125L179 80c-5.662-1.477-5.662-1.477-7.375-4.125L171 74Z"/><path fill="#5A2A34" d="M283 0c3.442 2.66 3.995 5.903 5 10-3.672-3.08-4.568-5.248-5-10Z"/></svg>