<svg xmlns="http://www.w3.org/2000/svg" width="300" height="300"><path fill="#FAC4FC" d="M0 0h300v300H0V0Z"/><path fill="#F9FCFC" d="m248.313 105.75 2.474-.063c5.741-.036 9.99.882 15.213 3.313l1 2 3 1c2.688 2.438 2.688 2.438 5 5v2h2l1 4h2l1 6h2c2.486 4.972 3.345 9.06 3.754 14.586.333 3.269 1.314 6.27 2.246 9.414 1.747 9.178 1.747 9.178 0 13-8.523 4.943-17.837 2.937-27.013.608-5.675-1.737-10.808-4.765-15.987-7.608-1.6-.779-3.204-1.551-4.813-2.313C238 155 238 155 237 153a281.65 281.65 0 0 0-4.838-2.032c-4.315-1.933-8.307-4.467-12.35-6.905l-2.693-1.592-2.6-1.56-2.34-1.403c-2.373-1.642-4.287-3.328-6.179-5.508.095-3.809 1.434-6.229 4-9h2l1-3h2v-2a115.341 115.341 0 0 1 6.125-4.938l1.727-1.341c8.284-6.317 15.247-7.907 25.46-7.971Z"/><path fill="#FBF08E" d="M0 0c6.28-.153 12.56-.257 18.842-.33 2.135-.03 4.27-.07 6.404-.123 3.076-.073 6.15-.107 9.227-.133l2.873-.094c5.887-.003 9.04.955 13.304 5.083 4.584 5.421 4.959 11.007 4.76 17.906C55 25 55 25 52.938 27.75c-4.377 1.862-7.62 2.006-12.176.52C29.132 23.48 23.844 14.564 18 4h-2c.255 2.294.53 4.585.813 6.875l.457 3.867c.398 3.536.398 3.536 3.73 5.258 1.894 3.12 2.898 6.535 4 10h2c1.052 5.262 1.052 5.262 1 8-1.875 2.375-1.875 2.375-4 4l-1 2 3-1v2h-3v2h-2l-1 3h-2l-.813 1.688C16 54 16 54 14.376 56.562 12.755 58.97 12.755 58.97 13 62h-2c.236 4.806.485 9.612.745 14.417.086 1.635.17 3.27.25 4.906.115 2.348.242 4.696.372 7.044l.101 2.223c.135 4.157.135 4.157 2.532 7.41.75 2.938.75 2.938 1 6l-2 3h-2v2l-4 1v2l-2.375.875c-2.722.974-2.722.974-4.625 3.125-1-1-1-1-1.123-2.919l.003-2.567-.004-2.936.01-3.248v-3.4c0-3.728.009-7.456.016-11.184l.005-7.73c.003-6.103.011-12.205.021-18.307.011-6.945.017-13.891.022-20.836C-.04 28.582-.022 14.29 0 0Z"/><path fill="#F07582" d="M298.136 206.232C300 208 300 208 300.48 210.487l-.027 2.994v3.397l-.063 3.665-.018 3.754c-.018 3.29-.054 6.579-.098 9.868-.041 3.359-.06 6.717-.08 10.075-.044 6.587-.11 13.174-.195 19.76-2.054.048-4.11.081-6.164.11l-3.467.06c-7.572-.383-14.02-4.305-20.369-8.17v-2l-1.75-.625c-3.585-2.191-5.73-5.3-6.759-9.407-.332-2.26-.558-4.504-.741-6.78l-.234-2.292c-.933-9.762-1.459-17.567 4.484-25.896 8.44-7.6 23.619-8.257 33.136-2.768Z"/><path fill="#F9FCFC" d="M103.5 73.5c.886-.015 1.771-.03 2.684-.047 7.615.045 15.165 2.141 20.816 7.547v2h2c2.833 2.979 4.875 5.822 5.313 9.938L134 95h2c2.237 5.407 3 7.896 3 14l-71 1c-1.365-2.73-1.132-4.956-1.125-8l-.008-3.25C67 96 67 96 68 94h2l.125-2.68c1.133-4.299 3.41-5.966 6.875-8.445l1.637-1.262c7.893-5.87 15.034-8.285 24.863-8.113Z"/><path fill="#F4B2F8" d="m50 208 1.875 1c2.035 1.142 2.035 1.142 4.125 1 1.67.318 3.337.65 5 1v2h2l.125 1.875L64 217c2.975 1.158 2.975 1.158 6 2l1 2a72.82 72.82 0 0 0 5 1c3.025.776 6.044 1.574 9.063 2.379 2.841.72 2.841.72 5.417.555 3.354.088 5.773 1.221 8.832 2.566l3.239 1.406L105 230v2h2v2l3.313.938c2.241.645 4.474 1.324 6.687 2.062l1 2c2.329.365 4.663.694 7 1 3.375.938 3.375.938 6 2l1 2c15.31 3.7 32.319 2.65 48 3v1c-9.293 3.17-17.3 3.081-26.888 2.185-3.262-.286-6.53-.44-9.8-.623-4.46-.25-8.115-1.032-12.312-2.562-1.33-.35-2.66-.691-4-1v-2l-10-3-1 2h-2v3h-2l-1 6h-2l-1 2 3-1 4 4c-2.418-.468-4.814-.95-7.195-1.582l-2.368-.606-2.253-.605c-2.661-.252-3.935.421-6.184 1.793l-.375-2.438L96 251l-2-1v-2l-9-2v2l-3-1-1 1v3l3 2-2 3 2.688.313c3.37.699 5.485 1.774 8.312 3.687-3 2-3 2-5.563 1.688C85 261 85 261 83 260v-2c-3.047-1.694-5.828-2.495-9.25-3.125l-2.703-.508L69 254v-1h8l-.563-3.375C76 246 76 246 77 244h-4l-1-3c-2.015-.733-2.015-.733-4-1v-2l-6 1-.75-1.938c-1.066-2.25-1.066-2.25-3.375-2.812L56 234c0-4 0-4 1-5h-1c-.286-8.571-.286-8.571 2-12-2.715-2.307-2.715-2.307-5.188-1.625L51 216l-.438-1.875c-.494-2.158-.494-2.158-1.562-4.125l1-2Zm11 1 2 1-2 1v-2Z"/><path fill="#0440B5" d="m116.875 124.75 2.289.04c2.28.049 4.557.125 6.836.21l3.703.129c13.544.727 26.498 2.257 37.067 11.402C168 138 168 138 167.937 140.5c-1.144 3.05-2.236 3.74-4.937 5.5-2.267.98-2.267.98-4.746 1.832l-2.77.973-2.922 1.007c-7.65 2.698-15.014 5.573-22.296 9.157C128 160 128 160 126 160v2c-6.404-.37-6.404-.37-9.188-3.313L115 156l-2-1.813c-6.869-7.512-7.11-16.536-8-26.187 3.595-3.539 7.11-3.392 11.875-3.25Z"/><path fill="#0540B2" d="M258 63c8.169 2.278 15.727 6.162 23.25 10l3.14 1.578c5.29 2.672 10.5 5.42 15.61 8.422v15c-6.947-2.164-13.411-4.928-20-8-3.304-1.468-6.6-2.855-10-4.082-7.053-2.571-12.977-5.45-19-9.918-1.354-.96-2.708-1.918-4.063-2.875L244 71c.313-2.875.313-2.875 1-6 4.35-2.9 7.905-2.512 13-2Z"/><path fill="#0341B5" d="M18 0c4.354-.175 8.706-.281 13.063-.375l3.724-.152c10.25-.166 10.25-.166 14.463 3.355 4.81 4.962 5.93 9.624 6.25 16.36-.154 5.35-.154 5.35-2.563 8.562-4.376 1.862-7.62 2.006-12.175.52-11.528-4.747-17.286-13.33-22.098-24.422C18 2 18 2 18 0Z"/><path fill="#033FB3" d="m94.203 43.832 2.908-.01c2.017-.005 4.034-.007 6.051-.007 3.092-.003 6.184-.02 9.275-.04 1.964-.003 3.928-.005 5.891-.005l2.803-.022 2.6.01 2.285-.005C128 44 128 44 131 46c.188 3.625.188 3.625 0 7-13.453 2.936-27.036 3.127-40.75 3.285-1.372.018-2.744.043-4.115.074-1.947.042-3.895.055-5.842.067l-3.452.044C74 56 74 56 72.107 54.102 71 52 71 52 71 49.938c1.474-2.856 3.093-3.611 6-4.938 5.747-1.08 11.38-1.16 17.203-1.168Z"/><path fill="#F5B5FA" d="M115 241c4.35.328 8.034 1.197 12 3v2l1.934.184 2.504.254 2.496.246C136 247 136 247 137 248c2.183.213 4.373.37 6.563.5 5.184.334 10.293.78 15.437 1.5v2l-1.625.25c-3.513 1.11-6.758 3.133-9.375 5.75-2.67.141-5.324.042-8 0v2c-7.302 2.434-16.46.953-24 0l-2-1v-3c-2.842-1.573-2.842-1.573-6-2l1-3 2 1-1-3h2l.375-2.875C113 243 113 243 115 241Z"/><path fill="#8380C7" d="M99.875 71.5c1.133-.015 2.266-.03 3.434-.047C110.42 71.486 115.79 72.468 122 76c-3 1-3 1-5.059.094-8.115-3.018-19.5-2.388-27.707.004-5.605 2.695-10.265 6.248-14.71 10.582C73 88 73 88 71 88l-1 6h-2v16l5.812-.016c6.338-.016 12.676-.027 19.014-.036 3.843-.005 7.686-.012 11.528-.023 3.71-.011 7.418-.017 11.127-.02 1.414-.002 2.829-.005 4.244-.01 1.982-.008 3.964-.008 5.946-.009l3.418-.006c2.491.103 4.54.392 6.911 1.12v2c-8.437.606-16.855 1.073-25.313 1.246l-2.398.05c-3.242.066-6.484.129-9.726.18-10.985.185-21.69.92-32.563 2.524v2c-3 1-3 1-6 0v2l-5 1 2-6 2.168.621c3.38.452 5.048-.196 8.145-1.558l2.675-1.153L72 113l-2.875-1.375C66 110 66 110 64 108a93.696 93.696 0 0 1-.313-8.188l-.048-2.251C63.634 92.308 64.536 88.656 67 84c3.616-3.03 6.36-3.324 11-3l.563-2.25c4.286-8.2 13.242-7.36 21.312-7.25Z"/><path fill="#EF707B" d="M0 135c6.517 2.607 10.296 5.218 13.207 11.598 2.307 6.99 2.683 14.402-.059 21.293C11.044 171.757 8.447 175.243 5 178l-5 1v-44Z"/><path fill="#B5A6D3" d="m180 118 1 2 1.813.375c2.927.836 4.241 2.332 6.187 4.625v2h2c2.349 1.973 3.001 3.003 4 6 2.25 1.917 2.25 1.917 5 3 3.361-.96 4.011-2.017 6-5l.188 2.375L207 136a95.823 95.823 0 0 0 5 2c1.657.953 3.292 1.945 4.906 2.969l2.754 1.73 5.68 3.602 2.754 1.73 2.49 1.58c2.412 1.387 4.81 2.422 7.416 3.389v2l2 1h-4v-2l-5 1 3 1h-3l2 1.938c3.23 3.22 6.22 6.649 9.23 10.074A94.412 94.412 0 0 0 246 172l-2 3-.75-1.547c-5.317-9.372-15.041-15.875-24.246-21.18L217 151v-2l-2.188-.813c-2.81-1.186-5.296-2.462-7.812-4.187v-2l-2.207-.797c-2.828-1.218-5.003-2.635-7.48-4.453-4.23-3.04-8.554-5.731-13.086-8.293-2.417-1.581-4.25-3.36-6.227-5.457l-1.75-1.688C175 120 175 120 175 119l5-1Z"/><path fill="#D7BEF6" d="M18 2c1.824 2.735 3.3 5.461 4.813 8.375C25.105 14.608 27.332 17.816 31 21l1.813 2.125c4.11 3.524 8.614 4.718 13.937 5.25 3.61-.416 4.785-.756 7.25-3.375.485-3.428.485-3.428.25-7.188l-.11-3.855L54 11h2v5l3 1c.344 5.619-.058 9.255-3 14-3.563.875-3.563.875-7 1l-2 1c-4.059-1.376-7.923-2.962-11.813-4.75-3.136-1.623-3.136-1.623-6.187-.25.752 3.278.752 3.278 4 5l2-1 2 4c-4.468 3.606-8.321 6.58-14 8 1.75-4.875 1.75-4.875 4-6v-8h-2c-1.29-1.68-1.29-1.68-2.625-3.875l-1.352-2.18C20 22 20 22 20 20l-3-2c-1.162-3.055-1.105-6.01-1.063-9.25l.028-2.703L16 4h2V2Z"/><path fill="#FCEF91" d="M0 255c4 3 4 3 5 6h2l1 4-2 1c2.169-.506 4-1 6-2 1.125 4.75 1.125 4.75 0 7a205.299 205.299 0 0 0-.313 5.25C11.29 281.243 10.121 284 7 288c-.77 2.226-.77 2.226-1 4H4l1 8H0v-45Z"/><path fill="#F39EF3" d="M253 0h32v2h-2c-2.12 3.534-2.532 6.944-3 11h-3l-1 7-2-3-3 3c-1.5-1.375-1.5-1.375-3-3v-2h-2v-2h-3l-1-3-2.063-1.5L258 7V4h-2V2l-3-1V0Z"/><path fill="#EBB2F7" d="m134 90 1.313 1.813A44.736 44.736 0 0 0 140 97l2-4 2 10c6.045 1.511 11.591 2.123 17.79 1.742 2.97.347 4.704 1.641 7.21 3.258a419.11 419.11 0 0 0 6.313 3.188l3.238 1.605L181 114l-2 1a135.916 135.916 0 0 1-7-3c1.398 3.545 1.398 3.545 3 7-1.938-.313-1.938-.313-4-1l-1-3-2.625-.375C164 114 164 114 161.457 112.992c-5.585-1.603-11.242-1.425-17.021-1.558l-2.76-.09-2.503-.057C137 111 137 111 134 109h5l-.402-1.793c-.908-4.061-1.807-8.12-2.598-12.207h-2v-5Z"/><path fill="#173DA0" d="m94.203 43.832 2.908-.01c2.017-.005 4.034-.007 6.051-.007 3.092-.003 6.184-.02 9.275-.04 1.964-.003 3.928-.005 5.891-.005l2.803-.022 2.6.01 2.285-.005C128 44 128 44 131 46c.188 3.625.188 3.625 0 7-13.453 2.936-27.036 3.127-40.75 3.285-1.372.018-2.744.043-4.115.074-1.947.042-3.895.055-5.842.067l-3.452.044C74 56 74 56 72.107 54.102 71 52 71 52 71 49.938c1.474-2.856 3.093-3.611 6-4.938 5.747-1.08 11.38-1.16 17.203-1.168ZM91 47h-7l-1 1c-1.682.233-3.371.413-5.063.563l-2.785.253L73 49l1 5c4.608.025 9.216.043 13.824.055 1.567.005 3.133.012 4.7.02 2.256.013 4.513.018 6.769.023l2.11.015c3.675 0 7.017-.302 10.597-1.113a91.7 91.7 0 0 1 3.988-.316l2.139-.127 2.186-.12 2.244-.13C124.37 52.2 126.185 52.1 128 52c.043-1.666.04-3.334 0-5-1.862-1.862-4.963-1.13-7.45-1.133l-1.97-.003c-1.38 0-2.762.001-4.143.006-2.098.005-4.196 0-6.294-.007-1.344 0-2.687.002-4.03.004l-3.694.004c-3.233.122-6.239.57-9.419 1.129Z"/><path fill="#1B3C9B" d="m116.875 124.75 2.289.04c2.28.049 4.557.125 6.836.21l3.703.129c13.544.727 26.498 2.257 37.067 11.402C168 138 168 138 167.937 140.5c-1.182 3.152-2.076 3.72-4.937 5.5-2.83 1.2-5.716 2.2-8.625 3.188l-2.352.826C146.288 152 146.288 152 144 152v-2h4v-2c3.371-1.498 5.204-2 9-2v-2l7-1v-6l-5-2v-2l-2.313.688c-2.687.312-2.687.312-4.5-1C151 131 151 131 151 129h-43c.62 7.06.62 7.06 2 14l2 1c1.478 2.957 1.06 5.742 1 9-3.601-1.8-4.767-5.366-6-9-1.024-5.281-1.506-10.648-2-16 3.595-3.539 7.11-3.392 11.875-3.25Z"/><path fill="#EFB1F7" d="m56 231 3.008 1.355c7.802 3.484 15.592 6.658 23.668 9.458C87.872 243.668 92.933 245.822 98 248l2.3.98c1.569.67 3.135 1.344 4.7 2.02v2l2 1-2.75-.125c-3.128.12-4.636.516-7.25 2.125l-.375-2.438L96 251l-2-1v-2l-9-2v2l-3-1-1 1v3l3 2-2 3 2.688.313c3.37.699 5.485 1.774 8.312 3.687-3 2-3 2-5.563 1.688C85 261 85 261 83 260v-2c-3.047-1.694-5.828-2.495-9.25-3.125l-2.703-.508L69 254v-1h8l-.563-3.375C76 246 76 246 77 244h-4l-1-3c-2.015-.733-2.015-.733-4-1v-2l-6 1-.75-1.938c-1.066-2.25-1.066-2.25-3.375-2.812L56 234v-3Z"/><path fill="#0542B6" d="M296 0h4v22c-4.225 2.113-6.38 2.261-11 2-1.676-1.676-1.33-3.634-1.438-5.938.03-7.321 3.324-12.948 8.438-18.062Z"/><path fill="#C26F93" d="m281.688 203.938 3.574.027L288 204l1 2-2.23.402-2.957.536-2.918.527c-3.996.739-7.96 1.515-11.895 2.535l-.375 1.813C268 214 268 214 266 217c-.924 5.51-1.182 10.92-1.188 16.5l-.037 2.145c-.014 5.09.83 9.458 2.225 14.355h3v4c-4.27-1.525-5.83-4.12-8-8-.73-2.919-1.009-5.818-1.25-8.813l-.234-2.29c-.93-9.73-1.49-17.613 4.484-25.897 5.056-4.204 10.287-5.126 16.688-5.063Z"/><path fill="#D7C5F4" d="M80 109c7.526-.05 15.051-.086 22.577-.11 2.558-.01 5.115-.024 7.673-.04 3.686-.025 7.372-.037 11.059-.045l3.438-.032c6.411 0 12.053.575 18.253 2.227v2c-13.361 4.555-28.315 3.084-42.237 2.98-9.972-.069-19.838-.12-29.763 1.02v3h-5v-3c10.043-3.964 21.467-3.25 32.11-3.503 2.489-.059 4.976-.124 7.464-.19A978.3 978.3 0 0 1 136 113v-2l-56-1v-1Z"/><path fill="#C97195" d="M0 135c5.474 1.877 9.34 4.437 12.25 9.5 3.019 6.617 3.702 14.232 1.75 21.25-1.909 4.798-4.962 9.02-9 12.25-2.727.719-2.727.719-5 1v-3l2-1c.652-2.025.652-2.025 1-4l5-1c1.628-6.148 2.202-11.64 2-18H8l.188-3.313c.114-3.54.114-3.54-1.376-5.625C4.44 141.673 2.704 141.781 0 142v-7Z"/><path fill="#DEC3FE" d="m95.324 40.918 2.98.054c2.07.041 4.14.088 6.21.14 3.173.075 6.346.124 9.52.171 2.013.043 4.027.088 6.04.135l2.879.038 2.67.08 2.348.052c2.543.516 3.454 1.384 5.029 3.412.363 2.191.363 2.191.313 4.563l-.012 2.378C133 54 133 54 131 56c-1.815.319-1.815.319-4.066.414l-2.615.117-2.882.094-2.988.115c-14.475.486-28.968.346-43.449.26v-1l3.956-.168c4.889-.208 9.777-.42 14.666-.632a7048 7048 0 0 1 6.322-.27c3.046-.13 6.092-.262 9.138-.395l2.81-.117c6.391-.284 12.743-.789 19.108-1.418a108.817 108.817 0 0 0-1-7c-2.44-1.22-3.999-1.12-6.725-1.114h-2.972l-3.217.016-3.287.005c-3.475.005-6.95.018-10.424.03-2.352.006-4.703.01-7.055.014-5.773.011-11.547.028-17.32.049v-2c5.514-2.33 10.457-2.224 16.324-2.082Z"/><path fill="#B9ABEF" d="M165 144v3c-5.09 3.393-8.766 5.445-15 5v2c-4.37 2.8-8.158 5.211-13.438 5.438-5.787.436-10.42 2.457-14.562 6.562-2.206 4.672-4 9.776-4 15-6.079 3.242-11.184 3.333-18 3v-1l1.863-.113 2.45-.2 2.425-.175c2.343-.319 2.343-.319 3.805-2.055L112 179h4c1.605-5.612 2.181-10.266 1.29-16.055C117 161 117 161 117 158l1.688 1.438c2.495 1.686 4.357 2.152 7.312 2.562v-2c12.64-6.3 25.74-11.175 39-16Z"/><path fill="#DAC7FB" d="M124.278 121.554c2.086.008 4.168-.02 6.253-.052 7.777-.04 13.628.762 20.469 4.498a107.19 107.19 0 0 0 5.563 1.75l2.566.734L161 129v2l1.75.375C165 132 165 132 169 134v9h-3l1-5c-14.728-11.82-31.93-11.997-50.187-12.188l-2.216-.04c-3.756-.005-5.391.09-8.597 2.228-.363 1.977-.363 1.977-.187 4.125L106 136h-2v-11c6.805-3.283 12.814-3.492 20.278-3.446Z"/><path fill="#A69AC8" d="M99.875 71.5c1.133-.015 2.266-.03 3.434-.047C110.42 71.486 115.79 72.468 122 76c-3 1-3 1-5.059.094-8.115-3.018-19.5-2.388-27.707.004-5.515 2.651-10.138 6.124-14.515 10.386C73 88 73 88 70.887 89.02c-2.554 1.327-3.273 3.144-4.293 5.761-1.157 4.321-1.36 8.767-1.594 13.219h-1a620.42 620.42 0 0 1-.188-8.063l-.076-2.279C63.667 92.331 64.484 88.72 67 84c3.616-3.03 6.36-3.324 11-3l.563-2.25c4.286-8.2 13.242-7.36 21.312-7.25Z"/><path fill="#9384B5" d="m180 118 1 2 1.813.375c2.927.836 4.241 2.332 6.187 4.625v2h2c2.349 1.973 3.001 3.003 4 6 2.25 1.917 2.25 1.917 5 3 3.361-.96 4.011-2.017 6-5l.188 2.375L207 136c1.649.71 3.32 1.37 5 2 1.63 1 3.236 2.042 4.813 3.125l2.394 1.633L221 144l-2 1c-1.762-.979-3.522-1.964-5.246-3.008-1.885-1.066-3.615-1.65-5.754-1.992l2.25 2.25L217 149c-3.588-1.333-6.836-2.83-10-5v-2l-2.207-.797c-2.828-1.218-5.003-2.635-7.48-4.453-4.23-3.04-8.554-5.731-13.086-8.293-2.417-1.581-4.25-3.36-6.227-5.457l-1.75-1.688C175 120 175 120 175 119l5-1Z"/><path fill="#BF95D3" d="M116 239c5.226.441 10.121.926 15 3l1 2c15.31 3.7 32.319 2.65 48 3v1c-9.293 3.17-17.3 3.081-26.888 2.185-3.262-.286-6.53-.44-9.8-.623-4.46-.25-8.115-1.032-12.312-2.562-1.33-.35-2.66-.691-4-1v-2l-2.152-.586-2.785-.789-2.778-.773C117 241 117 241 116 239Z"/><path fill="#FAE1C5" d="M0 255c3.875 2.625 3.875 2.625 5 6h2l1 4-2 1c2.169-.506 4-1 6-2 1.125 4.75 1.125 4.75 0 7a205.299 205.299 0 0 0-.313 5.25C11.29 281.243 10.121 284 7 288c-.77 2.226-.77 2.226-1 4H4l1 8H1c.856-13.927.856-13.927 3-18 2.625-1.375 2.625-1.375 5-2a763.515 763.515 0 0 0-.438-4.375c-.08-.812-.162-1.624-.246-2.46C8.11 270.956 8.11 270.956 7 269l-3-2-1-3-3-1v-8Z"/><path fill="#F3F3FB" d="M57 168c6.535 1.97 12.146 4.499 18 8-2.58 2.994-5.543 4.456-9.063 6.188l-3.222 1.605C60 185 60 185 58 185l-1-17Z"/><path fill="#F2C9F6" d="M18 2c2.368 3.552 4.217 7.25 6.125 11.063l1.129 2.22C28 20.76 28 20.76 28 23h3v3c-2.688.813-2.688.813-6 1-2.875-2.313-2.875-2.313-5-5v-2l-3-2c-1.162-3.055-1.105-6.01-1.063-9.25l.028-2.703L16 4h2V2Z"/><path fill="#E3D2BC" d="m93.285-.098 2.778.036 2.785.027L101 0l-3 3-3-1-2 4h-2l-.875 2.75C88.28 14.08 88.28 14.08 87 16c-2.125.75-2.125.75-4 1l-1-2h-2l-2 4a258.611 258.611 0 0 1-1.563-3.813l-.878-2.144C75 11 75 11 76 8l1 5 3-1 1-6 3 1V4h2V2l1.938-.438c2.49-.678 2.706-1.547 5.347-1.66Z"/><path fill="#956EB1" d="M134 90c4.072 4.847 6.203 9.444 6.082 15.738l-.036 2.427L140 110l1.693-.016c2.582-.02 5.163-.034 7.744-.046l2.663-.026c4.385-.016 8.642.117 12.998.654L169 111l1-1-9-2v-1c7.658.295 13.343 3.372 20 7l-2 1a135.916 135.916 0 0 1-7-3c1.398 3.545 1.398 3.545 3 7-1.938-.313-1.938-.313-4-1l-1-3-2.625-.375C164 114 164 114 161.457 112.992c-5.585-1.603-11.242-1.425-17.021-1.558l-2.76-.09-2.503-.057C137 111 137 111 134 109h5l-.402-1.793c-.908-4.061-1.807-8.12-2.598-12.207h-2v-5Z"/><path fill="#6F6792" d="M54 166c4.554-.37 4.554-.37 6.813 1.5L62 169l-5-1 .5 2.313c.669 4.932.56 9.71.5 14.687l16-8-3-4 5-1v2h2v2l2.75-.063c2.677.052 4.72.285 7.25 1.063v2h3v2l7 1v1c-4.863-.386-9.053-.902-13.625-2.625-5.432-1.88-9.05-1.499-14.3 1.04a246.348 246.348 0 0 0-6.208 3.308C61 186 61 186 56 186v-19l-2-1Z"/><path fill="#243890" d="M43 0c4.738 2.106 8.103 4.516 10.813 9 1.923 5.124 2.005 10.635 1.187 16-2.572 3.43-4.066 3.856-8.25 4.5-7.465-.995-13.398-4.279-18.75-9.5-1.375-2.313-1.375-2.313-2-4 2.154.966 3.767 1.746 5.375 3.5 2.264 2.09 4.702 2.655 7.625 3.5v3h13c.483-9.96.483-9.96-3-19l-3-1V4h-3V0Z"/><path fill="#FAEE9F" d="M7 61c1.551 2.776 2.262 4.866 2.379 8.04l.103 2.257.08 2.328C9.543 78.976 9.543 78.976 11 84c.209 2.184.368 4.373.5 6.563.357 5.506.839 10.96 1.5 16.437l-3 1-.148-1.828-.227-2.422c-.07-.789-.14-1.578-.21-2.39-.263-2.338-.263-2.338-1.429-4.018-1.41-3.35-1.232-6.598-1.181-10.17l.008-2.27c.011-2.384.037-4.768.062-7.152.01-1.62.02-3.24.027-4.86.022-3.963.057-7.926.098-11.89Z"/><path fill="#38437A" d="M70 88c1.125 3.75 1.125 3.75 0 6h-2v16c1.918-.01 3.836-.02 5.812-.032 6.338-.032 12.676-.055 19.014-.072 3.843-.01 7.686-.024 11.528-.047 3.71-.022 7.418-.034 11.127-.039 1.414-.003 2.829-.01 4.244-.021a824.5 824.5 0 0 1 5.946-.016l3.418-.014c2.851.236 4.498.758 6.911 2.241-8.962-.084-17.924-.18-26.886-.288-4.16-.05-8.322-.096-12.483-.134-4.014-.037-8.027-.083-12.04-.136-1.534-.019-3.068-.034-4.601-.045a908.731 908.731 0 0 1-6.429-.078l-3.701-.04C67 111 67 111 65 109c-1.018-7.697-.08-13.448 4-20l1-1Z"/><path fill="#F6F08E" d="M72 0h19l-3 3-2-1v2h-2v3h-2l-2 6h-3l-1-5h-2l1-6-3-1V0Z"/><path fill="#A494BD" d="M266 105h3c1.5 2.188 1.5 2.188 3 5 1.947 3.555 3.592 5.767 7 8l-2 3v-2h-2v-2l-1.938-.813C271 115 271 115 270 112c-2.015-.733-2.015-.733-4-1v-2l-1.75-.438a98.003 98.003 0 0 1-4.038-1.091c-2.668-.568-5.125-.583-7.853-.569l-3.242.01-3.367.025-3.414.014c-2.779.012-5.557.028-8.336.049 9.724-4.953 21.455-3.406 32-2Z"/><path fill="#EABFF5" d="m97 200 1.61.93c2.871 1.286 5.532 1.722 8.64 2.195l3.266.508L113 204l1-3 1 2 1-2 4 2h-2l-1 4c5.478 1.583 5.478 1.583 11 3-3.625 3-3.625 3-7 3v-2h-3v-2l-3 1-1-2-2 2-1-2c-2.22-.54-2.22-.54-4.813-.875-3.432-.619-4.988-.973-7.812-3.125C97 202 97 202 97 200Z"/><path fill="#1A428E" d="m229.5 121.688 3.5.312c2.3 3.45 2.431 4.946 2 9-3 2-3 2-6.563 1.75C225 132 225 132 223 130c.44-5.275.795-7.803 6.5-8.313Z"/><path fill="#F4F1FB" d="m158 211 16 4c-1.443 2.885-3.397 3.269-6.313 4.563l-2.925 1.316C162 222 162 222 158 223v-12Z"/><path fill="#1C489F" d="M90 86c2 3 2 3 1.75 6.063C91 95 91 95 89 97c-3 .25-3 .25-6 0-2-2-2-2-2.313-4.938C81 89 81 89 82.126 87.126 84.869 85.479 86.869 85.6 90 86Z"/><path fill="#D37A94" d="m288 204 1 2-2.23.402-2.957.536-2.918.527c-3.996.739-7.96 1.515-11.895 2.535l-.25 1.688c-.976 3.01-2.702 4.934-4.75 7.312-.813-3.188-.813-3.188-1-7 6.448-8.866 15.006-8.406 25-8Z"/><path fill="#C9B19F" d="M9 58c2.92 2.92 2.424 6.074 2.563 10l.111 2.398c.158 3.393.293 6.787.43 10.18.104 2.474.218 4.948.334 7.422l.082 2.336c.062 4.293.062 4.293 2.48 7.664.813 2.938.813 2.938 1 6-1.488 1.691-1.488 1.691-3 3-1.734-6.704-2.388-13.145-2.754-20.059C10.19 84.07 10.19 84.07 9 82c-.365-3.656-.468-7.33-.625-11l-.156-3.102-.133-2.96-.124-2.723C8 60 8 60 9 58Z"/><path fill="#9F8FB1" d="M289 147h1v5l3 1v13c-10.573 4.765-18.761 4.985-30 2l-3-2c9.26.845 9.26.845 12.688 1.563 6.084 1.15 10.285.16 16.312-1.563v-19Z"/><path fill="#F4C3FA" d="m50 208 1.875 1c2.035 1.142 2.035 1.142 4.125 1 1.67.318 3.337.65 5 1v2h2l.125 1.813c.752 2.538.752 2.538 3.938 3.937L70 220c-3.714 1.238-6.17.616-10 0h-3v-3l-2-2c-2.108.319-2.108.319-4 1l-.438-1.875c-.494-2.158-.494-2.158-1.562-4.125l1-2Zm11 1 2 1-2 1v-2Z"/><path fill="#EEF4F8" d="M83 79c2 4 2 4 2 6h5v1l-3.438.938c-3.35.691-3.35.691-4.562 2.062-.04 2-.043 4 0 6l7 2c-2.578 2.578-4.44 2.621-8 3-1-1-1-1-1.098-3.941l.035-3.621.028-3.63L80 86l-1 1c-1.813 1.125-1.813 1.125-4 2l-4-1 12-9Z"/><path fill="#F2A8F2" d="M11 272c1.582 2.97 2.703 5.909 3.688 9.125l.824 2.633C16 286 16 286 15 288l-2.375 1.375c-3.665 2.269-5.264 4.182-6.313 8.375L6 300c-2.152-3.228-2.2-4.284-2-8h2l.313-2.188C7 287 7 287 8.5 284.813c2.188-4.101 2.242-8.225 2.5-12.812Z"/><path fill="#B0AFE7" d="M70 111h22c-3.006 3.006-5.824 2.596-10 3v1l-16 2v2c-3 1-3 1-6 0v2l-5 1 2-6 2.168.621c3.38.452 5.048-.196 8.145-1.558l2.675-1.153L72 113l-2-2Z"/><path fill="#FAEBBD" d="m24 25 1 2h4l.313 1.875c.562 2.49.562 2.49 3.687 4.125l2-1 2 4c-4.468 3.606-8.321 6.58-14 8 1.75-4.875 1.75-4.875 4-6v-8h-2l-2-4 1-1Z"/><path fill="#A575BA" d="m118 181 3 2v2h2l1.75 2.32c2.565 3.055 4.606 4.015 8.25 5.555 5.519 2.585 7.748 4.495 10 10.125-4.133-.52-6.175-1.656-9.188-4.5-2.69-2.56-2.69-2.56-5.812-4.5v-2h-3v-2l-1.813-.125C121 189 121 189 119.25 186.062 118 183 118 183 118 181Z"/><path fill="#DEC7FB" d="M260 59v4h4v2l-2.375-.5c-5.543-.765-11.267-1.286-16.625.5-.334 2.832-.334 2.832 0 6 1.875 2.377 1.875 2.377 4 4l-2 1v-2l-4 1c-1.312-2.623-.896-4.23-.563-7.125l.31-2.758L243 63h4v-2c8.429-2.286 8.429-2.286 13-2Z"/><path fill="#E7B6F4" d="m234 108-1.941 1.102c-4.3 2.498-8.333 4.964-12.059 8.273-3 2.625-3 2.625-5 2.625v2l-2-1c-.625-2.563-.625-2.563-1-5 6.074-5.06 6.074-5.06 9.938-4.813L224 112l1-4c5.625-1.125 5.625-1.125 9 0Z"/><path fill="#E0A9F8" d="m180 118 1 2 1.813.375c2.927.836 4.241 2.332 6.187 4.625v2h2c1.625 1.5 1.625 1.5 3 3l-1 2a815.784 815.784 0 0 1-7-3l-2.188-.938c-2.334-1.368-3.963-3.094-5.812-5.062l-1.75-1.688C175 120 175 120 175 119l5-1Z"/><path fill="#A1A4EA" d="M131 48h1c.042 2.333.04 4.667 0 7-2.218 2.218-7.414 1.436-10.5 1.563l-3.002.128c-14.491.546-29 .395-43.498.309v-1l3.956-.168c4.889-.208 9.777-.42 14.666-.632a7048 7048 0 0 1 6.322-.27c3.046-.13 6.092-.262 9.138-.395l2.81-.117c6.391-.284 12.743-.789 19.108-1.418v-5Z"/><path fill="#C16F8F" d="m12 160 2 1c-.269 6.45-2.634 10.297-7 15-3.48 3-3.48 3-7 3v-3l2-1c.652-2.025.652-2.025 1-4l2.375-.188c2.816-.532 2.816-.532 3.813-3.062L10 165l2-5Z"/><path fill="#BB90C7" d="m143 203 2.438.875c3.488 1.102 6.925 1.869 10.511 2.563C158 207 158 207 161 209v2l2 1-5-1 1 11 6-1c-2.762 2.762-5.207 2.579-9 3l-1-6h2v-8l-2.082-.402-2.73-.536-2.708-.527C147 208 147 208 144 207c-.688-2.063-.688-2.063-1-4Z"/><path fill="#B39EC2" d="M278 121h5l.25 1.625c.7 2.603.7 2.603 2.75 5.375 2.912 4.368 3.124 7.552 3.063 12.75l-.028 2.984L289 146c-3.367-5.05-5.036-11.022-6-17h-2l-1-6h-2v-2Z"/><path fill="#2A43A8" d="m112 125 1 3-5 1c.603 7.07.603 7.07 2 14l2 1c1.478 2.957 1.06 5.742 1 9-3.601-1.8-4.767-5.366-6-9-1.024-5.281-1.506-10.648-2-16 3.625-3 3.625-3 7-3Z"/><path fill="#E4C8FC" d="M285 0h11c-1.813 3-1.813 3-4 6-3 0-3 0-6-1-2.34 2.128-3.707 4.116-5 7l-2-1c.526-3.788 1.381-6.172 4-9h2V0Z"/><path fill="#B67AC4" d="M80 242c6.998 1.186 12.795 3.574 19.18 6.66 2.802 1.402 2.802 1.402 5.82 2.34v2l2 1-2.75-.125c-3.128.12-4.636.516-7.25 2.125l-.375-2.438L96 251l-2-1v-2l-2.3-.55-3.013-.762-2.988-.739C83 245 81.79 244.182 80 242Z"/><path fill="#D8B5E5" d="m122 77 1.703.93c2.36 1.1 4.502 1.671 7.047 2.195l2.422.508L135 81c.553 2.076 1 3.844 1 6l-1 1 2 1v5l-.813-1.938C135.113 89.67 135.113 89.67 132 89c-3-3.444-3-3.444-3-6l-1.813-.188C124.13 81.677 123.45 79.828 122 77Z"/><path fill="#D67897" d="m278 258 2.02.402c6.648 1.274 13.23 2.102 19.98 2.598v3c-8.624.487-15.238-.075-23-4l1-2Z"/><path fill="#E8C4FA" d="M111 152c2.565.994 3.798 1.685 5.3 4.031 3.08 7.516 3.253 13.4.638 21.094L116 179c-1-3-1-3-.438-6.375.465-3.847-.028-5.195-1.562-8.625l.063-2.563c-.08-3.066-1.187-4.092-3.063-6.437v-3Z"/><path fill="#74609A" d="M217 149c11.583 4.359 21.552 13.26 29 23l-2 3-.75-1.547c-5.317-9.372-15.041-15.875-24.246-21.18L217 151v-2Z"/><path fill="#B8A2AA" d="M14 0h4v4h-2c.255 2.294.53 4.585.813 6.875l.457 3.867c.398 3.536.398 3.536 3.73 5.258 1.188 3.125 1.188 3.125 2 6l-5-2v-2h-2c-2.348-7.337-2.194-14.344-2-22Z"/><path fill="#C9DFF4" d="m226.504 119.902 3.059.035 3.066.028L235 120l2 10-2 1-2-9c-4.822.325-4.822.325-8.938 2.563L223 126a99.984 99.984 0 0 1 0-5c1-1 1-1 3.504-1.098ZM223 130l1.688 1c2.647 1.145 4.453 1.147 7.312 1h3c-1.063 1.563-1.063 1.563-3 3-3.563-.063-3.563-.063-7-1-1.438-2.063-1.438-2.063-2-4Z"/><path fill="#0F41B8" d="m293 89 7 1v8c-4.72-1.543-9.417-3.078-14-5v-1h6l1-3Z"/><path fill="#28429F" d="m253 62.75 2.625-.016C258 63 258 63 261 65l-2.59.148-3.348.227c-1.102.07-2.204.14-3.34.21L249 66c-1.333 2.667-.671 4.167 0 7l1.938.313L253 74l1 3c-3.995-1.37-6.8-3.257-10-6 .313-2.875.313-2.875 1-6 3.24-2.16 4.249-2.272 8-2.25Z"/><path fill="#C2ACD2" d="M240 156c4.738 1.443 8.989 3.372 13.375 5.625l1.941.984c1.563.794 3.124 1.592 4.684 2.391-3.223 1.074-5.626 1.07-9 1h-3l-1-3-3-1c-2.188-1.375-2.188-1.375-4-3v-3Z"/><path fill="#C68CDA" d="m163 105 2 2-1 1 6 2-1 2a939.187 939.187 0 0 1-17-2l1-2-4-2c2.29-.221 4.582-.427 6.875-.625l3.867-.352L163 105Z"/><path fill="#ECB3F4" d="M71 221c4.752.9 9.391 2.134 14.063 3.379 2.861.712 2.861.712 5.542.617 3.856.006 6.847 1.56 10.395 3.004-3.105.964-5.42.972-8.625.5-3.306-.572-3.306-.572-6.375.5-1.666.04-3.334.044-5 0l-1-3c-2.091-1.24-2.091-1.24-4.563-2.188l-2.503-1.042L71 222v-1Z"/><path fill="#7F589C" d="m22 161 1 4 3.5-1.5c4.543-1.517 8.931-1.836 13.688-1.875l2.05-.041c4.637.04 7.785 1.078 11.762 3.416l-2 1-2.5-.938c-7.387-2.242-14.218-1.16-21.5.938-1.664.347-3.33.687-5 1l.125 2.875C23 173 23 173 21 175l1-14Z"/><path fill="#E3C9F5" d="M95 72c-2.605 1.737-5.051 2.995-7.875 4.313C82.973 78.364 80.072 80.475 77 84l-4 4-2-1 2-6h5l.563-2.25C82.102 71.98 88.142 71.519 95 72Z"/><path fill="#D8C7F7" d="M208 140c5.315.519 8.663 1.998 13 5 1.438 2.75 1.438 2.75 2 5l-2 1a2768.21 2768.21 0 0 1-4.25-2.813l-2.39-1.582c-4.585-3.119-4.585-3.119-6.36-4.605v-2Z"/><path fill="#DDC5A5" d="M6 281c1.32 3.963 1.114 6.962 0 11H4l1 8H1c.814-13.243.814-13.243 3-18l2-1Z"/><path fill="#D5B0E4" d="m181.313 216.438 3.238.308L187 217c-1.624 1.951-2.438 2.928-5.008 3.258l-2.117-.133L176 220l-1 1a91.472 91.472 0 0 1-5.063.063l-2.785-.028L165 221c5.426-4.806 9.218-5.264 16.313-4.563Z"/><path fill="#EBCCF7" d="M290 167c-.586 1.953-.586 1.953-2 4-2.977.61-2.977.61-6.625.75l-3.805.156L274 172l-2.633.156c-2.117.094-2.117.094-5.367-.156l-2-3c2.72-1.36 4.787-.67 7.71-.266 6.772.786 12.07-1.734 18.29-1.734Z"/><path fill="#F7DFC2" d="M9 82c2.774 2.774 2.366 4.686 2.563 8.563.317 5.513.775 10.955 1.437 16.437l-3 1-.184-1.863-.254-2.45c-.08-.8-.162-1.6-.246-2.425C9.047 98.839 9.047 98.839 8 96c.087-2.399.24-4.795.438-7.188l.308-3.855L9 82Z"/><path fill="#EBA6F6" d="m172 112 9 3v-3h2l1 6-4-1v2c-4.474.363-4.474.363-6.813-1.25C172 116 172 116 172 112Z"/><path fill="#EFCBFD" d="m250.5 102.688 2.992-.05 2.852-.001 2.568-.01L261 103l2 3-2.555-.484c-10.485-1.57-20.365-.67-30.445 2.484l-1-3c7.225-1.728 14.082-2.337 21.5-2.313Z"/><path fill="#B886C4" d="M69 253c5.784-.35 10.02.755 15.375 2.875l2.191.816C91.865 258.73 91.865 258.73 93 261c-5.415 1.23-5.415 1.23-8.375.063L83 260v-2c-3.047-1.694-5.828-2.495-9.25-3.125l-2.703-.508L69 254v-1Z"/><path fill="#BB86C5" d="m56 231 3.254 1.426 4.309 1.887 2.134.935c4.426 1.938 8.86 3.854 13.303 5.752-4.002 1.6-7.046.293-11-1v-2l-6 1-.75-1.938c-1.066-2.25-1.066-2.25-3.375-2.812L56 234v-3Z"/><path fill="#1D3F9F" d="M43 0c4.835 2.149 8.164 4.579 10.875 9.188C55.243 13.822 54.882 17.316 54 22h-1l-.367-2.266-.508-2.984-.492-2.953C51.04 11.183 50.467 9.237 49 7l-3-1V4h-3V0Z"/><path fill="#AD7EBE" d="M116 239c5.226.441 10.121.926 15 3l1 2c2.126.467 2.126.467 4.563.625l2.503.227L141 245v1h-14v-2l-2.152-.586-2.785-.789-2.778-.773C117 241 117 241 116 239Z"/><path fill="#F1B3F6" d="M7.313 112.813 9 114l-2 6-2.375.438c-2.59.44-2.59.44-4.625 1.562-.313-3.313-.313-3.313 0-7 2.642-2.422 3.832-3.41 7.313-2.188Z"/><path fill="#E4CAF6" d="M18 2c1.988 2.983 3.537 5.976 5.125 9.188l1.633 3.292L26 17l-3 1-1-5h-2v-2h-4V4h2V2Z"/><path fill="#CEB7F7" d="m26 17 1.355 1.207C32.872 23.041 38.236 26.215 45 29v1c-3.717.272-6.347.001-9.688-1.563C32.087 26.6 32.087 26.6 29 28v-2h2v-3h-3l-2-6Z"/><path fill="#BEA5A5" d="M81 6c2 1 2 1 3.063 3.938L85 13l1 2-1 2h-2l-1-2h-2l-2 4a258.611 258.611 0 0 1-1.563-3.813l-.878-2.144C75 11 75 11 76 8l1 5 3-1 1-6Z"/><path fill="#83589D" d="M120 163h1a233.677 233.677 0 0 1-.672 5.566 149.702 149.702 0 0 0-.594 5.086c-.353 2.613-.78 4.889-1.734 7.348-5.457 3.948-11.47 3.319-18 3v-1l1.863-.113 2.45-.2 2.425-.175c2.343-.319 2.343-.319 3.805-2.055L112 179h4l4-16Z"/><path fill="#B182C3" d="m75 172 1 2h2v2l2.75-.063c2.677.052 4.72.285 7.25 1.063v2h3v2l7 1v1c-7.75-.5-14.066-2.533-21-6v-2l-3-1 1-2Z"/><path fill="#EDE2A1" d="m76 3 1 2 7-1v3h-2l-2 6h-3l-1-5h-2V5h2V3Z"/><path fill="#807DA7" d="M70 88c1.125 3.75 1.125 3.75 0 6h-2v17l-3-2c-1.295-7.58-.005-13.567 4-20l1-1Z"/><path fill="#F7EAA3" d="m8 98 2 1c.29 2.025.573 4.052.754 6.09.15 1.993.15 1.993 1.246 3.91l-4 1v2l-2-1H3v-4l1.938-.563c2.483-1.38 2.483-1.38 2.812-5.062L8 98Z"/><path fill="#C1D7F1" d="m83 84 7 1v1l-3.438.938c-3.35.691-3.35.691-4.562 2.062-.04 2-.043 4 0 6l7 2c-2.578 2.578-4.44 2.621-8 3-1-1-1-1-1.098-3.941l.035-3.621.028-3.63L80 86h3v-2Z"/><path fill="#DEC4FB" d="M288 8h2l-.496 1.61c-.618 2.929-.599 5.648-.567 8.64l.028 3.266L289 24l-4-1c-.75-3.663-1.238-6.424 0-10h2l1-5Z"/><path fill="#0A40AF" d="M225 123c6.75.75 6.75.75 9 3-.375 2.125-.375 2.125-1 4h-6v-3h-2v-4Z"/><path fill="#264096" d="M261 65c5.06.639 9.28 2.863 13.813 5.063l2.388 1.142c1.936.927 3.868 1.86 5.799 2.795-3.768 1.084-3.768 1.084-5.86.328l-1.89-1.078c-3.985-2.157-7.984-3.726-12.25-5.25v-2l-2-1Z"/><path fill="#CF91DB" d="M281 0h4v2h-2c-2.12 3.534-2.532 6.944-3 11h-3l-1 2c.114-1.792.241-3.584.375-5.375.07-.998.14-1.995.21-3.023C277.12 3.246 278.645 2.356 281 0Z"/><path fill="#D5C5FA" d="M265 65c3.517.653 6.893 1.514 10.313 2.563l2.675.816L280 69v2l5 1v3c-4.738-1.443-8.989-3.372-13.375-5.625l-1.941-.984A1361.59 1361.59 0 0 1 265 66v-1Z"/><path fill="#2A43A2" d="M288 12h1l1 8h10l-1 3c-3.494 1.165-6.337 1.136-10 1-1-1-1-1-1.098-3.504l.036-3.058.027-3.067L288 12Z"/><path fill="#E5B6F6" d="m230 218-1 4-1-2-2 1-2.477-.434c-4.655-.748-9.193-.672-13.898-.629l-2.809.014c-2.272.012-4.544.028-6.816.049v-1c10.024-.729 19.944-1.141 30-1Z"/><path fill="#A686B7" d="M76 114c-3.265 1.884-6.281 2.493-10 3v2c-3 1-3 1-6 0v2l-5 1 2-6 1.938.688c3.838.391 6.33-.673 9.902-1.985 2.467-.803 4.58-.953 7.16-.703Z"/><path fill="#D8ABE1" d="M113 205c2.578.477 4.155 1.102 6.375 2.563 3.1 1.698 5.143 1.68 8.625 1.437-1 2-1 2-4 4h-3v-2h-3v-2l-3 1-2-5Z"/><path fill="#CF9ED7" d="M132 193c4.53 1.481 7.06 2.448 9.438 6.688L143 203c-4.32-.48-6.273-1.615-9-5-1.25-2.75-1.25-2.75-2-5Z"/><path fill="#ABA6F1" d="m116 158 2.188 1.438c2.707 1.504 4.774 2.128 7.812 2.562v-2l6-2v2a1223.098 1223.098 0 0 1-5.375 3l-3.023 1.688C121 166 121 166 119 166c-3-5.75-3-5.75-3-8Z"/><path fill="#EA7B8F" d="M10 152h2v2h2l1 7h-2l-3 4v-13Z"/><path fill="#DFC2F7" d="M185 128c4.721 2.924 9.397 5.893 14 9-3.03 1.282-4.036.986-7.188-.25C189 135 189 135 188 132l-3-1v-3Z"/><path fill="#F3CEE9" d="M23 47c-1.523 5.817-4.022 10.23-9.313 13.375L12 61c1.341-4.806 5.039-14 11-14Z"/><path fill="#263E93" d="M18 0h2c2.152 3.228 2.2 4.284 2 8h4v8c-2.866-2.48-4.162-5.122-5.688-8.563l-1.324-2.94C18 2 18 2 18 0Z"/><path fill="#0B3AA6" d="m258 76 1 2c1.665.343 3.332.674 5 1 2.378.916 4.675 1.952 7 3l-2 2c-2.094-.172-2.094-.172-4.5-.75l-2.406-.547C260 82 260 82 258 80v-4Z"/><path fill="#E1CBFB" d="M54 25c1 3 1 3 0 6-3.98 1.64-6.229 2.196-10.438 1.125L41 31c2.542-1.424 4.786-2.217 7.625-3 3.412-.72 3.412-.72 5.375-3Z"/><path fill="#C8B9F6" d="M165 144v3c-4.608 3.072-8.32 5.501-14 5l1-2h3v-2l10-4Z"/><path fill="#F0AAF8" d="M175 105c1 3 1 3 1 6-1.648-.449-3.294-.91-4.938-1.375l-2.777-.773C166 108 166 108 165 106c3.473-1.158 6.36-1.069 10-1Z"/><path fill="#D1BDF8" d="m45 0 7 1 1 4h2l1 3-3 3-1.188-2.688C49.934 4.88 47.867 2.636 45 0Z"/><path fill="#AB7F9D" d="M11 86h1l.148 2.117.227 2.758c.07.905.14 1.81.21 2.742.21 2.562.21 2.562 2.415 4.383.813 2.938.813 2.938 1 6-1.488 1.691-1.488 1.691-3 3-1.901-7.13-2.224-13.637-2-21Z"/><path fill="#1C3D9A" d="M283 75c4.829 1.449 9.787 3.175 14 6l1 3-4-1v-2h-5v-2l-6-2v-2Zm9 10 2 1Z"/><path fill="#D2748F" d="m9 171-1 2H6l-1 5-5 1v-3l2-1 .438-2L3 171c3-1 3-1 6 0Z"/><path fill="#E1D3F2" d="m286 139 3 6h3l1 7-5 1c-1.591-4.873-2.212-8.808-2-14Z"/><path fill="#3C54B7" d="m107 139 3 1v3l2 1c1.478 2.957 1.06 5.742 1 9-3.455-1.728-4.624-5.515-6-9-.25-3-.25-3 0-5Z"/><path fill="#321D32" d="m91 2 4 2-1.875.75C89.75 6.736 89.202 9.394 88 13l-3-1a84.76 84.76 0 0 1 2-7h3l1-3Z"/><path fill="#A47193" d="M11 264c2.526 3.789 1.935 6.229 1.313 10.5-.08.677-.16 1.354-.24 2.05-.408 2.968-.755 5.054-2.655 7.419L8 285l.492-1.656c.58-2.673.64-5.11.633-7.844l.008-2.844C9.013 270.28 8.676 268.273 8 266l3-2Z"/><path fill="#EFBDF6" d="m0 253 1.813.5c2.3.611 2.3.611 5.187.5 1 4.75 1 4.75 1 7H5v-2l-2-1c-1.625-1.438-1.625-1.438-3-3v-2Z"/><path fill="#8F7C9F" d="m156 209 4 2h-2l1 11 6-1c-2.762 2.762-5.207 2.579-9 3l-1-6h2l-1-9Z"/><path fill="#E6C3F6" d="m238 163 6 2v3l3 1 1 6c-3-1-3-1-3.875-2.625L243 170c-1.61-2.375-3.3-4.69-5-7Z"/><path fill="#BFA9CB" d="M286 129c2.805 2.805 2.961 4.885 3.098 8.797l-.036 2.953-.027 2.984L289 146c-2.207-3.31-2.783-5.82-3.625-9.688-.26-1.179-.52-2.358-.79-3.574L284 130l2-1Z"/><path fill="#DBC2FA" d="M140.063 110.938 143 111v2c-2.453 1.226-4.05 1.114-6.79 1.098l-2.85-.01-2.985-.025-3.008-.014c-2.456-.012-4.911-.028-7.367-.049v-1l3.465-.184 4.472-.254 2.288-.119c3.648-.212 6.425-1.436 9.838-1.505Z"/><path fill="#FBEDB2" d="M19 24c3.481 1.393 4.479 2.632 6 6l2 1c-2 1-2 1-5.125.063L19 30v-6Z"/><path fill="#2C429B" d="M26 16c2.154.966 3.767 1.746 5.375 3.5 2.264 2.09 4.702 2.655 7.625 3.5l-1 4c-9.901-5.658-9.901-5.658-12-11Z"/><path fill="#A875B9" d="M123 256v2l13 1v1c-2.208.054-4.417.093-6.625.125l-3.727.07c-3.591-.192-6.315-.892-9.648-2.195v-1c4.75-1 4.75-1 7-1Z"/><path fill="#AD7AB9" d="m101 229 4 1v2h2v2l2.313.813C112 236 112 236 115 239l-9-2v-3h-2v-2h-2l-1-3Z"/><path fill="#EDECFA" d="m126 81 1 2h2c1.688 1.813 1.688 1.813 3 4l-1 3c-2.375-.688-2.375-.688-5-2-1.313-2.625-1.313-2.625-2-5l2-2Z"/><path fill="#1E42A4" d="m296 2 1 4-1.938 1.25C292.79 9.178 292.399 10.114 292 13l-3-1c1.24-4.957 2.786-7.117 7-10Z"/><path fill="#BD89C5" d="M56 214c4.972 1.492 9.418 3.605 14 6-3.714 1.238-6.17.616-10 0h-3v-3l-1-3Z"/><path fill="#D9859B" d="m288 204 1 2-13 2v-3c3.981-1.327 7.85-1.07 12-1Z"/><path fill="#D7BBF3" d="m195 131 3 1v2l3-2c2.188.375 2.188.375 4 1v2c-2.125 1.25-2.125 1.25-5 2-3.313-1.875-3.313-1.875-6-4l1-2Z"/><path fill="#E1EDF9" d="M70 92h2c.188 2.375.188 2.375 0 5l-3 2c-.58 2.195-.58 2.195-.688 4.625l-.199 2.477L68 108h-1c-.027-1.958-.046-3.917-.063-5.875l-.035-3.305C67 96 67 96 68 94h2v-2Z"/><path fill="#DFC1D5" d="m70 0 5 2 1 11c-2.972-2.972-4.362-5.179-6-9V0Z"/><path fill="#D0A5E8" d="M147 247c-3.73 2.487-5.576 2.3-10 2-3.438-1-3.438-1-6-2v-1c5.835-.853 10.449-1.484 16 1Z"/><path fill="#B46687" d="M280 204c-2.363 2.526-3.665 3.888-7 5-2.333.04-4.667.044-7 0 3.603-4.404 8.52-5.322 14-5Z"/><path fill="#906AAF" d="M175 119c3.801 1.68 6.97 4.115 10.25 6.625l1.68 1.273A1461.76 1461.76 0 0 1 191 130l-2 1c-4.386-2.193-7.693-4.339-11-8l-1.75-1.688C175 120 175 120 175 119Z"/><path fill="#D0C095" d="M17 43h4l-.5 1.813c-.611 2.3-.611 2.3-.5 5.187h-2l-.875 1.938C16 54 16 54 14 55a38.246 38.246 0 0 1 2.063-6.563C17.178 45.97 17.178 45.97 17 43Z"/><path fill="#FBBFEC" d="M9 176c-.75 1.938-.75 1.938-2 4l-4 1c-1.284 1.984-1.284 1.984-2 4H0v-6c5.625-3 5.625-3 9-3Z"/><path fill="#E7B4FC" d="m170 110-1 2c-5.03-.525-10.019-1.106-15-2v-1c5.704-1.252 10.468-.844 16 1Z"/><path fill="#A090B2" d="M234 108a637.17 637.17 0 0 1-4.813 3l-2.707 1.688C224 114 224 114 221 114c3.18-5.75 3.18-5.75 7.063-6.938C231 107 231 107 234 108Z"/><path fill="#D5C1A4" d="m15 15 1.313 1.375C18.108 18.2 18.108 18.2 21 20c1.188 3.125 1.188 3.125 2 6l-5-2v-2h-2l-1-7Z"/><path fill="#E1A5EE" d="M73 241c5.241.411 8.24 1.24 12 5v2c-3.85-.52-5.313-1.313-8-4h-4v-3Z"/><path fill="#9A5A80" d="M280 203c10.709-.381 10.709-.381 16 2l2 2c-4.114.187-6.384-.192-10-2-2.664-.468-5.305-.73-8-1v-1Z"/><path fill="#B183BA" d="m97 200 1.64.93c2.705 1.226 5.185 1.707 8.11 2.195l2.984.508L112 204v1c-10.106 1.603-10.106 1.603-13.688-.813C97 202 97 202 97 200Z"/><path fill="#DFC5F6" d="M219 152c4.068 1.85 7.01 3.664 10 7l-2 1c-2.999-1.2-5.593-2.85-8-5v-3Z"/><path fill="#DDC2F5" d="m231 153 5 1v2l4 1c-3 1-3 1-6.188-.438L231 155v-2Zm0 3h3l2 2-1 3c-2-1.375-2-1.375-4-3v-2Z"/><path fill="#DCB1F1" d="M141 93h1l1 10h-2v7h-1l-2-13h2l1-4Z"/><path fill="#0B3EB2" d="m88 89 4 2h-2l-2 4-6-1 2.438-1.938C86.275 90.594 86.275 90.594 88 89Z"/><path fill="#CEBFF9" d="M289 75h3v2h4v2h2v2h2l-1 2-10-5v-3Z"/><path fill="#DECBFE" d="M120 43h12c1.203 2.405 1.1 3.95 1.063 6.625l-.028 2.477L133 54h-1l-2-8-10-2v-1Z"/><path fill="#DAC5A1" d="M32 38c-3.323 4.8-3.323 4.8-6.75 5.813L23 44c1.987-5.536 3.177-6.153 9-6Z"/><path fill="#C9AF93" d="M2 289c2.566 3.85 2.551 6.435 3 11H1l1-11Z"/><path fill="#9C5079" d="M281 261c6.497-.295 12.622.827 19 2v1c-2.041.055-4.083.093-6.125.125l-3.445.07c-3.488-.198-6.185-.943-9.43-2.195v-1Z"/><path fill="#C4A2A9" d="M0 255c3.875 2.625 3.875 2.625 5 6h2l1 4c-2.824-1.481-5.52-2.987-8-5-.5-2.813-.5-2.813 0-5Z"/><path fill="#D7A5DB" d="M50 208c2.622 1.049 3.794 1.65 5.25 4.125L56 214l-2 2h-3l-.438-1.875c-.494-2.158-.494-2.158-1.562-4.125l1-2Z"/><path fill="#EFCEFA" d="m279 116 2 3 3 1c.95 2.066.95 2.066 1.688 4.563.25.826.502 1.652.761 2.503L287 129l-5-5 1-3-4 1c-1.125-3.75-1.125-3.75 0-6Z"/><path fill="#EBCAFA" d="M74 113c-3.035 2.024-4.194 2.321-7.688 2.625l-2.449.227L62 116v-3c4.333-.928 7.667-.928 12 0Z"/><path fill="#C6B5F1" d="M291 95c3.344.557 6.033 1.352 9 3v2l-6 1-3-6Z"/><path fill="#F7EF9D" d="M72 0c7.508-.37 7.508-.37 10 1.5L83 3c-3.133 1.044-3.99.934-7 0v2l-2-1 1-2-3-1V0Z"/><path fill="#B76789" d="M265 245c2 3 2 3 2 5h3v4c-3.356-1.389-5.073-2.917-7-6v-2l2-1Z"/><path fill="#9F6DAE" d="M71 221c3.807.728 7.555 1.613 11.313 2.563l3.238.816L88 225c-2.422 1.545-3.583 2.06-6.473 1.645l-2.59-.833-2.597-.792c-2.38-1.037-3.663-2.069-5.34-4.02Z"/><path fill="#E5C6F2" d="M265 168c1.996.05 1.996.05 4.438.313l2.433.238C274 169 274 169 276 171c-3.387.774-6.527 1.376-10 1l-2-3 1-1Z"/><path fill="#E5C2F9" d="m224 149 5 1v5a101.168 101.168 0 0 1-6-2l-1-2h2v-2Z"/><path fill="#B79BC6" d="m210 121 3 2-1 2h-2l-.875 1.875C208 129 208 129 206 131v-5h2v-4l2-1Z"/><path fill="#F6E8B4" d="M12 0h2l1 14c-3-3-3-3-3.293-5.7l.105-2.988.083-3.011L12 0Z"/><path fill="#8F88B4" d="M221 145c4.308 1.566 8.062 3.683 12 6-3 1-3 1-6.188-.438L224 149v2l-2-1c-.625-2.563-.625-2.563-1-5Z"/><path fill="#234B8F" d="M90 91h2c-1.875 4.875-1.875 4.875-3 6-2.938.25-2.938.25-6 0l-2-3 3.375.188L88 94l2-3Z"/><path fill="#9D8EB8" d="m79 80 2 1-8 7-2-1 2-6c1.207.03 1.207.03 2.438.063 2.496.233 2.496.233 3.562-1.063Z"/><path fill="#E3BEE7" d="m93 5 4 2c-2.25 2.063-2.25 2.063-5 4-2.313-.25-2.313-.25-4-1 2-3 2-3 5-5Z"/><path fill="#D5778E" d="m290 206 9 1 1 4-3 1-1-2-2.5-1c-2.5-1-2.5-1-3.5-3Z"/><path fill="#E5C5F5" d="M80 178c-1.375 1.5-1.375 1.5-3 3h-2v2l-6-1c3.956-3.033 5.968-4.132 11-4Z"/><path fill="#E5C9F8" d="m237.188 103.938 2.73.027L242 104c-2.72 1.458-5.248 2.424-8.25 3.125L230 108l-1-3c3.015-1.005 5.042-1.103 8.188-1.063Z"/><path fill="#CAB3F7" d="m243 66 2 1 .438 2.375c.616 2.876 1.34 3.789 3.562 5.625l-2 1v-2l-4 1c-1.366-2.732-1.128-4.982-1-8l1-1Z"/><path fill="#EBB9F6" d="M277 13h2a251911733.857 251911733.857 0 0 0-1.465 6.836C277 22 277 22 276 24h-2v-4h2l1-7Z"/><path fill="#F8BFF0" d="M14 161h2v8l2 1-3 1v-2h-2v2l-2-1 3-9Z"/><path fill="#CDBBF8" d="M111 152c1.875.563 1.875.563 4 2 1.25 3.625 1.25 3.625 2 7l-2 1c-4-6.625-4-6.625-4-10Z"/><path fill="#263E96" d="m166 137 2 1c-.34 3.151-.58 4.608-2.938 6.813C163 146 163 146 161 146v-2h3l.438-2.375C165 139 165 139 166 137Z"/><path fill="#D87A9A" d="m0 135 3 1-1 4 6 1-1 3-2-2c-2.584-.167-2.584-.167-5 0v-7Z"/><path fill="#D8D7F2" d="M137 100c2.29 3.435 2.178 4.985 2 9h-5l2-3c.04-1.666.044-3.334 0-5l1-1Z"/><path fill="#E5F6FE" d="m91 87 3 1c.37 6.523.37 6.523-1.5 8.938L91 98c-1.167-3.5-.684-5.428 0-9v-2Z"/><path fill="#9B8BB2" d="m122 77 1.625.875c2.728 1.292 5.501 2.21 8.375 3.125l-2 1 1 4-2-1v-2l-1.813-.188C124.13 81.677 123.45 79.828 122 77Z"/><path fill="#EDA9F6" d="m273 8 4 1-1 6h-3V8Z"/><path fill="#F0C0F0" d="M285 0h7l-2 4h-7V2h2V0Z"/><path fill="#F8A6FB" d="M270 0h11l-1 3-1-2-2.25 1C274 3 274 3 270 3V0Z"/><path fill="#ECBDE9" d="M7 287c1.128 3.383.818 4.768.063 8.188l-.59 2.73L6 300c-2.152-3.228-2.2-4.284-2-8h2l1-5Z"/><path fill="#E6E2F5" d="m166 214 8 1c-1 2-1 2-4.063 3.125L167 219l-1-5Z"/><path fill="#A39ABD" d="M240 156c3.775 1.09 6.47 1.908 9 5l-3 1v-2h-5l-1-4Z"/><path fill="#C5B4F9" d="m105 124 4 2-3 2c-.363 1.977-.363 1.977-.188 4.125L106 136h-2a920.276 920.276 0 0 1-.063-5.438l-.035-3.058C104 125 104 125 105 124Z"/><path fill="#D1A9DC" d="M59 122c-1.125 1.5-1.125 1.5-3 3-3.188.188-3.188.188-6 0v-3c6.75-1.125 6.75-1.125 9 0Z"/><path fill="#9E8DB0" d="M270 112c3.436 1.527 6.12 3.6 9 6l-2 3v-2h-2v-2l-1.938-.813C271 115 271 115 270 112Z"/><path fill="#EDB9FA" d="M137 88c2.008 2.008 2.994 3.369 4 6-.375 2.25-.375 2.25-1 4l-3-2c-.408-2.712-.133-5.244 0-8Z"/><path fill="#244097" d="m128 45 3 1v7h-3v-8Z"/><path fill="#EE7A8C" d="m273 207 2 2c-3.446 4.8-3.446 4.8-6.25 5.813L267 215l1-6h5v-2Z"/><path fill="#AA8FB8" d="M221 116a90.488 90.488 0 0 1-4 4h-2v2l-2-1c.75-2.438.75-2.438 2-5 2.593-1.134 3.447-1.276 6 0Z"/><path fill="#F0B4EB" d="M14.25 108.875 16 110c-2.967 1.648-5.656 2.443-9 3 1-3 1-3 2.813-4.313C12 108 12 108 14.25 108.876Z"/><path fill="#B9A9EC" d="M70 49c1.751 2.626 3.387 5.288 5 8l-6-1 1-7Z"/><path fill="#C4ABA5" d="m24 25 1 2h4l1 5-3 1v-3h-2l-2-4 1-1Z"/><path fill="#B793C7" d="M113 205c3.485.645 6.028 2.101 9 4-2.463 1.231-4.28 1.072-7 1l-2-5Z"/><path fill="#D0E6F5" d="m226.066 119.902 2.496.035 2.504.028L233 120v1l-3.313.813c-3.304 1.064-4.637 1.534-6.687 4.187a99.984 99.984 0 0 1 0-5c1-1 1-1 3.066-1.098Z"/><path fill="#F1EEF9" d="m239 107-4 2 1 2c-2.313.625-2.313.625-5 1l-3-2c3.858-2.153 6.551-3.393 11-3Z"/><path fill="#ECC2FA" d="M141 103h2l2 7h-4v-7Z"/><path fill="#264AAD" d="M286 92c6.4-.37 6.4-.37 9.438 1.5L297 95c-3.41 1.136-4.003.867-7.188-.438l-2.167-.87L286 93v-1Z"/><path fill="#DEEBF5" d="M117 76c2.02.602 4.021 1.273 6 2l1 2h-8l1-4Z"/><path fill="#3C2824" d="M81 6c2 1 2 1 3.063 3.938L85 13l1 2-1 2h-2c-1.423-3.823-2.24-6.913-2-11Z"/><path fill="#E3B1F1" d="m70 219 1 3 2 1c-4.75 1-4.75 1-7 1l-1-3h5v-2Z"/><path fill="#F5BFF0" d="m265 205 4 1c-4.75 5.75-4.75 5.75-7 8 .557-3.344 1.352-6.033 3-9Z"/><path fill="#A196E0" d="m116 158 7 4-2 4h-2c-3-5.75-3-5.75-3-8Z"/><path fill="#F3CFFB" d="M234 156c2.875.25 2.875.25 6 1 1.375 2.063 1.375 2.063 2 4-2.875.125-2.875.125-6 0l-2-2v-3Z"/><path fill="#7B629F" d="M207 142c4.435 1.394 6.874 3.606 10 7-3.588-1.333-6.836-2.83-10-5v-2Z"/><path fill="#2946AC" d="M275 85h2v2c2.652 1.075 5.284 2.095 8 3l-1 2-9-4v-3Z"/><path fill="#E4E7F2" d="m77 83 2 4c-2.354 1.43-3.48 2.087-6.25 1.625L71 88l6-5Z"/><path fill="#F7CFEE" d="m21 19 .75 1.875C23.222 23.378 24.41 23.83 27 25l1 2c-3.12-.337-4.621-.621-6.875-2.875L20 22l1-3Z"/><path fill="#1F3CA6" d="M23 8h3v8c-1.5-1.188-1.5-1.188-3-3-.188-2.688-.188-2.688 0-5Z"/><path fill="#EECCF5" d="M97 1c1.43 2.354 2.087 3.48 1.625 6.25L98 9l-1-3h-3c.375-1.938.375-1.938 1-4l2-1Z"/><path fill="#D9A7E9" d="M92 180c1.46.114 2.917.242 4.375.375l2.46.21C101 181 101 181 103 183c-3.25.75-3.25.75-7 1-2.438-1.938-2.438-1.938-4-4Z"/><path fill="#0D39A3" d="M164 144h-3l-1 3h-7l4-1v-2c3.133-1.044 3.99-.934 7 0Z"/><path fill="#A694BB" d="M278 121h5v8h-2l-1-6h-2v-2Z"/><path fill="#A1B9E0" d="M234 120c2.29 3.435 2.178 4.985 2 9-1.206-2.332-2.165-4.496-3-7h-5v-1l6-1Z"/><path fill="#EFCAF4" d="M11 63h4v3h-2l-1 5h-1v-8Z"/><path fill="#C19CB1" d="M30 32h4c1.75 2 1.75 2 3 4l-5 2 1-2-1.5-1.438C30 33 30 33 30 32Z"/><path fill="#083EA8" d="m289 12 2 1c.407 2.322.744 4.657 1 7h-3v-8Z"/><path fill="#D7C4FB" d="M21 9c2.011 2.56 3.628 5.046 5 8l-3 1-1-5h-2l1-4Z"/><path fill="#BEB4F1" d="m45 0 7 1v3c-2.375-.313-2.375-.313-5-1l-2-3Z"/><path fill="#F9E9AD" d="m0 260 6 3v5c-2-1-2-1-3-4l-3-1v-3Z"/><path fill="#F4B9FC" d="M76.563 242.938 79 243v3l-6 1c0-3.976 0-3.976 3.563-4.063Z"/><path fill="#E8F1FA" d="m70 174 5 2-3 3-4-2 2-2v-1Z"/><path fill="#EBF1F7" d="M282 129c1.46 2.647 2 3.894 2 7l-4-1c.875-4.875.875-4.875 2-6Z"/><path fill="#D5B1F3" d="m187 124 2 1v2h2c1.625 1.5 1.625 1.5 3 3l-1 2c-3-1.75-3-1.75-6-4v-4Z"/><path fill="#B78CAD" d="m5 112 1 2-1 3H1l-1 2c.398-2.886.79-3.822 3.063-5.75L5 112Z"/><path fill="#3E4DB1" d="M258 79c3.558.61 6.683 1.578 10 3l-2 2c-6.875-2.75-6.875-2.75-8-5Z"/><path fill="#2741A4" d="m52 12 3 1-1 9h-1l-1-10Z"/><path fill="#E9B9FA" d="m281 5 3 1-3 6-2-1c.875-4.875.875-4.875 2-6Z"/><path fill="#3A2530" d="m91 2 4 2-1.938.875C90.849 5.828 90.849 5.828 90 8l-1-3 2-3Z"/><path fill="#CDB7C4" d="M93 0h8c-1.313 1.5-1.313 1.5-3 3-3 0-3 0-6-1l1-2Z"/><path fill="#9E6EAB" d="m96.75 226.375 2.422.898L101 228c-3.272 1.073-5.43.893-8.75.063l-2.422-.59L88 227c3.413-2.176 5.015-2.053 8.75-.625Z"/><path fill="#DDAFED" d="M23 167h3c-.498 3.688-1.1 5.605-4 8l1-8Z"/><path fill="#82659A" d="M239 166c3.688 1.23 4.724 2.939 7 6l-2 3-5-9Z"/><path fill="#DBD8EC" d="m282 164 2 1-1 1 2 2c-3.473 1.158-6.36 1.069-10 1v-1l2.375-.313c2.955-.463 2.955-.463 4.625-3.687Z"/><path fill="#E08CB5" d="M13 154c2 2 2 2 2.125 4.625L15 161l-3-1a99.984 99.984 0 0 1 0-5l1-1Z"/><path fill="#4963C2" d="m107 139 3 1c.813 1.875.813 1.875 1 4l-2 3c-2.152-3.228-2.2-4.284-2-8Z"/><path fill="#D9B7F1" d="m185 128 7 4-4 2v-2l-3-1v-3Z"/><path fill="#BE94C7" d="M45 125h5v2h-2v2l-3 1v-5Z"/><path fill="#F8E3C1" d="m4 109 3 2-6 5c0-4 0-4 1.5-5.75L4 109Z"/><path fill="#BF9F97" d="m8 106 4 1v2l-4 1v2c-2-1-2-1-3-3h3v-3Z"/></svg>