<?xml version="1.0" encoding="UTF-8"?>
<svg version="1.1" xmlns="http://www.w3.org/2000/svg" width="58" height="57">
<path d="M0 0 C3.96 0 7.92 0 12 0 C12 1.98 12 3.96 12 6 C11.01 6 10.02 6 9 6 C9 8.97 9 11.94 9 15 C10.98 15 12.96 15 15 15 C15 14.01 15 13.02 15 12 C18.96 12 22.92 12 27 12 C27 12.99 27 13.98 27 15 C27.99 15 28.98 15 30 15 C30 16.98 30 18.96 30 21 C29.01 21 28.02 21 27 21 C27 21.99 27 22.98 27 24 C27.99 24 28.98 24 30 24 C30 25.98 30 27.96 30 30 C29.01 30 28.02 30 27 30 C27 30.99 27 31.98 27 33 C26.01 33 25.02 33 24 33 C24 34.98 24 36.96 24 39 C23.01 39 22.02 39 21 39 C21 39.99 21 40.98 21 42 C20.01 42 19.02 42 18 42 C18 42.99 18 43.98 18 45 C17.01 45 16.02 45 15 45 C15 46.98 15 48.96 15 51 C6.09 51 -2.82 51 -12 51 C-12 49.02 -12 47.04 -12 45 C-11.01 45 -10.02 45 -9 45 C-9 44.01 -9 43.02 -9 42 C-9.99 42 -10.98 42 -12 42 C-12 41.01 -12 40.02 -12 39 C-12.99 39 -13.98 39 -15 39 C-15 38.01 -15 37.02 -15 36 C-15.99 36 -16.98 36 -18 36 C-18 34.02 -18 32.04 -18 30 C-17.01 30 -16.02 30 -15 30 C-15 28.02 -15 26.04 -15 24 C-14.01 24 -13.02 24 -12 24 C-12 23.01 -12 22.02 -12 21 C-12.99 21 -13.98 21 -15 21 C-15 20.01 -15 19.02 -15 18 C-14.01 18 -13.02 18 -12 18 C-12 17.01 -12 16.02 -12 15 C-11.01 15 -10.02 15 -9 15 C-9 13.02 -9 11.04 -9 9 C-8.01 9 -7.02 9 -6 9 C-6 8.01 -6 7.02 -6 6 C-5.01 6 -4.02 6 -3 6 C-3 5.01 -3 4.02 -3 3 C-2.01 3 -1.02 3 0 3 C0 2.01 0 1.02 0 0 Z " fill="#F5A750" transform="translate(24,2)"/>
<path d="M0 0 C3.96 0 7.92 0 12 0 C12 0.99 12 1.98 12 3 C12.99 3 13.98 3 15 3 C15 4.98 15 6.96 15 9 C14.01 9 13.02 9 12 9 C12 9.99 12 10.98 12 12 C12.99 12 13.98 12 15 12 C15 13.98 15 15.96 15 18 C14.01 18 13.02 18 12 18 C12 18.99 12 19.98 12 21 C11.01 21 10.02 21 9 21 C9 22.98 9 24.96 9 27 C8.01 27 7.02 27 6 27 C6 27.99 6 28.98 6 30 C5.01 30 4.02 30 3 30 C3 30.99 3 31.98 3 33 C2.01 33 1.02 33 0 33 C0 34.98 0 36.96 0 39 C-8.91 39 -17.82 39 -27 39 C-27 37.02 -27 35.04 -27 33 C-26.01 33 -25.02 33 -24 33 C-24 33.99 -24 34.98 -24 36 C-21.03 36 -18.06 36 -15 36 C-15 35.01 -15 34.02 -15 33 C-14.01 33 -13.02 33 -12 33 C-12 33.99 -12 34.98 -12 36 C-9.03 36 -6.06 36 -3 36 C-3 35.01 -3 34.02 -3 33 C-4.98 33 -6.96 33 -9 33 C-9 32.01 -9 31.02 -9 30 C-7.02 30 -5.04 30 -3 30 C-3 29.01 -3 28.02 -3 27 C-1.02 27 0.96 27 3 27 C3 26.01 3 25.02 3 24 C3.99 24 4.98 24 6 24 C6 23.01 6 22.02 6 21 C2.04 21 -1.92 21 -6 21 C-6 20.01 -6 19.02 -6 18 C-6.99 18 -7.98 18 -9 18 C-9 17.01 -9 16.02 -9 15 C-9.99 15 -10.98 15 -12 15 C-12 14.01 -12 13.02 -12 12 C-10.02 12 -8.04 12 -6 12 C-6 9.03 -6 6.06 -6 3 C-4.02 3 -2.04 3 0 3 C0 2.01 0 1.02 0 0 Z " fill="#EA9B49" transform="translate(39,14)"/>
<path d="M0 0 C3.96 0 7.92 0 12 0 C12 1.98 12 3.96 12 6 C11.01 6 10.02 6 9 6 C9 7.98 9 9.96 9 12 C8.01 12 7.02 12 6 12 C6 14.97 6 17.94 6 21 C5.01 21 4.02 21 3 21 C3 18.03 3 15.06 3 12 C2.01 12 1.02 12 0 12 C0 11.01 0 10.02 0 9 C-0.99 9 -1.98 9 -3 9 C-3 11.97 -3 14.94 -3 18 C-5.97 18 -8.94 18 -12 18 C-12 17.01 -12 16.02 -12 15 C-11.01 15 -10.02 15 -9 15 C-9 13.02 -9 11.04 -9 9 C-8.01 9 -7.02 9 -6 9 C-6 8.01 -6 7.02 -6 6 C-5.01 6 -4.02 6 -3 6 C-3 5.01 -3 4.02 -3 3 C-2.01 3 -1.02 3 0 3 C0 2.01 0 1.02 0 0 Z " fill="#CB522D" transform="translate(24,2)"/>
<path d="M0 0 C1.98 0 3.96 0 6 0 C6 1.98 6 3.96 6 6 C5.01 6 4.02 6 3 6 C3 6.99 3 7.98 3 9 C3.99 9 4.98 9 6 9 C6 9.99 6 10.98 6 12 C5.01 12 4.02 12 3 12 C3 13.98 3 15.96 3 18 C4.98 18 6.96 18 9 18 C9 19.98 9 21.96 9 24 C7.02 24 5.04 24 3 24 C3 23.01 3 22.02 3 21 C2.01 21 1.02 21 0 21 C0 20.01 0 19.02 0 18 C-0.99 18 -1.98 18 -3 18 C-3 17.01 -3 16.02 -3 15 C-3.99 15 -4.98 15 -6 15 C-6 13.02 -6 11.04 -6 9 C-5.01 9 -4.02 9 -3 9 C-3 7.02 -3 5.04 -3 3 C-2.01 3 -1.02 3 0 3 C0 2.01 0 1.02 0 0 Z " fill="#AF5F28" transform="translate(12,23)"/>
<path d="M0 0 C3.96 0 7.92 0 12 0 C12 0.99 12 1.98 12 3 C11.01 3 10.02 3 9 3 C9 4.98 9 6.96 9 9 C0.09 9 -8.82 9 -18 9 C-18 7.02 -18 5.04 -18 3 C-17.01 3 -16.02 3 -15 3 C-15 3.99 -15 4.98 -15 6 C-12.03 6 -9.06 6 -6 6 C-6 5.01 -6 4.02 -6 3 C-5.01 3 -4.02 3 -3 3 C-3 3.99 -3 4.98 -3 6 C-0.03 6 2.94 6 6 6 C6 5.01 6 4.02 6 3 C4.02 3 2.04 3 0 3 C0 2.01 0 1.02 0 0 Z " fill="#512119" transform="translate(30,44)"/>
<path d="M0 0 C0.99 0 1.98 0 3 0 C3 0.99 3 1.98 3 3 C3.99 3 4.98 3 6 3 C6 3.99 6 4.98 6 6 C7.98 6 9.96 6 12 6 C12 6.99 12 7.98 12 9 C9.03 9 6.06 9 3 9 C3 8.01 3 7.02 3 6 C2.01 6 1.02 6 0 6 C0 6.99 0 7.98 0 9 C-2.97 9 -5.94 9 -9 9 C-9 8.01 -9 7.02 -9 6 C-7.02 6 -5.04 6 -3 6 C-3 5.01 -3 4.02 -3 3 C-2.01 3 -1.02 3 0 3 C0 2.01 0 1.02 0 0 Z " fill="#A14E26" transform="translate(24,41)"/>
<path d="M0 0 C0.99 0 1.98 0 3 0 C3 1.98 3 3.96 3 6 C2.01 6 1.02 6 0 6 C0 6.99 0 7.98 0 9 C0.99 9 1.98 9 3 9 C3 10.98 3 12.96 3 15 C2.01 15 1.02 15 0 15 C0 15.99 0 16.98 0 18 C-0.99 18 -1.98 18 -3 18 C-3 14.04 -3 10.08 -3 6 C-3.99 6 -4.98 6 -6 6 C-6 5.01 -6 4.02 -6 3 C-4.02 3 -2.04 3 0 3 C0 2.01 0 1.02 0 0 Z " fill="#974F24" transform="translate(51,17)"/>
<path d="M0 0 C1.98 0 3.96 0 6 0 C6 0.99 6 1.98 6 3 C6.99 3 7.98 3 9 3 C9 3.99 9 4.98 9 6 C10.98 6 12.96 6 15 6 C15 5.01 15 4.02 15 3 C15.99 3 16.98 3 18 3 C18 4.98 18 6.96 18 9 C14.04 9 10.08 9 6 9 C6 8.01 6 7.02 6 6 C5.01 6 4.02 6 3 6 C3 5.01 3 4.02 3 3 C2.01 3 1.02 3 0 3 C0 2.01 0 1.02 0 0 Z " fill="#A55826" transform="translate(27,26)"/>
<path d="M0 0 C1.98 0 3.96 0 6 0 C6 0.99 6 1.98 6 3 C7.98 3 9.96 3 12 3 C12 4.98 12 6.96 12 9 C10.02 9 8.04 9 6 9 C6 8.01 6 7.02 6 6 C5.01 6 4.02 6 3 6 C3 5.01 3 4.02 3 3 C2.01 3 1.02 3 0 3 C0 2.01 0 1.02 0 0 Z " fill="#7C3720" transform="translate(9,38)"/>
<path d="M0 0 C0.99 0 1.98 0 3 0 C3 1.98 3 3.96 3 6 C2.01 6 1.02 6 0 6 C0 6.99 0 7.98 0 9 C-2.97 9 -5.94 9 -9 9 C-9 8.01 -9 7.02 -9 6 C-7.02 6 -5.04 6 -3 6 C-3 5.01 -3 4.02 -3 3 C-2.01 3 -1.02 3 0 3 C0 2.01 0 1.02 0 0 Z " fill="#A14E26" transform="translate(45,35)"/>
<path d="M0 0 C4.95 0 9.9 0 15 0 C15 0.99 15 1.98 15 3 C14.01 3 13.02 3 12 3 C12 3.99 12 4.98 12 6 C11.01 6 10.02 6 9 6 C9 5.01 9 4.02 9 3 C6.03 3 3.06 3 0 3 C0 2.01 0 1.02 0 0 Z " fill="#CA9635" transform="translate(9,20)"/>
<path d="M0 0 C3.96 0 7.92 0 12 0 C12 1.98 12 3.96 12 6 C11.01 6 10.02 6 9 6 C9 5.01 9 4.02 9 3 C6.03 3 3.06 3 0 3 C0 2.01 0 1.02 0 0 Z " fill="#512119" transform="translate(24,2)"/>
<path d="M0 0 C3.96 0 7.92 0 12 0 C12 0.99 12 1.98 12 3 C8.04 3 4.08 3 0 3 C0 2.01 0 1.02 0 0 Z " fill="#5F261B" transform="translate(30,44)"/>
<path d="M0 0 C0.99 0 1.98 0 3 0 C3 1.98 3 3.96 3 6 C0.03 6 -2.94 6 -6 6 C-6 5.01 -6 4.02 -6 3 C-4.02 3 -2.04 3 0 3 C0 2.01 0 1.02 0 0 Z " fill="#854321" transform="translate(42,29)"/>
<path d="M0 0 C3.96 0 7.92 0 12 0 C12 0.99 12 1.98 12 3 C8.04 3 4.08 3 0 3 C0 2.01 0 1.02 0 0 Z " fill="#512119" transform="translate(39,14)"/>
<path d="M0 0 C2.97 0 5.94 0 9 0 C9 0.99 9 1.98 9 3 C6.03 3 3.06 3 0 3 C0 2.01 0 1.02 0 0 Z " fill="#FDDE46" transform="translate(27,47)"/>
<path d="M0 0 C2.97 0 5.94 0 9 0 C9 0.99 9 1.98 9 3 C6.03 3 3.06 3 0 3 C0 2.01 0 1.02 0 0 Z " fill="#FDDE46" transform="translate(15,47)"/>
<path d="M0 0 C1.98 0 3.96 0 6 0 C6 0.99 6 1.98 6 3 C5.01 3 4.02 3 3 3 C3 3.99 3 4.98 3 6 C2.01 6 1.02 6 0 6 C0 4.02 0 2.04 0 0 Z " fill="#CF7D37" transform="translate(15,35)"/>
<path d="M0 0 C1.98 0 3.96 0 6 0 C6 0.99 6 1.98 6 3 C5.01 3 4.02 3 3 3 C3 3.99 3 4.98 3 6 C2.01 6 1.02 6 0 6 C0 4.02 0 2.04 0 0 Z " fill="#512119" transform="translate(33,17)"/>
<path d="M0 0 C0.99 0 1.98 0 3 0 C3 2.97 3 5.94 3 9 C2.01 9 1.02 9 0 9 C0 6.03 0 3.06 0 0 Z " fill="#512119" transform="translate(27,14)"/>
<path d="M0 0 C1.98 0 3.96 0 6 0 C6 1.98 6 3.96 6 6 C5.01 6 4.02 6 3 6 C3 5.01 3 4.02 3 3 C2.01 3 1.02 3 0 3 C0 2.01 0 1.02 0 0 Z " fill="#512119" transform="translate(27,8)"/>
<path d="M0 0 C0.99 0 1.98 0 3 0 C3 1.98 3 3.96 3 6 C1.02 6 -0.96 6 -3 6 C-3 5.01 -3 4.02 -3 3 C-2.01 3 -1.02 3 0 3 C0 2.01 0 1.02 0 0 Z " fill="#7B2620" transform="translate(21,5)"/>
<path d="M0 0 C1.98 0 3.96 0 6 0 C6 0.99 6 1.98 6 3 C4.02 3 2.04 3 0 3 C0 2.01 0 1.02 0 0 Z " fill="#512119" transform="translate(15,44)"/>
<path d="M0 0 C1.98 0 3.96 0 6 0 C6 0.99 6 1.98 6 3 C4.02 3 2.04 3 0 3 C0 2.01 0 1.02 0 0 Z " fill="#BA662A" transform="translate(36,41)"/>
<path d="M0 0 C0.99 0 1.98 0 3 0 C3 1.98 3 3.96 3 6 C2.01 6 1.02 6 0 6 C0 4.02 0 2.04 0 0 Z " fill="#6D2B1E" transform="translate(45,35)"/>
<path d="M0 0 C1.98 0 3.96 0 6 0 C6 0.99 6 1.98 6 3 C4.02 3 2.04 3 0 3 C0 2.01 0 1.02 0 0 Z " fill="#512119" transform="translate(36,32)"/>
<path d="M0 0 C0.99 0 1.98 0 3 0 C3 1.98 3 3.96 3 6 C2.01 6 1.02 6 0 6 C0 4.02 0 2.04 0 0 Z " fill="#512119" transform="translate(6,32)"/>
<path d="M0 0 C0.99 0 1.98 0 3 0 C3 1.98 3 3.96 3 6 C2.01 6 1.02 6 0 6 C0 4.02 0 2.04 0 0 Z " fill="#512119" transform="translate(51,26)"/>
<path d="M0 0 C1.98 0 3.96 0 6 0 C6 0.99 6 1.98 6 3 C4.02 3 2.04 3 0 3 C0 2.01 0 1.02 0 0 Z " fill="#6D2B1E" transform="translate(12,23)"/>
<path d="M0 0 C0.99 0 1.98 0 3 0 C3 1.98 3 3.96 3 6 C2.01 6 1.02 6 0 6 C0 4.02 0 2.04 0 0 Z " fill="#512119" transform="translate(51,17)"/>
<path d="M0 0 C0.99 0 1.98 0 3 0 C3 1.98 3 3.96 3 6 C2.01 6 1.02 6 0 6 C0 4.02 0 2.04 0 0 Z " fill="#BA662A" transform="translate(30,14)"/>
<path d="M0 0 C0.99 0 1.98 0 3 0 C3 1.98 3 3.96 3 6 C2.01 6 1.02 6 0 6 C0 4.02 0 2.04 0 0 Z " fill="#512119" transform="translate(18,14)"/>
<path d="M0 0 C1.98 0 3.96 0 6 0 C6 0.99 6 1.98 6 3 C4.02 3 2.04 3 0 3 C0 2.01 0 1.02 0 0 Z " fill="#BA662A" transform="translate(24,11)"/>
<path d="M0 0 C1.98 0 3.96 0 6 0 C6 0.99 6 1.98 6 3 C4.02 3 2.04 3 0 3 C0 2.01 0 1.02 0 0 Z " fill="#854321" transform="translate(15,11)"/>
</svg>
