<?xml version="1.0" encoding="UTF-8"?>
<svg version="1.1" xmlns="http://www.w3.org/2000/svg" width="225" height="225">
<path d="M0 0 C74.25 0 148.5 0 225 0 C225 74.25 225 148.5 225 225 C150.75 225 76.5 225 0 225 C0 150.75 0 76.5 0 0 Z " fill="#000000" transform="translate(0,0)"/>
<path d="M0 0 C74.25 0 148.5 0 225 0 C225 74.25 225 148.5 225 225 C150.75 225 76.5 225 0 225 C0 150.75 0 76.5 0 0 Z M8.60546875 17.77734375 C3.83277781 24.38479179 0.88079449 31.10082649 0.85955811 39.25379944 C0.85384796 40.56449402 0.84813782 41.8751886 0.84225464 43.2256012 C0.84100926 44.68173208 0.83988417 46.13786308 0.83886719 47.59399414 C0.83423858 49.12499104 0.82921386 50.65598679 0.82382202 52.1869812 C0.81069562 56.35056491 0.804252 60.51413249 0.79981136 64.67773366 C0.79687957 67.2810985 0.79277444 69.88445895 0.78830719 72.48782158 C0.77462842 80.63889834 0.76496498 88.78996505 0.7611053 96.9410525 C0.7566307 106.33862008 0.73911225 115.73604177 0.7101047 125.13356501 C0.68844727 132.40336371 0.67839877 139.6731215 0.67706418 146.9429521 C0.67601858 151.28157022 0.67016376 155.62005128 0.65224457 159.95863533 C0.6356947 164.04542157 0.6336417 168.13196877 0.64238358 172.2187767 C0.6431504 173.71265112 0.63885832 175.20653874 0.62892532 176.70038033 C0.53869716 191.12496426 3.19661589 202.84867561 13.1875 213.75 C20.81404464 220.91793282 29.25093438 224.10896918 39.56350708 224.14717102 C40.20930281 224.15084771 40.85509853 224.1545244 41.52046382 224.1583125 C43.67657392 224.16929337 45.83263573 224.17318362 47.98876953 224.17700195 C49.53814342 224.1832709 51.08751582 224.18991809 52.6368866 224.19691467 C57.71885134 224.21790856 62.80081623 224.22831364 67.8828125 224.23828125 C69.63620901 224.24233074 71.38960536 224.24644772 73.14300156 224.25063133 C81.3832381 224.26967383 89.62346575 224.28390606 97.86372006 224.2922433 C107.35695032 224.30200835 116.84994696 224.32831264 126.34309494 224.36874419 C133.69277803 224.39896601 141.04239438 224.41371797 148.39213836 224.41702431 C152.77607917 224.41936812 157.15977013 224.42824086 161.54364395 224.45348549 C165.67236797 224.47687735 169.80067961 224.48095519 173.9294529 224.47072411 C175.43742945 224.4702313 176.94542708 224.47647569 178.45334053 224.49028015 C191.01425334 224.59875594 201.50777165 222.72802352 211 214 C217.91918649 207.16588548 223.45500917 198.77241434 224.25447559 188.83771896 C224.2575549 187.1288394 224.2575549 187.1288394 224.26069641 185.38543701 C224.26778122 184.07061844 224.27486603 182.75579987 224.28216553 181.40113831 C224.27987198 179.95590175 224.27736231 178.51066553 224.2746582 177.06542969 C224.27900843 175.53398897 224.28419262 174.00255043 224.29014587 172.47111511 C224.30351663 168.32008031 224.30411648 164.16913666 224.30158257 160.01808453 C224.30051113 156.54671508 224.30540089 153.07536394 224.310188 149.60399842 C224.32127745 141.40899928 224.32172435 133.21404598 224.31567383 125.01904297 C224.30963961 116.58142655 224.32193227 108.14397712 224.3432439 99.70638919 C224.360896 92.44926099 224.36685541 85.19218576 224.36360615 77.9350369 C224.36179822 73.60653471 224.36437995 69.27815153 224.37832069 64.94966888 C224.39095256 60.87513948 224.38890464 56.80086887 224.37590981 52.72634315 C224.37355574 51.2373095 224.37623641 49.74825733 224.38453293 48.25924492 C224.45996695 33.65907998 221.79365206 23.2271411 211.8125 12.3125 C204.07577839 4.93602485 194.01222787 0.77008294 183.36129761 0.72584534 C182.06626816 0.71587021 180.77123871 0.70589508 179.43696594 0.69561768 C178.01901258 0.69472205 176.60105905 0.69405839 175.18310547 0.69360352 C173.67608737 0.68597416 172.16907314 0.67754534 170.6620636 0.66838074 C166.58114926 0.64650089 162.50030983 0.63764523 158.41934347 0.63255429 C155.86416974 0.62890194 153.30901535 0.62265723 150.75384903 0.6155529 C141.82352087 0.59107763 132.8932506 0.5780114 123.96289062 0.57446289 C115.66552195 0.57083272 107.36852432 0.54096974 99.07126892 0.49905831 C91.92702194 0.46424856 84.78289725 0.44891258 77.63856614 0.44821686 C73.38085594 0.44742745 69.1235238 0.43884532 64.86590195 0.41021919 C60.85524504 0.38385557 56.84527466 0.38193382 52.83456993 0.39787483 C51.37258201 0.39967512 49.91055294 0.39312881 48.44865227 0.37705612 C32.08547636 0.20829791 19.19006017 5.20662762 8.60546875 17.77734375 Z " fill="#E8E8E8" transform="translate(0,0)"/>
<path d="M0 0 C0.97775391 -0.03738281 1.95550781 -0.07476562 2.96289062 -0.11328125 C9.75914947 -0.19521873 14.20442526 0.94040853 19.4375 5.375 C22.48944345 8.7321378 23.69231924 11.29077493 23.9375 15.75 C23.69249857 20.59286166 22.31029239 24.46481036 19.4375 28.375 C12.5450046 34.06880055 7.42017646 34.375 -1.5625 34.375 C-1.5625 40.645 -1.5625 46.915 -1.5625 53.375 C-4.8625 53.375 -8.1625 53.375 -11.5625 53.375 C-11.58714071 45.98771409 -11.6053316 38.60045188 -11.61743164 31.21313477 C-11.62247363 28.69783105 -11.62930703 26.18253028 -11.63793945 23.66723633 C-11.65001094 20.06070225 -11.65572949 16.45420677 -11.66015625 12.84765625 C-11.66531754 11.71538101 -11.67047882 10.58310577 -11.67579651 9.41651917 C-11.67587204 8.37551559 -11.67594757 7.33451202 -11.67602539 6.26196289 C-11.678246 5.34040909 -11.68046661 4.41885529 -11.68275452 3.46937561 C-11.38166201 -1.77450902 -4.00293834 0.0564879 0 0 Z " fill="#F0F0F0" transform="translate(54.5625,85.625)"/>
<path d="M0 0 C0.97775391 -0.03738281 1.95550781 -0.07476562 2.96289062 -0.11328125 C9.77883538 -0.19545607 14.16496039 0.97412688 19.4375 5.375 C22.49873654 8.62756382 22.66062353 11.49570329 22.8125 15.8125 C22.60874357 22.13743914 21.20641786 25.60608214 16.6875 30.125 C10.13522135 34.66119291 5.56793445 34.375 -2.5625 34.375 C-2.5625 40.645 -2.5625 46.915 -2.5625 53.375 C-5.5325 53.375 -8.5025 53.375 -11.5625 53.375 C-11.58776692 45.98771898 -11.6053316 38.60044902 -11.61743164 31.21313477 C-11.62247363 28.69783105 -11.62930703 26.18253028 -11.63793945 23.66723633 C-11.65001094 20.06070225 -11.65572949 16.45420677 -11.66015625 12.84765625 C-11.66531754 11.71538101 -11.67047882 10.58310577 -11.67579651 9.41651917 C-11.67587204 8.37551559 -11.67594757 7.33451202 -11.67602539 6.26196289 C-11.678246 5.34040909 -11.68046661 4.41885529 -11.68275452 3.46937561 C-11.38166201 -1.77450902 -4.00293834 0.0564879 0 0 Z " fill="#F5F5F5" transform="translate(158.5625,85.625)"/>
<path d="M0 0 C2.97 0 5.94 0 9 0 C9 8.25 9 16.5 9 25 C17.25 25 25.5 25 34 25 C34 16.75 34 8.5 34 0 C36.97 0 39.94 0 43 0 C43 17.16 43 34.32 43 52 C40.03 52 37.06 52 34 52 C34 46.39 34 40.78 34 35 C25.75 35 17.5 35 9 35 C9 40.61 9 46.22 9 52 C6.03 52 3.06 52 0 52 C0 34.84 0 17.68 0 0 Z " fill="#F4F4F4" transform="translate(87,87)"/>
<path d="M0 0 C0.33 0 0.66 0 1 0 C1.00238835 0.73291952 1.00477671 1.46583904 1.00723743 2.22096825 C1.06646345 20.08330138 1.14206203 37.94549723 1.23571491 55.80768394 C1.2806137 64.44583285 1.32004192 73.08394107 1.34643555 81.72216797 C1.36946365 89.25431252 1.40291517 96.78632768 1.44870156 104.31836951 C1.47256911 108.30376114 1.49134013 112.28902515 1.49761391 116.27448654 C1.50369422 120.03217862 1.52379921 123.78954442 1.55427551 127.54711533 C1.56714667 129.57049504 1.56549389 131.59395117 1.5632782 133.61737061 C1.69102514 146.10240218 4.41050214 156.92239119 13.109375 166.265625 C21.19222988 173.79104162 28.50537408 177.09635301 39.56159973 177.15821838 C40.20698958 177.16315636 40.85237942 177.16809434 41.51732653 177.17318195 C43.67146065 177.18849225 45.82556511 177.19689992 47.97973633 177.20532227 C49.52725483 177.21490588 51.07477074 177.22491625 52.62228394 177.23532104 C56.81811843 177.26232376 61.01396411 177.28335838 65.2098372 177.30332303 C69.5967552 177.32521119 73.98363888 177.35258603 78.37052917 177.37937927 C86.6753882 177.4292679 94.98026631 177.47422093 103.28516263 177.51740164 C112.74098589 177.56680676 122.19677471 177.62171274 131.65256464 177.67708123 C151.10167777 177.79084248 170.55082341 177.89769425 190 178 C190 178.33 190 178.66 190 179 C127.3 179 64.6 179 0 179 C0 119.93 0 60.86 0 0 Z " fill="#D6D6D6" transform="translate(0,46)"/>
<path d="M0 0 C25.41 0 50.82 0 77 0 C77 0.33 77 0.66 77 1 C75.79577393 1.00410889 74.59154785 1.00821777 73.35083008 1.01245117 C68.82339409 1.03445215 64.29680158 1.08895424 59.76977539 1.15258789 C57.82161631 1.17558688 55.87333608 1.19012048 53.92504883 1.19555664 C37.70883166 1.24968009 24.53623237 2.81497538 12.359375 14.5859375 C5.81129907 21.63007979 2.09747893 30.16494681 1.4375 39.6875 C1.35371094 40.86699219 1.26992188 42.04648437 1.18359375 43.26171875 C1.12300781 44.16535156 1.06242188 45.06898437 1 46 C0.67 46 0.34 46 0 46 C0 30.82 0 15.64 0 0 Z " fill="#FBFBFB" transform="translate(0,0)"/>
<path d="M0 0 C0.33 0 0.66 0 1 0 C1 13.86 1 27.72 1 42 C-10.55 42 -22.1 42 -34 42 C-31.65885618 39.65885618 -30.00982043 39.2454583 -26.875 38.25 C-17.02533791 34.7607733 -9.56811036 28.23716153 -4.75 18.9375 C-1.84903596 12.65408412 -0.57954157 6.86299223 0 0 Z " fill="#FAFAFA" transform="translate(224,183)"/>
<path d="M0 0 C10.19230769 0 10.19230769 0 14 3 C16 5 16 5 16.375 8.8125 C16.29323167 12.0248274 15.96945841 13.05126624 14.25 15.9375 C9.65889397 20.14601386 6.62497145 19 0 19 C0 12.73 0 6.46 0 0 Z " fill="#040404" transform="translate(156,93)"/>
<path d="M0 0 C10.08839779 -0.60773481 10.08839779 -0.60773481 14.1875 2.125 C16.33038619 5.52406085 16.65741915 7.05548508 16 11 C14.11574484 15.14536134 13.22439597 15.88780202 9 18 C6.03 18 3.06 18 0 18 C0 12.06 0 6.12 0 0 Z " fill="#040404" transform="translate(53,94)"/>
</svg>
