<?xml version="1.0" encoding="UTF-8"?>
<svg version="1.1" xmlns="http://www.w3.org/2000/svg" width="224" height="224">
<path d="M0 0 C73.92 0 147.84 0 224 0 C224 73.92 224 147.84 224 224 C150.08 224 76.16 224 0 224 C0 150.08 0 76.16 0 0 Z " fill="#FDFDFD" transform="translate(0,0)"/>
<path d="M0 0 C1.13598633 -0.00161133 2.27197266 -0.00322266 3.44238281 -0.00488281 C15.84596972 0.15760959 29.17380942 1.37395481 38.45703125 10.55859375 C47.14147339 21.40043415 48.60963446 32.02180343 48.56567383 45.58447266 C48.56252698 47.60765214 48.58599761 49.62934534 48.61132812 51.65234375 C48.61796061 65.19586865 47.09071246 77.00053012 37.5859375 87.15234375 C33.61608579 90.85935139 29.46346398 92.89048822 24.25 94.375 C23.40695313 94.6534375 22.56390625 94.931875 21.6953125 95.21875 C5.46543497 99.86815789 -15.28174838 99.72506806 -30.48046875 91.984375 C-38.34031069 87.11204231 -44.03898578 80.08019999 -46.41015625 71.05859375 C-48.00692411 64.23186287 -48.23970197 57.48967784 -48.19604492 50.51196289 C-48.18752065 48.44251207 -48.21643948 46.3758222 -48.24804688 44.30664062 C-48.31305612 32.10333488 -46.22207342 19.74269261 -37.75 10.375 C-37.09 10.375 -36.43 10.375 -35.75 10.375 C-35.75 9.715 -35.75 9.055 -35.75 8.375 C-24.80538219 0.90062686 -12.87919275 0.01751318 0 0 Z " fill="#020202" transform="translate(111.75,31.625)"/>
<path d="M0 0 C2.5 1.25 2.5 1.25 4 3 C4 4.32 4 5.64 4 7 C4.66 7 5.32 7 6 7 C6 10.96 6 14.92 6 19 C5.34 19 4.68 19 4 19 C3.9175 19.928125 3.835 20.85625 3.75 21.8125 C3 25 3 25 1.5 26.875 C-2.25042848 28.56269282 -5.94570732 28.40699463 -10 28 C-10.66 27.67 -11.32 27.34 -12 27 C-11.67 29.31 -11.34 31.62 -11 34 C-10.01 34.33 -9.02 34.66 -8 35 C-8 36.32 -8 37.64 -8 39 C-12.29 39 -16.58 39 -21 39 C-21 37.68 -21 36.36 -21 35 C-20.01 35 -19.02 35 -18 35 C-18 25.1 -18 15.2 -18 5 C-18.99 5 -19.98 5 -21 5 C-21 3.68 -21 2.36 -21 1 C-18.36 1 -15.72 1 -13 1 C-13 1.66 -13 2.32 -13 3 C-12.34 2.505 -11.68 2.01 -11 1.5 C-6.91090338 -0.54454831 -4.55668737 -0.43397023 0 0 Z " fill="#0C0C0C" transform="translate(89,153)"/>
<path d="M0 0 C3.98841693 3.41864309 5.06995424 6.64076948 5.5625 11.8125 C5.32795641 17.1458173 3.57668818 21.23323215 0.125 25.3125 C-4.16687224 27.59541077 -8.05551446 27.79823075 -12.8125 26.875 C-16.356133 24.14344957 -19.48268292 21.02401868 -20.18359375 16.45703125 C-20.32894579 10.39499596 -19.6582303 6.41946866 -16.296875 1.3359375 C-12.2598779 -2.63731754 -4.90493487 -1.96197395 0 0 Z " fill="#0B0B0B" transform="translate(198.8125,154.125)"/>
<path d="M0 0 C2.97 0 5.94 0 9 0 C9 4.62 9 9.24 9 14 C10.65 13.01 12.3 12.02 14 11 C17.62208859 10.61872752 19.98122709 10.42713895 23.19042969 12.23168945 C25 14 25 14 25.45410156 16.17651367 C25.4331543 16.99869385 25.41220703 17.82087402 25.390625 18.66796875 C25.37128906 20.00698242 25.37128906 20.00698242 25.3515625 21.37304688 C25.31804687 22.30181641 25.28453125 23.23058594 25.25 24.1875 C25.23195312 25.12787109 25.21390625 26.06824219 25.1953125 27.03710938 C25.1481655 29.35909889 25.08238231 31.6790369 25 34 C26.32 34 27.64 34 29 34 C29 35.65 29 37.3 29 39 C24.71 39 20.42 39 16 39 C16 37.35 16 35.7 16 34 C16.99 34 17.98 34 19 34 C18.67 28.39 18.34 22.78 18 17 C13.41873248 15.52995947 13.41873248 15.52995947 11.23046875 16.95703125 C9.37764556 20.03330595 9.42681654 23.1894139 9.3125 26.6875 C9.27833984 27.38939453 9.24417969 28.09128906 9.20898438 28.81445312 C9.12670053 30.54241387 9.0616676 32.27118072 9 34 C10.32 34 11.64 34 13 34 C13 35.65 13 37.3 13 39 C8.71 39 4.42 39 0 39 C0 37.35 0 35.7 0 34 C0.99 34 1.98 34 3 34 C3 24.1 3 14.2 3 4 C2.01 4 1.02 4 0 4 C0 2.68 0 1.36 0 0 Z " fill="#121212" transform="translate(148,142)"/>
<path d="M0 0 C2.97 0 5.94 0 9 0 C9.06058594 1.27617187 9.12117188 2.55234375 9.18359375 3.8671875 C9.26799568 5.53647016 9.35264386 7.20574037 9.4375 8.875 C9.47681641 9.71675781 9.51613281 10.55851563 9.55664062 11.42578125 C9.61948242 12.63427734 9.61948242 12.63427734 9.68359375 13.8671875 C9.72025146 14.61081543 9.75690918 15.35444336 9.79467773 16.12060547 C9.89955865 18.08864312 9.89955865 18.08864312 11 20 C13.41619823 20.25030977 13.41619823 20.25030977 16 20 C18.42130331 16.36804504 18.21022785 14.61650652 18.125 10.3125 C18.09792969 8.54326172 18.09792969 8.54326172 18.0703125 6.73828125 C18.04710938 5.83464844 18.02390625 4.93101562 18 4 C17.34 3.67 16.68 3.34 16 3 C16 2.01 16 1.02 16 0 C18.97 0 21.94 0 25 0 C25.07468157 4.00178342 25.12885021 8.00329167 25.16479492 12.00561523 C25.17979409 13.36441117 25.20020038 14.72315941 25.22631836 16.08178711 C25.49793702 30.58409302 25.49793702 30.58409302 22 36 C18.8943299 38.44831444 15.79500949 38.24008067 11.9375 38.1875 C10.37322266 38.17783203 10.37322266 38.17783203 8.77734375 38.16796875 C6 38 6 38 3 37 C3 34.36 3 31.72 3 29 C4.65 29 6.3 29 8 29 C8.33 30.32 8.66 31.64 9 33 C12.473489 33.31577173 14.37563521 33.4218681 17.3125 31.4375 C19.46797134 28.32404139 19.7128051 25.73353364 20 22 C19.34 22 18.68 22 18 22 C18 22.66 18 23.32 18 24 C14.58459721 26.10178633 11.97748585 26.56821226 8 26 C5.30197273 23.98047071 3.33597356 22.36231057 2.50561523 18.99536133 C2.28548753 16.71548534 2.20477749 14.47772764 2.1875 12.1875 C2.14979492 11.00510742 2.14979492 11.00510742 2.11132812 9.79882812 C2.05277019 7.86641627 2.02344512 5.93315673 2 4 C1.34 3.67 0.68 3.34 0 3 C0 2.01 0 1.02 0 0 Z " fill="#070707" transform="translate(38,154)"/>
<path d="M0 0 C1.93053862 2.57405149 2.17194429 4.81288534 2.03125 7.99609375 C1.05493762 11.67880147 -1.39845304 12.95297901 -4.5 15 C-7.20879335 16.35439668 -9.50933268 16.06501451 -12.5 16 C-11.84 17.65 -11.18 19.3 -10.5 21 C-6.87 21 -3.24 21 0.5 21 C0.83 22.32 1.16 23.64 1.5 25 C-3.05047591 27.61075691 -7.36494794 27.81675631 -12.5 27 C-15.62177233 25.31712073 -17.89137035 23.2172593 -19.5 20 C-20.53508385 7.71474244 -20.53508385 7.71474244 -17.8125 3.3125 C-12.94265027 -1.55734973 -6.46006115 -2.58402446 0 0 Z " fill="#0C0C0C" transform="translate(118.5,154)"/>
<path d="M0 0 C17.16 0 34.32 0 52 0 C52 2.31 52 4.62 52 7 C34.84 7 17.68 7 0 7 C0 4.69 0 2.38 0 0 Z " fill="#F5F5F5" transform="translate(86,58)"/>
<path d="M0 0 C14.85 0 29.7 0 45 0 C45 2.64 45 5.28 45 8 C30.15 8 15.3 8 0 8 C0 5.36 0 2.72 0 0 Z " fill="#F1F1F1" transform="translate(86,95)"/>
<path d="M0 0 C12.21 0 24.42 0 37 0 C37 2.64 37 5.28 37 8 C24.79 8 12.58 8 0 8 C0 5.36 0 2.72 0 0 Z " fill="#F1F1F1" transform="translate(86,76)"/>
<path d="M0 0 C1.32 0 2.64 0 4 0 C4 1.65 4 3.3 4 5 C6.31 5 8.62 5 11 5 C10.67 6.65 10.34 8.3 10 10 C8.02 10 6.04 10 4 10 C4 15.94 4 21.88 4 28 C6.31 28 8.62 28 11 28 C11.5625 29.9375 11.5625 29.9375 12 32 C10.35034831 33.64965169 8.4523645 33.24949498 6.1875 33.3125 C5.31480469 33.34988281 4.44210938 33.38726562 3.54296875 33.42578125 C1 33 1 33 -1.30859375 31.58984375 C-3.90282643 27.61761219 -3.4278316 23.88046115 -3.25 19.25 C-3.23195313 18.36183594 -3.21390625 17.47367188 -3.1953125 16.55859375 C-3.14827374 14.37129152 -3.08257009 12.18620184 -3 10 C-3.99 10 -4.98 10 -6 10 C-6 8.68 -6 7.36 -6 6 C-5.01 5.67 -4.02 5.34 -3 5 C-2.2884375 3.7315625 -2.2884375 3.7315625 -1.5625 2.4375 C-1.046875 1.633125 -0.53125 0.82875 0 0 Z " fill="#1C1C1C" transform="translate(25,148)"/>
<path d="M0 0 C1.14275391 0.00966797 1.14275391 0.00966797 2.30859375 0.01953125 C4.50187857 0.18298229 6.45120807 0.58633487 8.5625 1.1875 C8.5625 3.8275 8.5625 6.4675 8.5625 9.1875 C7.2425 9.1875 5.9225 9.1875 4.5625 9.1875 C4.2325 7.8675 3.9025 6.5475 3.5625 5.1875 C1.2525 5.1875 -1.0575 5.1875 -3.4375 5.1875 C-4.45982879 8.25448637 -4.6034049 10.47414878 -4.625 13.6875 C-4.63917969 14.6465625 -4.65335938 15.605625 -4.66796875 16.59375 C-4.62505111 19.42496139 -4.62505111 19.42496139 -2.4375 22.1875 C1.27890139 22.45778374 4.019701 22.368433 7.5625 21.1875 C8.2225 22.8375 8.8825 24.4875 9.5625 26.1875 C5.00820091 28.8004504 0.70148567 28.99678908 -4.4375 28.1875 C-8.05910551 26.30049112 -10.12684422 24.11946733 -11.4375 20.1875 C-12.4327125 8.88123336 -12.4327125 8.88123336 -9.625 4.5625 C-6.49875161 1.16828746 -4.54441243 -0.0842977 0 0 Z " fill="#090909" transform="translate(135.4375,152.8125)"/>
<path d="M0 0 C2.4375 0.5625 2.4375 0.5625 4.0703125 2.25390625 C5.73672242 5.06775842 5.80803711 6.81242165 5.75 10.0625 C5.74613281 11.0009375 5.74226562 11.939375 5.73828125 12.90625 C5.42905362 15.63709145 4.99604265 17.3049432 3.4375 19.5625 C0.3125 20.3125 0.3125 20.3125 -2.5625 20.5625 C-6.07415996 16.28266443 -7.22205382 13.25709874 -6.94921875 7.6875 C-6.16681597 3.38823624 -4.27372374 0.93813448 0 0 Z " fill="#EDEDED" transform="translate(191.5625,156.4375)"/>
<path d="M0 0 C2.375 1 2.375 1 3.50390625 2.75 C4.49210061 5.30246615 4.67500556 7.26788276 4.6875 10 C4.70425781 10.845625 4.72101563 11.69125 4.73828125 12.5625 C4.29622036 15.528586 3.48762411 16.88737589 1.375 19 C-2.25 19.3125 -2.25 19.3125 -5.625 19 C-7.55464064 17.07035936 -6.88730473 13.75274242 -6.9375 11.1875 C-6.97488281 9.94355469 -7.01226562 8.69960937 -7.05078125 7.41796875 C-6.625 4 -6.625 4 -4.76953125 1.55078125 C-2.625 0 -2.625 0 0 0 Z " fill="#ECECEC" transform="translate(83.625,157)"/>
<path d="M0 0 C0 1.98 0 3.96 0 6 C-5.625 9 -5.625 9 -9 9 C-9.36337162 5.72965541 -9.28544288 4.39116247 -7.3125 1.6875 C-4.60883753 -0.28544288 -3.27034459 -0.36337162 0 0 Z " fill="#E2E2E2" transform="translate(114,157)"/>
</svg>
