<?xml version="1.0" encoding="UTF-8"?>
<svg version="1.1" xmlns="http://www.w3.org/2000/svg" width="1024" height="1024">
<path d="M0 0 C337.92 0 675.84 0 1024 0 C1024 337.92 1024 675.84 1024 1024 C686.08 1024 348.16 1024 0 1024 C0 686.08 0 348.16 0 0 Z " fill="#FF0000" transform="translate(0,0)"/>
<path d="M0 0 C8.59975622 7.58342139 13.96532804 15.76754253 15.25390625 27.265625 C15.79500438 38.08758758 11.97633921 48.76404399 5 57 C-2.01174862 64.46509443 -10.66949612 69.50041127 -20.98046875 70.203125 C-34.22372626 70.39669271 -42.23180786 66.90428911 -52.62109375 59.0078125 C-63.27714115 50.99688325 -75.49344537 44.85950802 -89 44 C-89.83273437 43.92394531 -90.66546875 43.84789062 -91.5234375 43.76953125 C-101.2244306 43.25529523 -109.33693709 46.50422461 -116.875 52.5625 C-122.96322762 58.47329294 -127.19931883 65.85911104 -127.75 74.4375 C-127.34130748 81.93992702 -124.90102441 89.04401335 -122.7265625 96.1875 C-120.86749408 102.32684713 -119.28874718 108.52371053 -117.75 114.75 C-117.50427246 115.73709961 -117.25854492 116.72419922 -117.00537109 117.74121094 C-115.58836746 123.47758541 -114.25914263 129.22694983 -113 135 C-112.30519531 134.96519531 -111.61039063 134.93039062 -110.89453125 134.89453125 C-66.73202111 133.71910322 -23.06348514 154.27626336 11 181 C11.98871094 181.7734375 12.97742188 182.546875 13.99609375 183.34375 C29.03074149 195.38892496 43.05419102 208.89076382 55 224 C55.65484375 224.78761719 56.3096875 225.57523437 56.984375 226.38671875 C79.33013308 253.42508602 93.87604076 286.08389046 102 320 C102.28037109 321.13501953 102.28037109 321.13501953 102.56640625 322.29296875 C103.12101985 324.5463289 103.65745283 326.80324572 104.1875 329.0625 C104.3424292 329.69679932 104.4973584 330.33109863 104.65698242 330.98461914 C108.0016192 345.81062748 108.32531376 360.95150152 108.26074219 376.07739258 C108.24999867 379.06286861 108.26071989 382.04774487 108.2734375 385.03320312 C108.28596742 400.6864653 106.94100898 415.7044826 103.8125 431.0625 C103.49212769 432.63777466 103.49212769 432.63777466 103.1652832 434.24487305 C99.25868553 452.79740373 93.60346086 470.6384094 86 488 C85.65743164 488.78681152 85.31486328 489.57362305 84.96191406 490.38427734 C71.35408673 521.25870011 51.32512513 548.75656286 28 573 C27.50113281 573.52078125 27.00226562 574.0415625 26.48828125 574.578125 C19.71979422 581.60760767 12.66574977 587.94436148 5 594 C3.85620561 594.94305227 2.71437852 595.88849416 1.57421875 596.8359375 C-36.18714042 628.01030717 -84.80653405 649.04636305 -133 657 C-133.91265625 657.1556543 -134.8253125 657.31130859 -135.765625 657.47167969 C-169.73843224 663.2164469 -204.71830768 665.70646962 -239 661 C-239.78117187 660.89816406 -240.56234375 660.79632812 -241.3671875 660.69140625 C-295.24441075 653.53721759 -347.72363897 630.0985109 -389.45068359 595.2890625 C-391.00198246 593.99835055 -392.57195656 592.73340458 -394.14453125 591.46875 C-402.14433763 584.92563553 -409.49109465 577.71868829 -416.8125 570.4375 C-417.30064178 569.95462524 -417.78878357 569.47175049 -418.29171753 568.97424316 C-424.99243839 562.32950147 -431.11564208 555.37777359 -437 548 C-437.88657431 546.9487783 -438.77841809 545.90193159 -439.6796875 544.86328125 C-451.02995254 531.67516191 -460.18018895 516.95702419 -469 502 C-469.4213623 501.29182129 -469.84272461 500.58364258 -470.27685547 499.85400391 C-481.30801806 481.19018996 -489.39696054 461.38782383 -496.4375 440.9375 C-496.81452057 439.84829758 -496.81452057 439.84829758 -497.19915771 438.73709106 C-502.51518194 423.29402537 -506.26092183 407.8839306 -508.81030273 391.75390625 C-509.18859513 389.36809326 -509.58088964 386.9848728 -509.97460938 384.6015625 C-523.79261827 299.64263438 -501.69123096 210.73341311 -451.828125 140.9609375 C-441.41285971 126.85851624 -430.17220224 113.60783131 -418 101 C-417.50226074 100.48034668 -417.00452148 99.96069336 -416.49169922 99.42529297 C-410.90000209 93.60497449 -405.10891742 88.25862754 -398.79296875 83.234375 C-395.93157661 80.94526129 -393.15759843 78.57149975 -390.375 76.1875 C-365.92989693 55.8531909 -324.31195448 24.28651737 -291.125 24.75 C-290.42101074 24.75676758 -289.71702148 24.76353516 -288.99169922 24.77050781 C-283.7343618 24.87480563 -278.98917145 25.35882518 -274 27 C-273.16984375 27.25652344 -272.3396875 27.51304687 -271.484375 27.77734375 C-261.20510518 31.36277768 -256.90814274 37.50691401 -252.2199707 47.02490234 C-247.88231417 56.18597223 -247.64108756 65.94925296 -250.96875 75.5625 C-257.38800011 90.73527298 -268.05796275 97.12404832 -282.59277344 103.43017578 C-303.65588358 112.57506767 -323.14938857 123.43279119 -341 138 C-341.99515625 138.79148437 -342.9903125 139.58296875 -344.015625 140.3984375 C-358.98690274 152.5063043 -372.69478784 166.41133302 -384 182 C-384.85491814 183.14884745 -385.71039429 184.29727984 -386.56640625 185.4453125 C-392.61012552 193.63905764 -397.94530712 202.16771216 -403 211 C-403.65613281 212.12277344 -404.31226563 213.24554688 -404.98828125 214.40234375 C-414.20433193 230.82131982 -420.95974082 248.88231161 -426 267 C-426.51626953 268.75376953 -426.51626953 268.75376953 -427.04296875 270.54296875 C-428.17903269 274.67371463 -429.13659991 278.80490123 -430 283 C-430.18481934 283.88913086 -430.36963867 284.77826172 -430.56005859 285.69433594 C-438.72998559 327.10431306 -436.38332023 373.18945031 -422 413 C-421.66597168 413.9472998 -421.33194336 414.89459961 -420.98779297 415.87060547 C-409.05339556 449.54783215 -392.35251493 479.11740552 -368.1875 505.58984375 C-366.06733383 507.92581254 -364.0030269 510.30326875 -361.9375 512.6875 C-358.23524971 516.84708709 -354.25856352 520.42455076 -350 524 C-349.10023438 524.79921875 -348.20046875 525.5984375 -347.2734375 526.421875 C-315.00398824 554.88381245 -276.07936467 572.23909372 -234 580 C-233.14841309 580.17063965 -232.29682617 580.3412793 -231.41943359 580.51708984 C-221.9782431 582.22059254 -212.67814676 582.30508596 -203.11865234 582.26074219 C-200.40048488 582.25009978 -197.68299021 582.26065085 -194.96484375 582.2734375 C-179.61889619 582.28647362 -164.43348128 581.20663405 -149.375 578.125 C-148.49859863 577.9492041 -147.62219727 577.7734082 -146.71923828 577.59228516 C-144.95894576 577.23511045 -143.19961639 576.87314762 -141.44140625 576.50585938 C-139.24555789 576.05087959 -137.04624485 575.62437887 -134.84375 575.203125 C-103.63628921 568.89417383 -72.76418417 553.93380759 -48 534 C-46.9790625 533.18273437 -45.958125 532.36546875 -44.90625 531.5234375 C-4.52940908 498.5943327 22.66185792 451.37448611 28.5546875 399.39453125 C30.4428122 379.40474783 29.36199087 359.57421328 25 340 C24.80744629 339.1327832 24.61489258 338.26556641 24.41650391 337.37207031 C19.27898675 314.94210818 9.81312045 294.41749394 -4 276 C-5.00933594 274.65421875 -5.00933594 274.65421875 -6.0390625 273.28125 C-27.96362469 245.36233185 -57.67682163 224.11643783 -92 215 C-85.72458448 239.36128596 -85.72458448 239.36128596 -79.15625 263.64453125 C-75.43556667 277.04269167 -71.77878955 290.44066845 -68.50048828 303.95458984 C-67.99164534 306.03414407 -67.46513821 308.10873841 -66.9375 310.18359375 C-59.00281343 342.48438034 -66.13546289 375.580738 -82.74462891 403.94921875 C-88.14441189 412.77033447 -94.92612401 420.49120216 -102 428 C-102.59941406 428.66386719 -103.19882812 429.32773437 -103.81640625 430.01171875 C-126.62589671 454.29914595 -160.68460009 466.40689159 -193.37207031 467.45141602 C-229.55416819 467.98162496 -260.21218339 453.92393142 -286.4375 429.56640625 C-307.61453183 408.35709236 -319.78738063 380.97416379 -326 352 C-326.18691406 351.18192871 -326.37382812 350.36385742 -326.56640625 349.52099609 C-328.41907465 340.26586629 -328.30276168 330.99987252 -328.26074219 321.60205078 C-328.25007396 318.76963632 -328.26065904 315.93786334 -328.2734375 313.10546875 C-328.28763304 297.8248922 -327.15353845 283.38625852 -322.875 268.625 C-322.41540894 267.02192993 -322.41540894 267.02192993 -321.9465332 265.38647461 C-319.11218765 255.82906426 -315.52111209 246.875297 -311 238 C-310.61972656 237.24638184 -310.23945313 236.49276367 -309.84765625 235.71630859 C-304.30282075 224.87433722 -297.93116237 215.23360561 -290 206 C-289.23816406 205.10925781 -288.47632813 204.21851563 -287.69140625 203.30078125 C-285.50643928 200.81981163 -283.27284327 198.40061811 -281 196 C-280.17113281 195.11828125 -279.34226562 194.2365625 -278.48828125 193.328125 C-259.09657703 173.28531246 -234.60883869 158.38158536 -208.6875 148.375 C-207.83462402 148.04419434 -206.98174805 147.71338867 -206.10302734 147.37255859 C-201.03316013 145.49858471 -196.38775188 144.4587959 -191 144 C-191.15557373 143.46858398 -191.31114746 142.93716797 -191.47143555 142.38964844 C-195.06725759 130.06488592 -198.50560241 117.71980664 -201.46386719 105.22509766 C-201.9418786 103.24121968 -202.45671811 101.26629805 -202.9765625 99.29296875 C-209.40354538 72.53389518 -204.2315537 44.3018599 -189.9765625 20.97265625 C-183.88342062 11.80885986 -177.0891815 3.4954801 -169 -4 C-168.39027344 -4.57878906 -167.78054688 -5.15757812 -167.15234375 -5.75390625 C-118.85476541 -49.94977942 -47.80733815 -41.07001057 0 0 Z " fill="#FFFEFE" transform="translate(702,209)"/>
<path d="M0 0 C0.33 0 0.66 0 1 0 C1 160.05 1 320.1 1 485 C-159.05 485 -319.1 485 -484 485 C-484 484.67 -484 484.34 -484 484 C-483.05382812 483.91959473 -482.10765625 483.83918945 -481.1328125 483.75634766 C-477.5391124 483.45010301 -473.94578327 483.13966931 -470.35253906 482.828125 C-468.81292003 482.69518986 -467.27320926 482.56331203 -465.73339844 482.43261719 C-451.85398671 481.25332077 -437.95174143 480.05513148 -424.3125 477.125 C-422.60833128 476.76959222 -420.90389459 476.41546742 -419.19921875 476.0625 C-418.34247559 475.88460938 -417.48573242 475.70671875 -416.60302734 475.5234375 C-414.01763611 475.00354641 -411.42816946 474.52551804 -408.83203125 474.0625 C-386.30220053 470.03341174 -364.6787454 463.26204223 -343 456 C-341.9387793 455.64566895 -340.87755859 455.29133789 -339.78417969 454.92626953 C-322.34878724 449.04408696 -305.63704217 441.81406856 -289 434 C-288.06285156 433.56042969 -287.12570312 433.12085938 -286.16015625 432.66796875 C-271.96534429 425.94411045 -258.45419391 418.08807033 -245 410 C-244.24203125 409.54625 -243.4840625 409.0925 -242.703125 408.625 C-226.4327805 398.83832662 -210.83225457 387.84843059 -196 376 C-195.36078613 375.49082031 -194.72157227 374.98164062 -194.06298828 374.45703125 C-186.58660193 368.4858505 -179.21080674 362.45044859 -172.16015625 355.9765625 C-170.11884584 354.10874502 -168.03811377 352.30052609 -165.9375 350.5 C-162.1362436 347.19789848 -158.62540349 343.6446734 -155.09375 340.05859375 C-153.40698372 338.40015004 -151.72720879 336.9005479 -149.875 335.4375 C-146.86687577 332.8871338 -144.4579203 330.15587882 -141.91015625 327.16015625 C-139.90580785 324.89348004 -137.7942285 322.79636736 -135.625 320.6875 C-131.47033946 316.58926948 -127.81180904 312.21729494 -124.16796875 307.6640625 C-122.2623277 305.32235584 -120.29419987 303.09490677 -118.25 300.875 C-112.04322574 293.9553685 -106.5554311 286.44338472 -101 279 C-100.46181641 278.28134766 -99.92363281 277.56269531 -99.36914062 276.82226562 C-68.00662744 234.76364563 -44.18141387 187.80171792 -27.14111328 138.2734375 C-25.95081557 134.85890781 -24.7074735 131.46610742 -23.46484375 128.0703125 C-20.9548371 121.04967482 -18.90188954 113.95678233 -17 106.75 C-16.82980347 106.10825836 -16.65960693 105.46651672 -16.48425293 104.80532837 C-13.01156248 91.65256384 -10.29559804 78.40695914 -8 65 C-7.81985352 63.96037109 -7.63970703 62.92074219 -7.45410156 61.84960938 C-3.94175964 41.38529531 -0.97879245 20.75715026 0 0 Z " fill="#FFFEFE" transform="translate(1023,539)"/>
<path d="M0 0 C0.33 0 0.66 0 1 0 C1.04487549 0.95962646 1.08975098 1.91925293 1.13598633 2.90795898 C2.34667716 28.36045928 4.06748611 53.40245704 9.44970703 78.37011719 C10.04220918 81.20172016 10.58579176 84.03985636 11.12109375 86.8828125 C13.22746538 97.98881689 15.63427228 108.95435005 18.5625 119.875 C18.84327393 120.92574707 19.12404785 121.97649414 19.41333008 123.05908203 C21.03414857 128.95579198 22.9048569 134.69088272 25.04492188 140.41894531 C25.92035297 142.78475757 26.73823149 145.15894269 27.52734375 147.5546875 C45.53149578 202.16042095 73.08933806 254.04585391 109 299 C109.50917969 299.63921387 110.01835938 300.27842773 110.54296875 300.93701172 C116.51300445 308.41196437 122.54741885 315.78616844 129.01953125 322.8359375 C130.90840329 324.89991208 132.7394626 327.00290254 134.5625 329.125 C137.58679385 332.60433806 140.81086611 335.83248742 144.09765625 339.0625 C145.83550473 340.83246478 147.42398287 342.64906999 149 344.5625 C151.69051494 347.77516339 154.68471653 350.41809281 157.875 353.125 C160.13139303 355.11593503 162.21511543 357.21769016 164.3125 359.375 C168.41073052 363.52966054 172.78270506 367.18819096 177.3359375 370.83203125 C179.67764416 372.7376723 181.90509323 374.70580013 184.125 376.75 C191.0446315 382.95677426 198.55661528 388.4445689 206 394 C206.71865234 394.53818359 207.43730469 395.07636719 208.17773438 395.63085938 C258.27506553 432.98772484 315.01034683 459.86983583 375 477 C375.78004395 477.22494141 376.56008789 477.44988281 377.36376953 477.68164062 C401.57696119 484.59223898 426.1845858 488.77805636 451.16040039 491.61450195 C454 492 454 492 455.96362305 492.51416016 C458.87266389 493.20820059 461.75181085 493.33893492 464.734375 493.53515625 C466.02988281 493.62216797 467.32539063 493.70917969 468.66015625 493.79882812 C470.02343243 493.88679728 471.38671375 493.9746869 472.75 494.0625 C474.12892834 494.15396449 475.50783491 494.24575775 476.88671875 494.33789062 C480.25761226 494.5618311 483.62869196 494.7824043 487 495 C487 495.33 487 495.66 487 496 C326.29 496 165.58 496 0 496 C0 332.32 0 168.64 0 0 Z " fill="#FFFEFE" transform="translate(0,528)"/>
<path d="M0 0 C164.01 0 328.02 0 497 0 C497 160.38 497 320.76 497 486 C496.67 486 496.34 486 496 486 C495.96559814 485.32984863 495.93119629 484.65969727 495.89575195 483.96923828 C494.41685603 456.74379612 490.77432449 429.65813137 485 403 C484.79826172 402.06559082 484.59652344 401.13118164 484.38867188 400.16845703 C466.07090708 316.82262721 425.72025603 236.11777914 367.94140625 173.125 C366.08651255 171.09469382 364.28991984 169.02506027 362.5 166.9375 C359.21769566 163.16018457 355.68903101 159.67000436 352.125 156.16015625 C350.28858203 154.29335636 348.60031381 152.39477655 346.9375 150.375 C344.25317217 147.15824351 341.24786622 144.51555658 338.05859375 141.80859375 C335.99675493 139.99714902 334.09623288 138.09618631 332.1875 136.125 C328.27582588 132.15196628 324.04493274 128.68918206 319.69921875 125.203125 C317.34785812 123.28392472 315.10686141 121.3048666 312.875 119.25 C295.57068326 103.72836598 275.7361293 90.22160647 256 78 C255.20207031 77.50564453 254.40414062 77.01128906 253.58203125 76.50195312 C215.66258357 53.19178102 174.71838395 34.58633124 132 22 C131.28779297 21.78923828 130.57558594 21.57847656 129.84179688 21.36132812 C108.50657749 15.10689395 86.97357061 10.35284531 65 7 C63.08767578 6.69449219 63.08767578 6.69449219 61.13671875 6.3828125 C58.09389975 5.89982536 55.04825715 5.44724908 52 5 C50.42702148 4.76071777 50.42702148 4.76071777 48.82226562 4.51660156 C38.42171385 3.01871188 28.05283128 2.37742032 17.5625 1.875 C15.84827875 1.78832316 14.13408569 1.70108665 12.41992188 1.61328125 C8.28024341 1.40242585 4.14026171 1.19906028 0 1 C0 0.67 0 0.34 0 0 Z " fill="#FFFEFE" transform="translate(527,0)"/>
<path d="M0 0 C163.35 0 326.7 0 495 0 C495 0.33 495 0.66 495 1 C494.38406982 1.01458252 493.76813965 1.02916504 493.13354492 1.04418945 C447.08490374 2.24339489 401.95822767 10.39802286 358 24 C357.03803711 24.29600098 356.07607422 24.59200195 355.08496094 24.89697266 C304.57171231 40.61126227 255.46378718 65.48011221 213 97 C212.37996094 97.45552246 211.75992188 97.91104492 211.12109375 98.38037109 C198.00794539 108.01644955 185.15371301 118.01098972 173.16015625 129.0234375 C171.11884584 130.89125498 169.03811377 132.69947391 166.9375 134.5 C163.17855178 137.76733528 159.70433392 141.27716949 156.2109375 144.82421875 C154.24626159 146.75765423 152.23547609 148.54228434 150.125 150.3125 C145.11347612 154.6180354 140.78552126 159.5518773 136.38476562 164.46240234 C135.06417865 165.92873816 133.7277749 167.38078323 132.390625 168.83203125 C126.67654971 175.03410987 121.27758777 181.42450384 116 188 C115.07610551 189.13198786 114.1515971 190.26347487 113.2265625 191.39453125 C48.54024516 270.8521632 7.43266913 372.91551775 1.875 475.4375 C1.78827906 476.95901402 1.70104178 478.48049871 1.61328125 480.00195312 C1.40293319 483.66765169 1.19946158 487.33369098 1 491 C0.67 491 0.34 491 0 491 C0 328.97 0 166.94 0 0 Z " fill="#FFFEFE" transform="translate(0,0)"/>
<path d="M0 0 C0.20044922 0.78721436 0.40089844 1.57442871 0.60742188 2.38549805 C4.29916517 16.85633648 8.04275959 31.30376435 12.0625 45.6875 C15.07779942 56.48452623 17.8746707 67.32118799 20.5534668 78.20629883 C22.39793265 85.67785788 24.34718874 93.10729085 26.4909668 100.4987793 C30.75726681 115.34860746 29.92751455 129.24810636 22.42578125 142.85546875 C20.7450749 145.38240487 18.96541307 147.68845144 17 150 C16.34257813 150.77988281 15.68515625 151.55976562 15.0078125 152.36328125 C5.65776531 162.55243524 -6.94218244 168.47754344 -20.67578125 169.34765625 C-34.71619447 169.91290749 -46.24642198 167.70932561 -57 158 C-57.72703125 157.36449219 -58.4540625 156.72898437 -59.203125 156.07421875 C-74.58193803 141.76773793 -80.50029738 122.46486003 -81.25390625 102.00390625 C-81.89886471 75.22829854 -75.47667322 51.2862443 -57 31 C-45.89833256 19.61997217 -17.12567518 -5.40611821 0 0 Z " fill="#FF0101" transform="translate(533,430)"/>
</svg>
