<?xml version="1.0" encoding="UTF-8"?>
<svg version="1.1" xmlns="http://www.w3.org/2000/svg" width="500" height="500">
<path d="M0 0 C3.41543498 0.02148072 6.82876761 0.00002429 10.24414062 -0.02539062 C38.84791499 -0.06100427 65.58901449 6.02624103 92.41601562 15.52148438 C94.1253125 16.12089844 94.1253125 16.12089844 95.86914062 16.73242188 C107.47110803 20.99028676 118.6231265 26.55894804 129.10742188 33.09960938 C130.9459487 34.23196769 132.81674154 35.311894 134.69726562 36.37304688 C138.6873072 38.64234615 142.52596544 41.11481723 146.35351562 43.64648438 C147.37928711 44.30970703 147.37928711 44.30970703 148.42578125 44.98632812 C150.1260951 46.11081141 151.77638623 47.31022663 153.41601562 48.52148438 C153.41601562 49.18148437 153.41601562 49.84148438 153.41601562 50.52148438 C155.06601562 51.18148437 156.71601563 51.84148438 158.41601562 52.52148438 C158.41601562 53.18148437 158.41601562 53.84148438 158.41601562 54.52148438 C158.93164062 54.74835937 159.44726562 54.97523437 159.97851562 55.20898438 C163.31148567 57.00366055 166.56305234 59.02113453 169.41601562 61.52148438 C169.41601562 62.18148437 169.41601562 62.84148438 169.41601562 63.52148438 C170.27888184 63.89756836 170.27888184 63.89756836 171.15917969 64.28125 C173.72042758 65.68877264 175.45658955 67.30318463 177.52539062 69.36523438 C178.27949219 70.11675781 179.03359375 70.86828125 179.81054688 71.64257812 C180.58785156 72.42761719 181.36515625 73.21265625 182.16601562 74.02148438 C182.95878906 74.80652344 183.7515625 75.5915625 184.56835938 76.40039062 C185.31730469 77.15191406 186.06625 77.9034375 186.83789062 78.67773438 C187.52463867 79.36673828 188.21138672 80.05574219 188.91894531 80.765625 C190.41601562 82.52148438 190.41601562 82.52148438 190.41601562 84.52148438 C191.07601563 84.52148438 191.73601562 84.52148438 192.41601562 84.52148438 C192.41601562 85.18148437 192.41601562 85.84148437 192.41601562 86.52148438 C193.07601563 86.52148438 193.73601562 86.52148438 194.41601562 86.52148438 C195.70507813 87.98242188 195.70507813 87.98242188 197.04101562 89.89648438 C197.48703125 90.52296875 197.93304688 91.14945312 198.39257812 91.79492188 C199.41601562 93.52148438 199.41601562 93.52148438 199.41601562 95.52148438 C200.07601563 95.52148438 200.73601562 95.52148438 201.41601562 95.52148438 C202.07601563 97.17148438 202.73601562 98.82148437 203.41601562 100.52148438 C204.07601563 100.52148438 204.73601562 100.52148438 205.41601562 100.52148438 C208.34379026 104.33583865 210.83977705 108.46327774 213.41601562 112.52148438 C214.08375 113.565625 214.75148438 114.60976562 215.43945312 115.68554688 C223.66563318 128.78890878 230.4078427 142.28439613 236.41601562 156.52148438 C236.91617187 157.62621094 237.41632813 158.7309375 237.93164062 159.86914062 C239.7424906 164.32478464 241.06406483 168.83008892 242.35351562 173.45898438 C242.61366455 174.38412842 242.87381348 175.30927246 243.1418457 176.26245117 C249.82701445 200.21126742 253.60034848 222.60812165 253.54638672 247.51147461 C253.54103362 250.44910864 253.54635516 253.38658939 253.55273438 256.32421875 C253.55881542 269.53826671 253.2831048 282.51336642 250.72851562 295.52148438 C250.55698975 296.40666748 250.38546387 297.29185059 250.20874023 298.20385742 C248.3690978 307.32002168 245.85479216 316.21117835 243.14648438 325.10253906 C242.46358276 327.36396592 241.81030377 329.63162239 241.16601562 331.90429688 C238.73587295 340.31211207 235.48662929 347.97530764 231.36181641 355.71337891 C230.37438525 357.60106996 229.43524787 359.50693483 228.50585938 361.42382812 C223.96481845 370.77644008 218.96264073 379.7282893 213.41601562 388.52148438 C213.03848145 389.12138184 212.66094727 389.7212793 212.27197266 390.33935547 C207.59867793 397.71071781 207.59867793 397.71071781 205.41601562 400.52148438 C204.75601562 400.52148438 204.09601563 400.52148438 203.41601562 400.52148438 C202.75601562 402.17148437 202.09601563 403.82148438 201.41601562 405.52148438 C200.75601562 405.52148438 200.09601563 405.52148438 199.41601562 405.52148438 C199.07570313 406.29492188 199.07570313 406.29492188 198.72851562 407.08398438 C196.93383945 410.41695442 194.91636547 413.66852109 192.41601562 416.52148438 C191.75601562 416.52148438 191.09601563 416.52148438 190.41601562 416.52148438 C190.16529297 417.09672852 189.91457031 417.67197266 189.65625 418.26464844 C188.24872736 420.82589633 186.63431537 422.5620583 184.57226562 424.63085938 C183.82074219 425.38496094 183.06921875 426.1390625 182.29492188 426.91601562 C181.50988281 427.69332031 180.72484375 428.470625 179.91601562 429.27148438 C178.73845703 430.46064453 178.73845703 430.46064453 177.53710938 431.67382812 C176.78558594 432.42277344 176.0340625 433.17171875 175.25976562 433.94335938 C174.57076172 434.63010742 173.88175781 435.31685547 173.171875 436.02441406 C171.41601562 437.52148438 171.41601562 437.52148438 169.41601562 437.52148438 C169.41601562 438.18148438 169.41601562 438.84148437 169.41601562 439.52148438 C167.51757812 441.24804688 167.51757812 441.24804688 165.04101562 443.14648438 C164.22890625 443.778125 163.41679687 444.40976562 162.58007812 445.06054688 C160.41601562 446.52148438 160.41601562 446.52148438 158.41601562 446.52148438 C158.41601562 447.18148438 158.41601562 447.84148437 158.41601562 448.52148438 C156.76601563 449.18148438 155.11601562 449.84148437 153.41601562 450.52148438 C153.41601562 451.18148438 153.41601562 451.84148437 153.41601562 452.52148438 C151.77050781 453.83081055 151.77050781 453.83081055 149.46289062 455.31445312 C148.62250244 455.8586792 147.78211426 456.40290527 146.91625977 456.96362305 C146.0086792 457.53959229 145.10109863 458.11556152 144.16601562 458.70898438 C143.24232178 459.29977783 142.31862793 459.89057129 141.36694336 460.49926758 C138.7226866 462.18315737 136.0710161 463.85460119 133.41601562 465.52148438 C132.33964844 466.20210938 131.26328125 466.88273437 130.15429688 467.58398438 C114.74246984 476.94357568 97.67156672 484.70737618 80.29101562 489.52148438 C79.38013184 489.77712158 78.46924805 490.03275879 77.53076172 490.29614258 C53.63481938 496.95158333 31.30756329 500.70887522 6.51538086 500.70678711 C3.61947896 500.70897233 0.72395987 500.72718919 -2.171875 500.74609375 C-13.15697686 500.77889035 -23.7235387 500.21336955 -34.58398438 498.52148438 C-35.6067749 498.37638428 -36.62956543 498.23128418 -37.68334961 498.08178711 C-54.06360575 495.72232563 -70.04429172 491.11146783 -85.58398438 485.52148438 C-86.7209375 485.121875 -87.85789063 484.72226562 -89.02929688 484.31054688 C-106.57531915 477.88706452 -122.89355253 468.38087037 -138.45898438 458.14648438 C-139.26319824 457.6221582 -140.06741211 457.09783203 -140.89599609 456.55761719 C-142.00612061 455.81656738 -142.00612061 455.81656738 -143.13867188 455.06054688 C-143.80366699 454.6192041 -144.46866211 454.17786133 -145.15380859 453.72314453 C-145.6257666 453.32659668 -146.09772461 452.93004883 -146.58398438 452.52148438 C-146.58398438 451.86148437 -146.58398438 451.20148438 -146.58398438 450.52148438 C-148.23398438 449.86148437 -149.88398438 449.20148438 -151.58398438 448.52148438 C-151.58398438 447.86148437 -151.58398438 447.20148438 -151.58398438 446.52148438 C-152.32648438 446.25335938 -153.06898438 445.98523438 -153.83398438 445.70898438 C-156.47460386 444.56871687 -158.43951282 443.42768132 -160.58398438 441.52148438 C-160.58398438 440.86148437 -160.58398438 440.20148438 -160.58398438 439.52148438 C-161.24398437 439.52148438 -161.90398437 439.52148438 -162.58398438 439.52148438 C-162.58398438 438.86148437 -162.58398438 438.20148438 -162.58398438 437.52148438 C-163.15922852 437.27076172 -163.73447266 437.02003906 -164.32714844 436.76171875 C-166.88839633 435.35419611 -168.6245583 433.73978412 -170.69335938 431.67773438 C-171.82451172 430.55044922 -171.82451172 430.55044922 -172.97851562 429.40039062 C-173.75582031 428.61535156 -174.533125 427.8303125 -175.33398438 427.02148438 C-176.52314453 425.84392578 -176.52314453 425.84392578 -177.73632812 424.64257812 C-178.48527344 423.89105469 -179.23421875 423.13953125 -180.00585938 422.36523438 C-180.69260742 421.67623047 -181.37935547 420.98722656 -182.08691406 420.27734375 C-183.58398438 418.52148438 -183.58398438 418.52148438 -183.58398438 416.52148438 C-184.24398437 416.52148438 -184.90398437 416.52148438 -185.58398438 416.52148438 C-187.31054688 414.62304688 -187.31054688 414.62304688 -189.20898438 412.14648438 C-189.840625 411.334375 -190.47226563 410.52226562 -191.12304688 409.68554688 C-192.58398438 407.52148438 -192.58398438 407.52148438 -192.58398438 405.52148438 C-193.24398437 405.52148438 -193.90398437 405.52148438 -194.58398438 405.52148438 C-195.24398437 403.87148438 -195.90398437 402.22148437 -196.58398438 400.52148438 C-197.24398437 400.52148438 -197.90398437 400.52148438 -198.58398438 400.52148438 C-200.21918338 398.32399575 -201.72683835 396.13218715 -203.20898438 393.83398438 C-203.65556396 393.14916992 -204.10214355 392.46435547 -204.56225586 391.75878906 C-205.47708049 390.35026249 -206.38812273 388.93927224 -207.29541016 387.52587891 C-208.42035618 385.77601023 -209.56137654 384.03649628 -210.70507812 382.29882812 C-215.72265625 374.47463689 -219.67635646 366.31574277 -223.55273438 357.88085938 C-225.01209899 354.7082114 -226.5805639 351.6406483 -228.27148438 348.58398438 C-231.51568749 342.21863413 -233.20345918 335.20379995 -235.16992188 328.36523438 C-236.25873842 324.58134179 -237.46332078 320.86126955 -238.77148438 317.14648438 C-240.94129484 310.70878227 -242.33596295 304.18985416 -243.58398438 297.52148438 C-243.71263885 296.8447467 -243.84129333 296.16800903 -243.97384644 295.47076416 C-246.51040366 281.74111662 -247.0819592 268.2583673 -247.0300293 254.31469727 C-247.02153602 250.85502147 -247.05038263 247.39701363 -247.08203125 243.9375 C-247.17170839 215.22412731 -241.11557126 188.45116727 -231.58398438 161.52148438 C-230.98457031 159.8121875 -230.98457031 159.8121875 -230.37304688 158.06835938 C-227.12394529 149.2151027 -222.97727461 140.85212174 -218.58398438 132.52148438 C-217.92293701 131.2606604 -217.92293701 131.2606604 -217.24853516 129.97436523 C-213.62323244 123.18099974 -209.6143516 116.73186377 -205.33398438 110.33398438 C-204.71007812 109.38201172 -204.08617187 108.43003906 -203.44335938 107.44921875 C-202.84523437 106.55138672 -202.24710938 105.65355469 -201.63085938 104.72851562 C-201.09299805 103.91874268 -200.55513672 103.10896973 -200.00097656 102.2746582 C-199.53336914 101.69611084 -199.06576172 101.11756348 -198.58398438 100.52148438 C-197.92398438 100.52148438 -197.26398438 100.52148438 -196.58398438 100.52148438 C-195.92398438 98.87148437 -195.26398438 97.22148438 -194.58398438 95.52148438 C-193.92398438 95.52148438 -193.26398438 95.52148438 -192.58398438 95.52148438 C-192.31585938 94.77898437 -192.04773438 94.03648438 -191.77148438 93.27148438 C-190.63121687 90.63086489 -189.49018132 88.66595593 -187.58398438 86.52148438 C-186.92398438 86.52148438 -186.26398438 86.52148438 -185.58398438 86.52148438 C-185.58398438 85.86148438 -185.58398438 85.20148438 -185.58398438 84.52148438 C-184.92398438 84.52148438 -184.26398438 84.52148438 -183.58398438 84.52148438 C-183.33326172 83.94624023 -183.08253906 83.37099609 -182.82421875 82.77832031 C-181.41669611 80.21707242 -179.80228412 78.48091045 -177.74023438 76.41210938 C-176.98871094 75.65800781 -176.2371875 74.90390625 -175.46289062 74.12695312 C-174.67785156 73.34964844 -173.8928125 72.57234375 -173.08398438 71.77148438 C-172.29894531 70.97871094 -171.51390625 70.1859375 -170.70507812 69.36914062 C-169.95355469 68.62019531 -169.20203125 67.87125 -168.42773438 67.09960938 C-167.73873047 66.41286133 -167.04972656 65.72611328 -166.33984375 65.01855469 C-164.58398438 63.52148438 -164.58398438 63.52148438 -162.58398438 63.52148438 C-162.58398438 62.86148438 -162.58398438 62.20148437 -162.58398438 61.52148438 C-161.92398438 61.52148438 -161.26398438 61.52148438 -160.58398438 61.52148438 C-160.58398438 60.86148438 -160.58398438 60.20148437 -160.58398438 59.52148438 C-159.12304687 58.23242187 -159.12304687 58.23242187 -157.20898438 56.89648438 C-156.5825 56.45046875 -155.95601563 56.00445312 -155.31054688 55.54492188 C-153.58398438 54.52148438 -153.58398438 54.52148438 -151.58398438 54.52148438 C-151.58398438 53.86148438 -151.58398438 53.20148437 -151.58398438 52.52148438 C-149.93398437 51.86148438 -148.28398437 51.20148437 -146.58398438 50.52148438 C-146.58398438 49.86148438 -146.58398438 49.20148437 -146.58398438 48.52148438 C-144.34570312 46.82226563 -144.34570312 46.82226563 -141.27148438 44.83398438 C-139.62792969 43.76664063 -139.62792969 43.76664063 -137.95117188 42.67773438 C-136.84 41.96617188 -135.72882813 41.25460938 -134.58398438 40.52148438 C-133.6171875 39.89242187 -132.65039062 39.26335938 -131.65429688 38.61523438 C-122.78901723 32.88921806 -113.68258709 27.97241412 -104.14648438 23.45898438 C-103.26927734 23.03810547 -102.39207031 22.61722656 -101.48828125 22.18359375 C-90.46457055 16.94387864 -79.28101001 12.95475877 -67.58398438 9.52148438 C-66.86597656 9.3084668 -66.14796875 9.09544922 -65.40820312 8.87597656 C-43.89024558 2.57920302 -22.40214729 -0.16670173 0 0 Z M13.41601562 101.52148438 C13.41601562 102.18148437 13.41601562 102.84148437 13.41601562 103.52148438 C12.75601563 103.52148438 12.09601563 103.52148438 11.41601562 103.52148438 C11.41601562 104.18148437 11.41601562 104.84148437 11.41601562 105.52148438 C10.75601563 105.52148438 10.09601563 105.52148438 9.41601562 105.52148438 C8.75601563 107.17148438 8.09601563 108.82148437 7.41601562 110.52148438 C6.75601563 110.52148438 6.09601563 110.52148438 5.41601562 110.52148438 C4.44725723 112.34933039 3.4915469 114.18409378 2.54101562 116.02148438 C2.00734375 117.04242188 1.47367188 118.06335938 0.92382812 119.11523438 C-2.01854407 125.76225136 -2.99707771 132.09588418 -3.02148438 139.33398438 C-3.02535156 140.14496582 -3.02921875 140.95594727 -3.03320312 141.79150391 C-2.88621374 149.75189801 -0.98062034 156.96845165 1.32226562 164.54492188 C2.24435993 167.62673395 2.67451028 170.27737646 2.41601562 173.52148438 C1.86816406 173.65683594 1.3203125 173.7921875 0.75585938 173.93164062 C-7.47980955 176.167993 -14.93974134 179.8012861 -22.58398438 183.52148438 C-22.58398438 184.18148437 -22.58398438 184.84148437 -22.58398438 185.52148438 C-23.57398438 185.83085937 -23.57398438 185.83085937 -24.58398438 186.14648438 C-28.65578624 188.0127269 -32.27195436 190.49709964 -35.58398438 193.52148438 C-35.58398438 194.18148437 -35.58398438 194.84148437 -35.58398438 195.52148438 C-36.24398437 195.52148438 -36.90398437 195.52148438 -37.58398438 195.52148438 C-37.58398438 196.18148437 -37.58398438 196.84148437 -37.58398438 197.52148438 C-38.24398437 197.52148438 -38.90398437 197.52148438 -39.58398438 197.52148438 C-39.58398438 198.18148437 -39.58398438 198.84148437 -39.58398438 199.52148438 C-40.24398437 199.52148438 -40.90398437 199.52148438 -41.58398438 199.52148438 C-43.26871661 201.40014262 -44.80917134 203.26823241 -46.33398438 205.27148438 C-46.78209473 205.85913574 -47.23020508 206.44678711 -47.69189453 207.05224609 C-61.86391451 226.12386734 -65.94906733 248.64263376 -63.31152344 271.92675781 C-61.1535393 285.38206401 -54.54888355 299.27588532 -45.58398438 309.52148438 C-44.92398438 309.52148438 -44.26398438 309.52148438 -43.58398438 309.52148438 C-43.58398438 310.18148437 -43.58398438 310.84148437 -43.58398438 311.52148438 C-42.92398438 311.52148438 -42.26398438 311.52148438 -41.58398438 311.52148438 C-41.58398438 312.18148437 -41.58398438 312.84148437 -41.58398438 313.52148438 C-40.92398438 313.52148438 -40.26398438 313.52148438 -39.58398438 313.52148438 C-39.58398438 314.18148437 -39.58398438 314.84148437 -39.58398438 315.52148438 C-38.92398438 315.52148438 -38.26398438 315.52148438 -37.58398438 315.52148438 C-37.58398438 316.18148437 -37.58398438 316.84148437 -37.58398438 317.52148438 C-23.93148293 327.19498453 -8.20636207 332.07877325 8.41601562 329.52148438 C9.22554687 329.40804687 10.03507813 329.29460937 10.86914062 329.17773438 C21.08197242 327.4646142 31.02707985 323.60757503 39.41601562 317.52148438 C39.41601562 316.86148438 39.41601562 316.20148438 39.41601562 315.52148438 C39.95226562 315.31523437 40.48851562 315.10898437 41.04101562 314.89648438 C44.33579571 312.98898011 47.00965191 310.47329054 49.41601562 307.52148438 C49.41601562 306.86148438 49.41601562 306.20148438 49.41601562 305.52148438 C50.07601562 305.52148438 50.73601562 305.52148438 51.41601562 305.52148438 C61.89518143 288.48164425 67.24217388 273.2160071 62.61547852 253.11499023 C61.56395137 248.75962612 60.45589291 244.42021673 59.33203125 240.08300781 C58.36175947 236.31053322 57.42361915 232.53071552 56.49414062 228.74804688 C54.67194866 221.35351255 54.67194866 221.35351255 52.83398438 213.96289062 C52.58414795 212.95943604 52.33431152 211.95598145 52.0769043 210.92211914 C51.50268774 208.53335252 51.50268774 208.53335252 50.41601562 206.52148438 C51.16367187 206.81023437 51.91132813 207.09898437 52.68164062 207.39648438 C53.66648437 207.76773438 54.65132812 208.13898438 55.66601562 208.52148438 C56.64054688 208.89273438 57.61507812 209.26398438 58.61914062 209.64648438 C61.563847 210.72053675 61.563847 210.72053675 65.41601562 210.52148438 C65.41601562 211.18148437 65.41601562 211.84148437 65.41601562 212.52148438 C66.52976562 213.18148437 67.64351562 213.84148437 68.79101562 214.52148438 C69.4175 214.89273438 70.04398438 215.26398438 70.68945312 215.64648438 C72.3907423 216.67216785 72.3907423 216.67216785 74.41601562 216.52148438 C74.41601562 217.18148437 74.41601562 217.84148437 74.41601562 218.52148438 C75.89462737 219.62226173 77.42648833 220.65189162 78.97851562 221.64648438 C83.43313571 224.64782415 86.72278317 227.81395191 90.04101562 232.01757812 C90.49476563 232.51386719 90.94851563 233.01015625 91.41601562 233.52148438 C92.07601562 233.52148438 92.73601562 233.52148438 93.41601562 233.52148438 C93.68671875 234.08351562 93.95742188 234.64554688 94.23632812 235.22460938 C95.48243831 237.65081066 96.86289775 239.94801799 98.29101562 242.27148438 C105.22393471 253.84878615 109.9895561 265.83769602 110.41601562 279.52148438 C110.43647949 280.17665039 110.45694336 280.83181641 110.47802734 281.50683594 C110.73307716 291.04696396 110.5349743 300.16837379 108.41601562 309.52148438 C108.15884766 310.81505859 108.15884766 310.81505859 107.89648438 312.13476562 C105.0775336 324.4108416 98.60531474 335.65356896 90.88476562 345.48242188 C89.22119279 347.3731287 89.22119279 347.3731287 89.41601562 349.52148438 C88.75601563 349.52148438 88.09601563 349.52148438 87.41601562 349.52148438 C85.84952704 351.10885837 85.84952704 351.10885837 84.22851562 353.14648438 C80.5520585 357.4767048 76.56398444 361.94749997 71.41601562 364.52148438 C71.41601562 365.18148438 71.41601562 365.84148437 71.41601562 366.52148438 C70.75601563 366.74835938 70.09601563 366.97523438 69.41601562 367.20898438 C66.95954056 368.28369222 65.01350098 369.37976556 62.79101562 370.83398438 C46.31519203 381.29628577 25.80867268 386.50081821 6.41601562 387.52148438 C5.03349609 387.60076172 5.03349609 387.60076172 3.62304688 387.68164062 C-18.58409766 388.32899718 -39.0104332 382.13712885 -58.20507812 371.37695312 C-61.43645643 369.47096625 -61.43645643 369.47096625 -64.58398438 368.52148438 C-64.58398438 367.86148437 -64.58398438 367.20148438 -64.58398438 366.52148438 C-66.23398438 365.86148437 -67.88398438 365.20148438 -69.58398438 364.52148438 C-69.58398438 363.86148437 -69.58398438 363.20148438 -69.58398438 362.52148438 C-71.57047916 361.1681122 -73.57315824 359.83843389 -75.58398438 358.52148438 C-100.88462066 336.43956809 -113.98095754 304.44977382 -116.58398438 271.52148438 C-118.08700949 246.34581373 -111.07729427 221.80175004 -98.22070312 200.34960938 C-96.49220666 197.58197276 -96.49220666 197.58197276 -95.58398438 194.52148438 C-94.92398438 194.52148438 -94.26398438 194.52148438 -93.58398438 194.52148438 C-92.48312504 192.96365902 -92.48312504 192.96365902 -91.33398438 190.89648438 C-78.64121816 171.25217872 -56.28518705 157.15709272 -34.58398438 149.52148438 C-34.58398438 148.86148438 -34.58398438 148.20148438 -34.58398438 147.52148438 C-33.26398438 146.86148438 -31.94398438 146.20148438 -30.58398438 145.52148438 C-30.58398438 144.86148438 -30.58398438 144.20148438 -30.58398438 143.52148438 C-29.92398438 143.52148438 -29.26398438 143.52148438 -28.58398438 143.52148438 C-26.40908323 140.00021585 -26.31520651 137.1150597 -26.33398438 133.02148438 C-26.32882813 131.89742187 -26.32367188 130.77335937 -26.31835938 129.61523438 C-26.57114143 126.67106695 -27.05033896 125.00452933 -28.58398438 122.52148438 C-29.24398437 122.52148438 -29.90398437 122.52148438 -30.58398438 122.52148438 C-30.98617187 121.59335938 -30.98617187 121.59335938 -31.39648438 120.64648438 C-32.97060837 117.8296309 -34.81271861 116.78753075 -37.82617188 115.74804688 C-53.35646393 112.19958252 -67.15237383 122.05676105 -79.8515625 129.92675781 C-81.98375142 131.27276077 -84.1004797 132.63871652 -86.20898438 134.02148438 C-86.85464355 134.44252441 -87.50030273 134.86356445 -88.16552734 135.29736328 C-89.67746349 136.31630397 -91.13725844 137.41190107 -92.58398438 138.52148438 C-92.58398438 139.18148437 -92.58398438 139.84148437 -92.58398438 140.52148438 C-93.11636719 140.73804688 -93.64875 140.95460937 -94.19726562 141.17773438 C-97.46187319 143.01574583 -100.05524701 145.47468943 -102.77148438 148.02148438 C-103.34809814 148.56047363 -103.92471191 149.09946289 -104.51879883 149.65478516 C-113.81330395 158.43530246 -121.37399481 168.01158594 -128.58398438 178.52148438 C-129.34066406 179.58882813 -130.09734375 180.65617187 -130.87695312 181.75585938 C-132.84660286 184.40529219 -132.84660286 184.40529219 -132.58398438 187.52148438 C-133.24398437 187.52148438 -133.90398437 187.52148438 -134.58398438 187.52148438 C-134.81472656 188.12734375 -135.04546875 188.73320312 -135.28320312 189.35742188 C-136.97297342 193.69872895 -138.72892968 197.86694227 -140.95898438 201.95898438 C-158.20372636 236.23622538 -157.80173658 280.56742844 -146.64648438 316.56054688 C-144.92185509 321.36668289 -142.80850878 325.93044465 -140.58398438 330.52148438 C-139.74750908 332.39508479 -138.91417746 334.27009186 -138.08398438 336.14648438 C-136.15236955 340.40578647 -134.02448024 344.49325868 -131.69726562 348.54882812 C-130.59051973 350.50990418 -129.57455578 352.49963314 -128.58398438 354.52148438 C-127.92398438 354.52148438 -127.26398438 354.52148438 -126.58398438 354.52148438 C-125.92398438 356.50148438 -125.26398438 358.48148437 -124.58398438 360.52148438 C-123.92398438 360.52148438 -123.26398438 360.52148438 -122.58398438 360.52148438 C-121.92398438 362.17148437 -121.26398438 363.82148438 -120.58398438 365.52148438 C-119.92398438 365.52148438 -119.26398438 365.52148438 -118.58398438 365.52148438 C-118.32488281 366.09898437 -118.06578125 366.67648437 -117.79882812 367.27148438 C-116.49060981 369.69442248 -114.99532706 371.48576942 -113.14648438 373.52148438 C-111.30501379 375.55784062 -109.57702567 377.53128442 -107.98632812 379.77148438 C-107.29216797 380.63773437 -107.29216797 380.63773437 -106.58398438 381.52148438 C-105.92398438 381.52148438 -105.26398438 381.52148438 -104.58398438 381.52148438 C-104.58398438 382.18148438 -104.58398438 382.84148437 -104.58398438 383.52148438 C-102.87065684 385.1068214 -101.0870939 386.61689652 -99.27148438 388.08398438 C-98.28535156 388.88964844 -97.29921875 389.6953125 -96.28320312 390.52539062 C-93.69102815 392.65792431 -93.69102815 392.65792431 -90.58398438 393.52148438 C-90.58398438 394.18148438 -90.58398438 394.84148437 -90.58398438 395.52148438 C-88.18281293 397.3200571 -85.79248778 398.96710108 -83.27148438 400.58398438 C-82.51617432 401.07060547 -81.76086426 401.55722656 -80.98266602 402.05859375 C-45.71372913 424.22949803 -4.33066982 430.95890425 36.32568359 421.87109375 C46.7793679 419.36841451 56.85375191 416.503854 66.41601562 411.52148438 C67.6760886 410.9151874 68.93796325 410.31262713 70.20117188 409.71289062 C78.64329613 405.66515955 87.09282556 401.42996727 94.41601562 395.52148438 C94.41601562 394.86148437 94.41601562 394.20148438 94.41601562 393.52148438 C96.06601562 392.86148437 97.71601563 392.20148438 99.41601562 391.52148438 C99.41601562 390.86148437 99.41601562 390.20148438 99.41601562 389.52148438 C99.95097656 389.31265625 100.4859375 389.10382813 101.03710938 388.88867188 C104.34995504 386.98473759 106.82976378 384.35698627 109.47851562 381.64648438 C110.00767578 381.11667969 110.53683594 380.586875 111.08203125 380.04101562 C116.18901401 375.48178847 116.18901401 375.48178847 118.41601562 369.52148438 C119.07601563 369.52148438 119.73601562 369.52148438 120.41601562 369.52148438 C122.00950424 367.5753391 122.00950424 367.5753391 123.54101562 365.14648438 C124.07984375 364.334375 124.61867188 363.52226562 125.17382812 362.68554688 C126.58195693 360.64826412 126.58195693 360.64826412 126.41601562 358.52148438 C127.07601563 358.52148438 127.73601562 358.52148438 128.41601562 358.52148438 C135.09302741 346.97734678 140.6307539 335.12805106 144.22851562 322.27148438 C144.42324463 321.57595459 144.61797363 320.8804248 144.81860352 320.16381836 C154.05696513 285.24842525 146.73991194 252.55853912 129.83398438 221.62695312 C129.36605469 220.93214844 128.898125 220.23734375 128.41601562 219.52148438 C127.75601562 219.52148438 127.09601563 219.52148438 126.41601562 219.52148438 C126.16851562 218.79960937 125.92101562 218.07773438 125.66601562 217.33398438 C124.29331971 214.24541856 122.69248266 212.0113702 120.41601562 209.52148438 C119.75601562 209.52148438 119.09601563 209.52148438 118.41601562 209.52148438 C118.41601562 208.86148438 118.41601562 208.20148438 118.41601562 207.52148438 C117.75601562 207.52148438 117.09601563 207.52148438 116.41601562 207.52148438 C116.15820312 206.93882812 115.90039062 206.35617188 115.63476562 205.75585938 C114.31767546 203.34119407 112.86513178 201.7040826 110.91601562 199.77148438 C110.30757813 199.15789062 109.69914062 198.54429687 109.07226562 197.91210938 C107.52117285 196.3071435 107.52117285 196.3071435 105.41601562 196.52148438 C105.41601562 195.86148438 105.41601562 195.20148438 105.41601562 194.52148438 C103.16223353 192.4245771 100.5955153 190.69969443 98.10351562 188.89648438 C97.41322266 188.38085938 96.72292969 187.86523438 96.01171875 187.33398438 C95.34462891 186.84671875 94.67753906 186.35945313 93.99023438 185.85742188 C93.37752686 185.40931152 92.76481934 184.96120117 92.13354492 184.49951172 C90.31093419 183.27406701 90.31093419 183.27406701 87.41601562 183.52148438 C87.41601562 182.86148438 87.41601562 182.20148438 87.41601562 181.52148438 C72.47107576 174.69170441 57.19243104 168.15141639 40.41601562 168.52148438 C37.48632812 156.80273437 37.48632812 156.80273437 36.95483398 154.65917969 C36.59687913 153.23903798 36.22795579 151.82161408 35.84790039 150.40722656 C34.80619809 146.47553513 34.12115506 142.84031318 34.10351562 138.77148438 C34.08675781 137.86914062 34.07 136.96679688 34.05273438 136.03710938 C34.47989266 133.07915305 35.54303486 131.79475918 37.41601562 129.52148438 C37.41601562 128.86148438 37.41601562 128.20148438 37.41601562 127.52148438 C44.99218592 124.30735152 51.30373589 122.53363113 59.41601562 124.52148438 C64.67794431 126.65381208 69.60230024 129.06186246 74.03710938 132.63085938 C77.35148438 135.26494394 80.19921667 136.27966078 84.41601562 136.52148438 C90.54595447 135.5240706 95.16305871 132.97696305 99.41601562 128.52148438 C102.7503276 122.63086655 103.39525989 117.53638588 101.79101562 110.95898438 C94.51880474 98.06733781 79.91334006 92.00584135 66.41601562 87.52148438 C46.88980224 82.30780994 27.98901931 87.47558934 13.41601562 101.52148438 Z " fill="#FC0101" transform="translate(246.583984375,-0.521484375)"/>
<path d="M0 0 C1.97989736 7.2663238 3.92651181 14.52175523 5.5625 21.875 C6.36906132 25.44815338 7.2366989 28.91462695 8.4375 32.375 C17.46712491 58.59933618 17.46712491 58.59933618 12.125 69.625 C10.7764192 71.76686363 9.40397787 73.8940332 8 76 C7.34 76 6.68 76 6 76 C6 76.66 6 77.32 6 78 C-0.26650485 82.66344547 -5.17114381 84.34855551 -12.9375 84.3125 C-13.97293945 84.33666992 -13.97293945 84.33666992 -15.02929688 84.36132812 C-21.20868815 84.36718537 -24.97568444 82.34954371 -30 79 C-30 78.34 -30 77.68 -30 77 C-30.66 77 -31.32 77 -32 77 C-32.66 75.35 -33.32 73.7 -34 72 C-34.66 72 -35.32 72 -36 72 C-42.05256794 59.06951394 -42.99745642 44.53118749 -39.05859375 30.7734375 C-37.30943849 26.19077982 -35.0582972 21.85055803 -32 18 C-31.34 18 -30.68 18 -30 18 C-29.78601563 17.4328125 -29.57203125 16.865625 -29.3515625 16.28125 C-25.07475519 9.06259258 -13.91756173 2.78466147 -6.03125 0.40625 C-4 0 -4 0 0 0 Z " fill="#FB0303" transform="translate(261,209)"/>
<path d="M0 0 C0.66 0.33 1.32 0.66 2 1 C2 1.99 2 2.98 2 4 C2.66 4 3.32 4 4 4 C11.08553473 18.17106945 7.17972045 41.02561908 5 56 C4.82814402 57.33690981 4.65885232 58.67415187 4.4921875 60.01171875 C4.32976562 61.26597656 4.16734375 62.52023437 4 63.8125 C3.855625 64.93269531 3.71125 66.05289063 3.5625 67.20703125 C3 70 3 70 1 73 C0.38136767 76.20759075 -0.15637604 79.40194217 -0.59179688 82.63867188 C-0.92578125 84.62890625 -0.92578125 84.62890625 -2 88 C-4.60546875 89.46484375 -4.60546875 89.46484375 -7 90 C-5.98890669 86.92961572 -4.95452659 83.8747161 -3.8515625 80.8359375 C5.65235867 54.01914083 6.27820619 27.71940142 0 0 Z " fill="#E02728" transform="translate(390,252)"/>
<path d="M0 0 C0.66 0 1.32 0 2 0 C1.7834375 1.24007812 1.566875 2.48015625 1.34375 3.7578125 C-2.01496309 24.48382138 -3.0100354 46.07836079 1.34375 66.7265625 C2 70 2 70 2 74 C1.34 74 0.68 74 0 74 C-1.6347133 68.98687921 -2.36463389 64.29821158 -2.75390625 59.0390625 C-2.78619224 57.00804547 -2.78619224 57.00804547 -4 56 C-4.08868299 53.04294679 -4.11520296 50.10934944 -4.09765625 47.15234375 C-4.0962413 46.2659169 -4.09482635 45.37949005 -4.09336853 44.46620178 C-4.08775215 41.62326746 -4.07519691 38.78041069 -4.0625 35.9375 C-4.05748711 34.01497509 -4.05292384 32.09244896 -4.04882812 30.16992188 C-4.03777741 25.44658451 -4.02050183 20.72330542 -4 16 C-3.34 16 -2.68 16 -2 16 C-2.02320312 15.09636719 -2.04640625 14.19273437 -2.0703125 13.26171875 C-2.08835937 12.08222656 -2.10640625 10.90273437 -2.125 9.6875 C-2.14820312 8.51574219 -2.17140625 7.34398437 -2.1953125 6.13671875 C-2 3 -2 3 0 0 Z " fill="#D91A19" transform="translate(95,229)"/>
<path d="M0 0 C1.38832031 0.2165625 1.38832031 0.2165625 2.8046875 0.4375 C20.50374534 2.97044385 38.68315585 3.04658117 56.39013672 0.53613281 C58.25164737 0.28424938 60.12617025 0.13201982 62 0 C62.66 0.66 63.32 1.32 64 2 C63.25234375 2.12117188 62.5046875 2.24234375 61.734375 2.3671875 C60.74953125 2.53476562 59.7646875 2.70234375 58.75 2.875 C57.77546875 3.03742188 56.8009375 3.19984375 55.796875 3.3671875 C53.08071487 3.83096961 53.08071487 3.83096961 51.25195312 5.03662109 C48.12543559 6.37413608 45.56282066 6.15724449 42.171875 6.046875 C41.50955872 6.02727219 40.84724243 6.00766937 40.16485596 5.98747253 C38.0259909 5.9199859 35.88819975 5.83587136 33.75 5.75 C32.29166881 5.69858813 30.83333548 5.64723722 29.375 5.59594727 C19.84185423 5.23566436 10.4159053 4.59512869 1 3 C0.67 2.01 0.34 1.02 0 0 Z " fill="#E02626" transform="translate(215,422)"/>
<path d="M0 0 C-0.54081975 3.79405854 -1.98836854 5.15349396 -4.9375 7.5 C-7.87625979 9.84674103 -9.37582109 11.63865583 -11 15 C-13.91489643 16.49481868 -15.70776216 17 -19 17 C-19 17.66 -19 18.32 -19 19 C-19.78375 19.61875 -20.5675 20.2375 -21.375 20.875 C-23.86229156 22.88852174 -24.85538266 24.08642859 -26 27 C-26.66 27 -27.32 27 -28 27 C-28 28.32 -28 29.64 -28 31 C-29.98 31.33 -31.96 31.66 -34 32 C-34 31.34 -34 30.68 -34 30 C-33.34 30 -32.68 30 -32 30 C-31.74927734 29.42475586 -31.49855469 28.84951172 -31.24023438 28.25683594 C-29.83271173 25.69558804 -28.21829975 23.95942608 -26.15625 21.890625 C-25.40472656 21.13652344 -24.65320313 20.38242188 -23.87890625 19.60546875 C-23.09386719 18.82816406 -22.30882813 18.05085938 -21.5 17.25 C-20.71496094 16.45722656 -19.92992188 15.66445312 -19.12109375 14.84765625 C-18.36957031 14.09871094 -17.61804688 13.34976563 -16.84375 12.578125 C-15.81024414 11.54800293 -15.81024414 11.54800293 -14.75585938 10.49707031 C-13 9 -13 9 -11 9 C-11 8.34 -11 7.68 -11 7 C-10.34 7 -9.68 7 -9 7 C-9 6.34 -9 5.68 -9 5 C-7.5390625 3.7109375 -7.5390625 3.7109375 -5.625 2.375 C-4.68527344 1.70597656 -4.68527344 1.70597656 -3.7265625 1.0234375 C-2 0 -2 0 0 0 Z " fill="#F00707" transform="translate(95,54)"/>
<path d="M0 0 C0.33 0 0.66 0 1 0 C1.01417969 0.93457031 1.02835938 1.86914062 1.04296875 2.83203125 C1.37042754 11.8504232 2.73726613 19.94579036 5.2722168 28.61450195 C6.40657119 32.51914758 7.32186174 35.88182031 7 40 C2.93292154 41.76829498 -1.14952186 43.49800681 -5.25 45.1875 C-6.08015625 45.53167969 -6.9103125 45.87585938 -7.765625 46.23046875 C-10 47 -10 47 -13 47 C-13 46.34 -13 45.68 -13 45 C-10.525 44.505 -10.525 44.505 -8 44 C-8 43.34 -8 42.68 -8 42 C-7.071875 41.773125 -6.14375 41.54625 -5.1875 41.3125 C-1.43948491 39.76919967 -0.76970981 38.53941962 1 35 C1.66 34.34 2.32 33.68 3 33 C3.6425235 30.93125966 3.6425235 30.93125966 4 29 C3.01 28.67 2.02 28.34 1 28 C1.0309375 26.5459375 1.0309375 26.5459375 1.0625 25.0625 C1.35618499 22.12534105 1.35618499 22.12534105 0 21 C-0.08685603 19.43827255 -0.10702219 17.87270656 -0.09765625 16.30859375 C-0.09443359 15.36435547 -0.09121094 14.42011719 -0.08789062 13.44726562 C-0.07951172 12.45404297 -0.07113281 11.46082031 -0.0625 10.4375 C-0.05798828 9.44041016 -0.05347656 8.44332031 -0.04882812 7.41601562 C-0.03700007 4.94395151 -0.02051849 2.47200482 0 0 Z " fill="#E72A29" transform="translate(243,133)"/>
<path d="M0 0 C0.33 0 0.66 0 1 0 C1.08040527 0.96711914 1.16081055 1.93423828 1.24365234 2.93066406 C1.54810003 6.57660097 1.85908301 10.22195779 2.171875 13.8671875 C2.30544767 15.43409771 2.4373324 17.00115289 2.56738281 18.56835938 C2.98747315 34.52090086 2.98747315 34.52090086 8 49 C8.1953125 51.12109375 8.1953125 51.12109375 8.125 53.4375 C8.10695313 54.19933594 8.08890625 54.96117187 8.0703125 55.74609375 C8.03550781 56.86177734 8.03550781 56.86177734 8 58 C8 59.32 8 60.64 8 62 C4.62069559 56.93104339 4.10623816 50.91864136 3 45 C2.85884766 44.27071289 2.71769531 43.54142578 2.57226562 42.79003906 C-0.13037214 28.50030045 -0.34936399 14.51204252 0 0 Z " fill="#E63C3B" transform="translate(0,252)"/>
<path d="M0 0 C0.33 0.66 0.66 1.32 1 2 C0.67 2.66 0.34 3.32 0 4 C-0.66 4 -1.32 4 -2 4 C-2.33 5.98 -2.66 7.96 -3 10 C-3.66 10 -4.32 10 -5 10 C-4.773125 10.556875 -4.54625 11.11375 -4.3125 11.6875 C-3.87020324 14.96049601 -5.06487514 16.41983352 -7 19 C-7.66 19 -8.32 19 -9 19 C-8.98839844 19.78246094 -8.97679687 20.56492188 -8.96484375 21.37109375 C-8.95582031 22.38300781 -8.94679687 23.39492187 -8.9375 24.4375 C-8.92589844 25.44683594 -8.91429687 26.45617187 -8.90234375 27.49609375 C-9 30 -9 30 -10 31 C-10.23075082 32.34747084 -10.41153063 33.70377565 -10.5625 35.0625 C-10.7790625 37.0115625 -10.7790625 37.0115625 -11 39 C-10.34 39 -9.68 39 -9 39 C-8.67 43.62 -8.34 48.24 -8 53 C-13.78626784 44.32059825 -12.92560408 31.665905 -11.53515625 21.65234375 C-10.03786239 14.78605534 -7.39949707 8.53919965 -3 3 C-2.34 3 -1.68 3 -1 3 C-0.67 2.01 -0.34 1.02 0 0 Z " fill="#DE2F2E" transform="translate(232,224)"/>
<path d="M0 0 C3.63 0 7.26 0 11 0 C7.85672095 3.14327905 3.96375594 3.25728807 -0.3125 4.0625 C-1.69731567 4.32691895 -1.69731567 4.32691895 -3.11010742 4.59667969 C-13.03364725 6.37062666 -22.93880123 6.79612566 -33 7 C-32.67 6.01 -32.34 5.02 -32 4 C-31.42967041 3.97494385 -30.85934082 3.9498877 -30.27172852 3.92407227 C-27.70173843 3.80843451 -25.13214473 3.68556376 -22.5625 3.5625 C-21.66466797 3.52318359 -20.76683594 3.48386719 -19.84179688 3.44335938 C-18.98779297 3.40146484 -18.13378906 3.35957031 -17.25390625 3.31640625 C-16.46314697 3.27974854 -15.6723877 3.24309082 -14.85766602 3.20532227 C-12.98598559 3.19436743 -12.98598559 3.19436743 -12 2 C-9.98035801 1.92755947 -7.95832876 1.91622812 -5.9375 1.9375 C-4.83277344 1.94652344 -3.72804688 1.95554687 -2.58984375 1.96484375 C-1.73519531 1.97644531 -0.88054687 1.98804688 0 2 C0 1.34 0 0.68 0 0 Z " fill="#E34B4A" transform="translate(297,493)"/>
<path d="M0 0 C0.66 0 1.32 0 2 0 C1.83757812 1.22976562 1.67515625 2.45953125 1.5078125 3.7265625 C0.85555134 9.61074176 0.8533359 15.46070044 0.875 21.375 C0.87113281 22.45394531 0.86726562 23.53289062 0.86328125 24.64453125 C0.86457031 25.67707031 0.86585938 26.70960938 0.8671875 27.7734375 C0.86831543 28.70591309 0.86944336 29.63838867 0.87060547 30.59912109 C0.90164274 33.1461193 0.90164274 33.1461193 2 36 C2.03954234 38.33299825 2.04401732 40.66708189 2 43 C-1.35470129 37.96794807 -2.25337021 33.49434129 -2.265625 27.5 C-2.26820313 26.283125 -2.27078125 25.06625 -2.2734375 23.8125 C-2.26570312 22.554375 -2.25796875 21.29625 -2.25 20 C-2.25773438 18.741875 -2.26546875 17.48375 -2.2734375 16.1875 C-2.27085937 14.970625 -2.26828125 13.75375 -2.265625 12.5 C-2.26224121 10.84484375 -2.26224121 10.84484375 -2.25878906 9.15625 C-1.98592154 5.8282959 -1.18011698 3.11260247 0 0 Z " fill="#E12323" transform="translate(183,236)"/>
<path d="M0 0 C2.58722067 2.58722067 2.69921963 4.49623042 3.4375 8.0625 C4.30935602 12.06070841 5.2236732 15.94477815 6.5625 19.8125 C9.55870725 28.53304006 10.25352953 35.760257 10 45 C8.34477603 42.06482551 7.70079936 39.7250642 7.4375 36.375 C7.18115456 33.06333997 7.18115456 33.06333997 6 30 C5.960008 28.00039988 5.95653201 25.99952758 6 24 C5.34 24 4.68 24 4 24 C1.74190046 15.9901375 0.42741229 8.3124321 0 0 Z " fill="#E43636" transform="translate(265,229)"/>
<path d="M0 0 C0.66 0.66 1.32 1.32 2 2 C-1.46238098 3.73119049 -5.59624528 3.03407576 -9.4140625 2.9609375 C-12.76843822 2.92131889 -15.79420821 2.94784269 -19 4 C-19 4.66 -19 5.32 -19 6 C-19.66 6 -20.32 6 -21 6 C-21.144375 6.61875 -21.28875 7.2375 -21.4375 7.875 C-22 10 -22 10 -23 12 C-23.66 12 -24.32 12 -25 12 C-24.67 16.29 -24.34 20.58 -24 25 C-26.5820675 19.83586501 -26.66019232 15.68590633 -26 10 C-23.68685081 5.10679978 -20.73761056 2.5583097 -16 0 C-10.82585635 -1.52872426 -5.25312316 -1.08652727 0 0 Z " fill="#E13C3D" transform="translate(306,123)"/>
<path d="M0 0 C0.66 0 1.32 0 2 0 C-1.39119594 12.52133885 -6.3737534 23.96071966 -16 33 C-16 32.01 -16 31.02 -16 30 C-15.34 30 -14.68 30 -14 30 C-14.20625 29.4225 -14.4125 28.845 -14.625 28.25 C-15.08661261 25.48032433 -14.42944945 24.35438733 -13 22 C-12.01 22 -11.02 22 -10 22 C-9.87625 21.360625 -9.7525 20.72125 -9.625 20.0625 C-9.41875 19.381875 -9.2125 18.70125 -9 18 C-8.34 17.67 -7.68 17.34 -7 17 C-6.27306096 15.02111039 -5.60183749 13.02045442 -5 11 C-4.34 11 -3.68 11 -3 11 C-3 9.35 -3 7.7 -3 6 C-2.34 6 -1.68 6 -1 6 C-0.67 4.02 -0.34 2.04 0 0 Z " fill="#E23E3E" transform="translate(352,314)"/>
<path d="M0 0 C0.33 0 0.66 0 1 0 C-0.30053805 19.95080707 -0.30053805 19.95080707 -3 24 C-3.61863233 27.20759075 -4.15637604 30.40194217 -4.59179688 33.63867188 C-4.92578125 35.62890625 -4.92578125 35.62890625 -6 39 C-8.60546875 40.46484375 -8.60546875 40.46484375 -11 41 C-9.98890669 37.92961572 -8.95452659 34.8747161 -7.8515625 31.8359375 C-4.15508862 21.40575961 -1.97637153 10.875564 0 0 Z " fill="#E34F50" transform="translate(394,301)"/>
<path d="M0 0 C0.66 0 1.32 0 2 0 C-3.92356891 26.51668202 -3.92356891 26.51668202 -11 35 C-11 33.35 -11 31.7 -11 30 C-10.34 30 -9.68 30 -9 30 C-9 28.02 -9 26.04 -9 24 C-8.34 24 -7.68 24 -7 24 C-7 22.35 -7 20.7 -7 19 C-6.34 19 -5.68 19 -5 19 C-4.8453125 17.329375 -4.8453125 17.329375 -4.6875 15.625 C-3.14732143 3.14732143 -3.14732143 3.14732143 0 0 Z " fill="#E8514F" transform="translate(488,321)"/>
<path d="M0 0 C0.33 0 0.66 0 1 0 C2.72243169 13.34884559 2.84575992 26.80979891 0 40 C-0.33421981 41.66648913 -0.66781776 43.33310353 -1 45 C-1.33 45 -1.66 45 -2 45 C-1.34 30.15 -0.68 15.3 0 0 Z " fill="#E24A4A" transform="translate(356,269)"/>
<path d="M0 0 C-7.44843382 6.23161047 -18.45639914 8.94454296 -27.625 11.875 C-28.61838379 12.19766846 -28.61838379 12.19766846 -29.63183594 12.52685547 C-33.18540387 13.62676935 -36.27869708 14.24238371 -40 14 C-34.22808913 10.15205942 -27.68352194 8.55153188 -21 7 C-21 6.67 -21 6.34 -21 6 C-19.02 6 -17.04 6 -15 6 C-15 5.34 -15 4.68 -15 4 C-13.68 4 -12.36 4 -11 4 C-11 3.34 -11 2.68 -11 2 C-7.36576791 -0.32590854 -4.22911669 -0.16265833 0 0 Z " fill="#E44847" transform="translate(356,477)"/>
<path d="M0 0 C0.66 0 1.32 0 2 0 C2 0.99 2 1.98 2 3 C2.66 3 3.32 3 4 3 C4 3.99 4 4.98 4 6 C4.66 6.33 5.32 6.66 6 7 C7.0703125 8.55859375 7.0703125 8.55859375 8.125 10.4375 C8.65480469 11.36369141 8.65480469 11.36369141 9.1953125 12.30859375 C10 14 10 14 10 16 C10.66 16 11.32 16 12 16 C12 17.65 12 19.3 12 21 C12.66 21 13.32 21 14 21 C14.98248524 25.0527516 15.08159574 28.83861737 15 33 C13.41629388 30.02681586 12.19374356 26.96686359 10.99487305 23.8215332 C8.57555231 17.49926372 5.93848457 11.73328757 2.19921875 6.05078125 C1.00901881 4.01542304 0.44200017 2.30360089 0 0 Z " fill="#E33E3E" transform="translate(375,219)"/>
<path d="M0 0 C0.33 0 0.66 0 1 0 C1 1.98 1 3.96 1 6 C0.34 6 -0.32 6 -1 6 C-0.96519531 6.556875 -0.93039063 7.11375 -0.89453125 7.6875 C-0.71880979 12.64117168 -1.27367531 15.99203811 -3.265625 20.60546875 C-4.87784104 25.86232213 -4.77747121 31.53653453 -5 37 C-5.66 37 -6.32 37 -7 37 C-8.25749268 25.06779168 -4.89077638 10.92425751 0 0 Z " fill="#E33433" transform="translate(10,177)"/>
<path d="M0 0 C1.32 0.33 2.64 0.66 4 1 C1.27555809 2.79893099 -1.45534125 4.58781521 -4.1875 6.375 C-4.95642578 6.88289063 -5.72535156 7.39078125 -6.51757812 7.9140625 C-10.24374958 10.34486963 -13.74588876 12.58480468 -18 14 C-17.38947076 9.37742145 -17.38947076 9.37742145 -16 7 C-11.81012173 4.62218259 -7.77113648 4 -3 4 C-3 3.34 -3 2.68 -3 2 C-2.01 2 -1.02 2 0 2 C0 1.34 0 0.68 0 0 Z " fill="#E93738" transform="translate(393,453)"/>
<path d="M0 0 C0.66 0.33 1.32 0.66 2 1 C2 1.66 2 2.32 2 3 C0.0324413 4.85999285 -2.05555598 6.53390198 -4.15234375 8.24609375 C-6.24798169 9.96005081 -6.24798169 9.96005081 -7 13 C-8.8253125 12.9690625 -8.8253125 12.9690625 -10.6875 12.9375 C-13.91977322 12.93175884 -16.84934741 13.21233685 -20 14 C-16.42551275 11.22483277 -12.67222683 8.7669961 -8.875 6.3125 C-7.92560547 5.68891602 -7.92560547 5.68891602 -6.95703125 5.05273438 C-2.23506773 2 -2.23506773 2 0 2 C0 1.34 0 0.68 0 0 Z " fill="#E73D42" transform="translate(341,393)"/>
<path d="M0 0 C1.125 3.75 1.125 3.75 0 6 C-0.66 6 -1.32 6 -2 6 C-2 7.65 -2 9.3 -2 11 C-2.66 11 -3.32 11 -4 11 C-4.2475 11.639375 -4.495 12.27875 -4.75 12.9375 C-6.40811572 16.99988351 -8.2035584 20.99724906 -10 25 C-10.66 25 -11.32 25 -12 25 C-12.33 26.65 -12.66 28.3 -13 30 C-13.66 30 -14.32 30 -15 30 C-11.70150605 19.32840193 -5.92469857 9.41875157 0 0 Z " fill="#E52828" transform="translate(37,116)"/>
<path d="M0 0 C0.625 1.8125 0.625 1.8125 1 4 C0.01 5.485 0.01 5.485 -1 7 C-1.66 7 -2.32 7 -3 7 C-3 7.99 -3 8.98 -3 10 C-3.66 10 -4.32 10 -5 10 C-5.33 10.99 -5.66 11.98 -6 13 C-6.66 13 -7.32 13 -8 13 C-8.4021875 14.36125 -8.4021875 14.36125 -8.8125 15.75 C-9.89576294 18.71471963 -10.98359457 20.6169754 -13 23 C-13.99 22.67 -14.98 22.34 -16 22 C-14.3832351 19.4943127 -12.75724022 16.99557389 -11.125 14.5 C-10.66480469 13.78457031 -10.20460938 13.06914063 -9.73046875 12.33203125 C-9.28574219 11.65527344 -8.84101562 10.97851562 -8.3828125 10.28125 C-7.97434082 9.65283203 -7.56586914 9.02441406 -7.14501953 8.37695312 C-6.76716309 7.92255859 -6.38930664 7.46816406 -6 7 C-5.34 7 -4.68 7 -4 7 C-3.34 5.35 -2.68 3.7 -2 2 C-1.34 2 -0.68 2 0 2 C0 1.34 0 0.68 0 0 Z " fill="#E93A39" transform="translate(54,93)"/>
<path d="M0 0 C1.8253125 0.0309375 1.8253125 0.0309375 3.6875 0.0625 C3.3575 0.7225 3.0275 1.3825 2.6875 2.0625 C-0.6125 2.0625 -3.9125 2.0625 -7.3125 2.0625 C-7.3125 2.7225 -7.3125 3.3825 -7.3125 4.0625 C-9.0140625 4.2790625 -9.0140625 4.2790625 -10.75 4.5 C-14.12027201 4.67421478 -14.12027201 4.67421478 -15.3125 6.0625 C-16.70237207 6.27317535 -18.10039562 6.43121383 -19.5 6.5625 C-23.13531711 6.9283546 -26.71427034 7.41666391 -30.3125 8.0625 C-28.10795545 5.85795545 -27.08888612 5.56312418 -24.13671875 4.80859375 C-23.30849609 4.59396484 -22.48027344 4.37933594 -21.62695312 4.15820312 C-20.76005859 3.94099609 -19.89316406 3.72378906 -19 3.5 C-18.14470703 3.27892578 -17.28941406 3.05785156 -16.40820312 2.83007812 C-5.03705947 -0.08537389 -5.03705947 -0.08537389 0 0 Z " fill="#E23736" transform="translate(207.3125,2.9375)"/>
<path d="M0 0 C-0.74765625 0.45890625 -1.4953125 0.9178125 -2.265625 1.390625 C-3.25046875 2.00421875 -4.2353125 2.6178125 -5.25 3.25 C-6.22453125 3.85328125 -7.1990625 4.4565625 -8.203125 5.078125 C-11.03411763 6.8983254 -11.03411763 6.8983254 -13.234375 9.234375 C-13.81703125 9.81703125 -14.3996875 10.3996875 -15 11 C-15.66 11 -16.32 11 -17 11 C-17 11.66 -17 12.32 -17 13 C-17.66 13 -18.32 13 -19 13 C-19.33 11.35 -19.66 9.7 -20 8 C-17 7 -17 7 -13 7 C-13 5.68 -13 4.36 -13 3 C-11.35 3 -9.7 3 -8 3 C-8 2.01 -8 1.02 -8 0 C-4.90645403 -0.99435406 -3.09720845 -0.87840996 0 0 Z " fill="#EE3031" transform="translate(277,90)"/>
<path d="M0 0 C4.98897224 2.49448612 7.35861806 11.09952141 9.05859375 16.13671875 C10.09407924 19.84762131 11 23.13581842 11 27 C10.01 26.67 9.02 26.34 8 26 C7.67 22.04 7.34 18.08 7 14 C6.01 13.67 5.02 13.34 4 13 C4 11.68 4 10.36 4 9 C2.68 8.67 1.36 8.34 0 8 C0.66 8 1.32 8 2 8 C1.34 5.36 0.68 2.72 0 0 Z " fill="#E34542" transform="translate(345,242)"/>
<path d="M0 0 C5.56451613 -0.37096774 5.56451613 -0.37096774 7.6875 1.4375 C8.120625 1.953125 8.55375 2.46875 9 3 C9.99 3.33 10.98 3.66 12 4 C12.474375 4.515625 12.94875 5.03125 13.4375 5.5625 C15.13676051 7.45137102 15.13676051 7.45137102 19 7 C19 7.99 19 8.98 19 10 C19.99 10 20.98 10 22 10 C22.33 11.32 22.66 12.64 23 14 C18.96586128 14 17.01982229 11.96595759 14 9.5625 C9.8311066 6.22545814 9.8311066 6.22545814 5 4 C5 3.34 5 2.68 5 2 C3.35 1.67 1.7 1.34 0 1 C0 0.67 0 0.34 0 0 Z " fill="#E7393A" transform="translate(329,179)"/>
<path d="M0 0 C-0.33 0.99 -0.66 1.98 -1 3 C-2.98 3.33 -4.96 3.66 -7 4 C-7.33 5.65 -7.66 7.3 -8 9 C-10.64 8.67 -13.28 8.34 -16 8 C-16 8.66 -16 9.32 -16 10 C-17.98 10 -19.96 10 -22 10 C-19.15782994 7.74858122 -16.31442078 6.03590174 -13.0625 4.4375 C-12.22847656 4.02371094 -11.39445313 3.60992187 -10.53515625 3.18359375 C-3.71617162 0 -3.71617162 0 0 0 Z " fill="#EA2426" transform="translate(212,149)"/>
<path d="M0 0 C0 4.30967916 -2.16725288 5.89746745 -5 9 C-5.99 9.495 -5.99 9.495 -7 10 C-8.13350534 12.01669827 -8.13350534 12.01669827 -9 14 C-9.66 14 -10.32 14 -11 14 C-11 15.32 -11 16.64 -11 18 C-12.98 18.33 -14.96 18.66 -17 19 C-17 18.34 -17 17.68 -17 17 C-16.34 17 -15.68 17 -15 17 C-14.73268066 16.40670898 -14.46536133 15.81341797 -14.18994141 15.20214844 C-12.98415007 12.97066755 -11.7641905 11.5335201 -9.9609375 9.765625 C-9.38085938 9.19199219 -8.80078125 8.61835937 -8.203125 8.02734375 C-7.59984375 7.44082031 -6.9965625 6.85429688 -6.375 6.25 C-5.76398438 5.64800781 -5.15296875 5.04601562 -4.5234375 4.42578125 C-3.02011376 2.94594695 -1.51065144 1.47235324 0 0 Z " fill="#E23634" transform="translate(78,67)"/>
<path d="M0 0 C0.33 0.66 0.66 1.32 1 2 C0.67 2.66 0.34 3.32 0 4 C-0.66 4 -1.32 4 -2 4 C-2.33 5.98 -2.66 7.96 -3 10 C-3.66 10 -4.32 10 -5 10 C-4.773125 10.556875 -4.54625 11.11375 -4.3125 11.6875 C-3.87020324 14.96049601 -5.06487514 16.41983352 -7 19 C-7.66 19 -8.32 19 -9 19 C-9.33 19.66 -9.66 20.32 -10 21 C-9.7362658 13.87917647 -7.3696036 8.65614471 -3 3 C-2.34 3 -1.68 3 -1 3 C-0.67 2.01 -0.34 1.02 0 0 Z " fill="#E43C3A" transform="translate(232,224)"/>
<path d="M0 0 C0.33 0 0.66 0 1 0 C3.29612756 17.85649203 3.29612756 17.85649203 3 26 C2.01 25.67 1.02 25.34 0 25 C0 16.75 0 8.5 0 0 Z " fill="#E43435" transform="translate(497,211)"/>
<path d="M0 0 C0.99 0 1.98 0 3 0 C0.56541729 8.41217604 -2.20143786 16.70386716 -5 25 C-5.33 25 -5.66 25 -6 25 C-6 22.03 -6 19.06 -6 16 C-5.34 16 -4.68 16 -4 16 C-3.87882812 15.26394531 -3.75765625 14.52789062 -3.6328125 13.76953125 C-3.46523437 12.79371094 -3.29765625 11.81789062 -3.125 10.8125 C-2.96257812 9.84957031 -2.80015625 8.88664063 -2.6328125 7.89453125 C-2.01960483 5.08967396 -1.14333657 2.62775253 0 0 Z " fill="#E44F4E" transform="translate(103,201)"/>
<path d="M0 0 C-4.10578153 3.23725082 -8.59199859 5.6974392 -13.125 8.28125 C-15.96139671 9.90325043 -15.96139671 9.90325043 -18.25 11.71875 C-20 13 -20 13 -22 13 C-22.33 12.01 -22.66 11.02 -23 10 C-20.09399739 8.74335022 -18.20395416 8 -15 8 C-15 7.34 -15 6.68 -15 6 C-14.34 6 -13.68 6 -13 6 C-13 5.34 -13 4.68 -13 4 C-4.738041 -0.59225513 -4.738041 -0.59225513 0 0 Z " fill="#E74044" transform="translate(182,121)"/>
<path d="M0 0 C-0.99 0 -1.98 0 -3 0 C-3 0.66 -3 1.32 -3 2 C-5.31 2 -7.62 2 -10 2 C-10 2.66 -10 3.32 -10 4 C-16.27 4 -22.54 4 -29 4 C-29.33 3.34 -29.66 2.68 -30 2 C-29.35675781 2.02320313 -28.71351563 2.04640625 -28.05078125 2.0703125 C-19.3582944 2.24391423 -7.77853426 -2.33356028 0 0 Z " fill="#E43939" transform="translate(269,327)"/>
<path d="M0 0 C0.66 0.33 1.32 0.66 2 1 C0.35178756 2.03013277 -1.32111559 3.02065076 -3 4 C-3.94166016 4.556875 -3.94166016 4.556875 -4.90234375 5.125 C-8.46532405 7.09455533 -10.33920832 8.04719941 -14.5 7.75 C-15.325 7.5025 -16.15 7.255 -17 7 C-17 7.66 -17 8.32 -17 9 C-18.65 9 -20.3 9 -22 9 C-22.33 8.34 -22.66 7.68 -23 7 C-22.3387915 6.823479 -21.67758301 6.64695801 -20.99633789 6.46508789 C-18.01744177 5.66772647 -15.03996581 4.86518511 -12.0625 4.0625 C-11.02158203 3.78470703 -9.98066406 3.50691406 -8.90820312 3.22070312 C-7.42416992 2.81948242 -7.42416992 2.81948242 -5.91015625 2.41015625 C-4.99371338 2.16402588 -4.07727051 1.91789551 -3.13305664 1.66430664 C-1.03825076 1.1932065 -1.03825076 1.1932065 0 0 Z " fill="#E43F3D" transform="translate(303,414)"/>
<path d="M0 0 C3 1 3 1 4 3 C4.76961814 10.49431435 3.88588876 15.56399674 0 22 C-0.99 21.67 -1.98 21.34 -3 21 C-2.525625 20.4225 -2.05125 19.845 -1.5625 19.25 C1.99313743 14.1298821 1.49112633 7.94675799 0.5 2 C0.335 1.34 0.17 0.68 0 0 Z " fill="#E2494A" transform="translate(347,108)"/>
<path d="M0 0 C0.33 0.66 0.66 1.32 1 2 C1.66 2 2.32 2 3 2 C3 3.65 3 5.3 3 7 C3.66 7 4.32 7 5 7 C5 7.99 5 8.98 5 10 C5.66 10 6.32 10 7 10 C7.66 12.64 8.32 15.28 9 18 C9.66 18 10.32 18 11 18 C11 19.65 11 21.3 11 23 C11.66 23.33 12.32 23.66 13 24 C12.34 24.66 11.68 25.32 11 26 C10.45730469 24.84242188 9.91460937 23.68484375 9.35546875 22.4921875 C8.63285153 20.95310667 7.9101931 19.4140452 7.1875 17.875 C6.83107422 17.11445313 6.47464844 16.35390625 6.10742188 15.5703125 C5.75615234 14.82265625 5.40488281 14.075 5.04296875 13.3046875 C4.6979834 12.56959961 4.35299805 11.83451172 3.99755859 11.07714844 C3.11676882 9.24313978 2.18146523 7.43552777 1.23828125 5.6328125 C0 3 0 3 0 0 Z " fill="#E54240" transform="translate(18,344)"/>
<path d="M0 0 C1.11181641 -0.01836914 1.11181641 -0.01836914 2.24609375 -0.03710938 C6.06787651 -0.04740143 9.01290641 0.03227716 12.25 2.1875 C11.18523437 2.15269531 10.12046875 2.11789063 9.0234375 2.08203125 C-0.71781386 1.86558405 -9.28133141 2.66652326 -18.75 5.1875 C-18.75 4.5275 -18.75 3.8675 -18.75 3.1875 C-18.09 3.1875 -17.43 3.1875 -16.75 3.1875 C-16.75 2.5275 -16.75 1.8675 -16.75 1.1875 C-11.13151972 0.39303163 -5.67188824 0.0050372 0 0 Z " fill="#D93737" transform="translate(296.75,83.8125)"/>
<path d="M0 0 C9.11689851 0.72356337 18.01638277 2.34292907 27 4 C27 4.33 27 4.66 27 5 C23.99872105 4.912261 21.00013004 4.80528288 18 4.6875 C17.16082031 4.66494141 16.32164062 4.64238281 15.45703125 4.61914062 C9.71202023 4.37419829 5.28363267 3.28101272 0 1 C0 0.67 0 0.34 0 0 Z " fill="#E54747" transform="translate(279,1)"/>
<path d="M0 0 C5.84220181 -0.23368807 10.10964787 0.63088583 15.375 3.125 C19.02343543 4.34114514 22.1628306 4.13007354 26 4 C26.33 4.66 26.66 5.32 27 6 C20.16407446 7.3845914 15.51684964 6.34990421 9 4.0625 C8.12988281 3.77181641 7.25976562 3.48113281 6.36328125 3.18164062 C4.23678402 2.46891353 2.11655484 1.74162497 0 1 C0 0.67 0 0.34 0 0 Z " fill="#E63333" transform="translate(167,486)"/>
<path d="M0 0 C0.33 0 0.66 0 1 0 C1.4375 2.125 1.4375 2.125 1 5 C-0.6726711 6.75416021 -2.44763882 8.19526285 -4.37109375 9.66796875 C-6.13166095 10.92224334 -6.13166095 10.92224334 -7 13 C-8.97888961 13.72693904 -10.97954558 14.39816251 -13 15 C-11.00396156 12.66317451 -9.0036279 10.33030636 -7 8 C-6.36578125 7.25878906 -5.7315625 6.51757812 -5.078125 5.75390625 C-4.45421875 5.03074219 -3.8303125 4.30757813 -3.1875 3.5625 C-2.60355469 2.88316406 -2.01960938 2.20382812 -1.41796875 1.50390625 C-0.95003906 1.00761719 -0.48210937 0.51132812 0 0 Z " fill="#E92F2F" transform="translate(364,371)"/>
<path d="M0 0 C1.98 0.99 1.98 0.99 4 2 C4 2.66 4 3.32 4 4 C4.71542969 4.23460937 5.43085938 4.46921875 6.16796875 4.7109375 C9.49149637 6.22371559 11.64795001 8.13808667 14.3125 10.625 C15.19550781 11.44226563 16.07851563 12.25953125 16.98828125 13.1015625 C17.98408203 14.04128906 17.98408203 14.04128906 19 15 C16 16 16 16 13.9375 15.3125 C11.65443791 13.76590955 11.21285775 12.42571551 10 10 C8.06669397 8.90833725 8.06669397 8.90833725 6 8 C4.25 6.5 4.25 6.5 3 5 C3 4.34 3 3.68 3 3 C2.01 3 1.02 3 0 3 C0 2.01 0 1.02 0 0 Z " fill="#E63E3C" transform="translate(317,214)"/>
<path d="M0 0 C0.66 0.33 1.32 0.66 2 1 C0.7819075 4.65427749 -0.63824799 5.13131136 -3.96679688 6.80078125 C-4.94229492 7.27064453 -4.94229492 7.27064453 -5.9375 7.75 C-6.58396484 8.07871094 -7.23042969 8.40742187 -7.89648438 8.74609375 C-9.56500556 9.56735963 -11.28060285 10.29139996 -13 11 C-13.66 10.67 -14.32 10.34 -15 10 C-13.43902526 8.8936781 -11.87614673 7.79004215 -10.3125 6.6875 C-9.44238281 6.07261719 -8.57226562 5.45773438 -7.67578125 4.82421875 C-2.63127561 1.38511783 -2.63127561 1.38511783 0 0 Z " fill="#E63B3B" transform="translate(126,31)"/>
<path d="M0 0 C2.97 0 5.94 0 9 0 C9.33 1.32 9.66 2.64 10 4 C11.9001177 5.24174796 11.9001177 5.24174796 14 6 C14.66 6.33 15.32 6.66 16 7 C16 7.66 16 8.32 16 9 C16.66 9 17.32 9 18 9 C17.67 9.66 17.34 10.32 17 11 C14.91514333 9.73161177 12.83210424 8.46039242 10.75 7.1875 C10.16347656 6.83107422 9.57695312 6.47464844 8.97265625 6.10742188 C5.86502639 4.20443505 2.8676454 2.2501079 0 0 Z " fill="#E52A26" transform="translate(324,91)"/>
<path d="M0 0 C0.33 0 0.66 0 1 0 C1.1875 2.8125 1.1875 2.8125 1 6 C0.02149805 7.02104551 -0.97980427 8.0206121 -2 9 C-2.7269226 12.10839021 -2.7269226 12.10839021 -3 15 C-4.98 15.66 -6.96 16.32 -9 17 C-9 16.34 -9 15.68 -9 15 C-8.34 15 -7.68 15 -7 15 C-6.89816406 14.45859375 -6.79632813 13.9171875 -6.69140625 13.359375 C-5.82242393 10.39403419 -4.44527709 7.94475054 -2.9375 5.25 C-2.11572266 3.77273438 -2.11572266 3.77273438 -1.27734375 2.265625 C-0.85582031 1.51796875 -0.43429687 0.7703125 0 0 Z " fill="#EA4041" transform="translate(382,343)"/>
<path d="M0 0 C3.40597755 1.13532585 3.53452572 1.48116822 5.0625 4.5 C6.42445528 7.33019068 6.42445528 7.33019068 9 9 C9 10.65 9 12.3 9 14 C9.66 14 10.32 14 11 14 C11.33 15.65 11.66 17.3 12 19 C6.55005944 14.37580801 3.23492352 8.31136375 0 2 C0 1.34 0 0.68 0 0 Z " fill="#E44B4D" transform="translate(30,370)"/>
<path d="M0 0 C0.78375 0.04125 1.5675 0.0825 2.375 0.125 C-1.29206709 3.22209224 -5.03882634 5.63829599 -9.25 7.9375 C-10.37664062 8.56269531 -11.50328125 9.18789063 -12.6640625 9.83203125 C-15.625 11.125 -15.625 11.125 -18.625 10.125 C-18.295 9.465 -17.965 8.805 -17.625 8.125 C-16.305 8.125 -14.985 8.125 -13.625 8.125 C-13.625 7.465 -13.625 6.805 -13.625 6.125 C-12.305 6.125 -10.985 6.125 -9.625 6.125 C-9.625 5.465 -9.625 4.805 -9.625 4.125 C-7.975 4.125 -6.325 4.125 -4.625 4.125 C-4.625 3.465 -4.625 2.805 -4.625 2.125 C-2.625 0.125 -2.625 0.125 0 0 Z " fill="#E74947" transform="translate(312.625,366.875)"/>
<path d="M0 0 C0.66 0 1.32 0 2 0 C1.01 7.26 0.02 14.52 -1 22 C-1.33 22 -1.66 22 -2 22 C-2.05807043 18.89591193 -2.09361914 15.7919636 -2.125 12.6875 C-2.14175781 11.80642578 -2.15851563 10.92535156 -2.17578125 10.01757812 C-2.18222656 9.17001953 -2.18867187 8.32246094 -2.1953125 7.44921875 C-2.20578613 6.66893311 -2.21625977 5.88864746 -2.22705078 5.0847168 C-2 3 -2 3 0 0 Z " fill="#E84D4E" transform="translate(95,229)"/>
<path d="M0 0 C0.33 0 0.66 0 1 0 C0.67 6.93 0.34 13.86 0 21 C-0.66 21 -1.32 21 -2 21 C-2.19181946 6.82667294 -2.19181946 6.82667294 -1 1 C-0.67 0.67 -0.34 0.34 0 0 Z " fill="#E54A47" transform="translate(2,215)"/>
<path d="M0 0 C1.32 0 2.64 0 4 0 C2.37879192 3.56496018 0.2405574 6.59008822 -2.0625 9.75 C-2.77535156 10.73484375 -3.48820313 11.7196875 -4.22265625 12.734375 C-4.80917969 13.48203125 -5.39570313 14.2296875 -6 15 C-6.33 15 -6.66 15 -7 15 C-7 13.35 -7 11.7 -7 10 C-6.01 9.67 -5.02 9.34 -4 9 C-3.67 7.35 -3.34 5.7 -3 4 C-2.01 4 -1.02 4 0 4 C0 2.68 0 1.36 0 0 Z " fill="#EA4644" transform="translate(201,199)"/>
<path d="M0 0 C0.66 0.33 1.32 0.66 2 1 C-0.31944788 4.47917182 -2.26369964 5.29429766 -6 7 C-6 8.65 -6 10.3 -6 12 C-6.99 12.495 -6.99 12.495 -8 13 C-8 12.34 -8 11.68 -8 11 C-10.31 11.33 -12.62 11.66 -15 12 C-11.99764638 8.82608332 -8.80246358 6.28747399 -5.25 3.75 C-4.26515625 3.04359375 -3.2803125 2.3371875 -2.265625 1.609375 C-1.51796875 1.07828125 -0.7703125 0.5471875 0 0 Z " fill="#EA4044" transform="translate(188,159)"/>
<path d="M0 0 C0 0.66 0 1.32 0 2 C-0.66 2 -1.32 2 -2 2 C-2.66 3.65 -3.32 5.3 -4 7 C-4.66 7 -5.32 7 -6 7 C-6.28875 7.969375 -6.5775 8.93875 -6.875 9.9375 C-8 13 -8 13 -10 14 C-9.6153821 8.32688601 -9.17694415 5.17694415 -5 1 C-3 0 -3 0 0 0 Z " fill="#E93E3F" transform="translate(258,103)"/>
<path d="M0 0 C5.61 0 11.22 0 17 0 C10.95181775 3.02409113 5.62266675 3.11418391 -1 3 C-0.67 2.01 -0.34 1.02 0 0 Z " fill="#E32421" transform="translate(265,497)"/>
<path d="M0 0 C0.66 0 1.32 0 2 0 C3.49821059 3.37097383 4 5.20442119 4 9 C4.99 9.33 5.98 9.66 7 10 C7.95685425 14.21015871 8.13181214 16.25712373 6 20 C4.99513105 17.04329782 3.99693976 14.08438423 3 11.125 C2.71382812 10.28324219 2.42765625 9.44148438 2.1328125 8.57421875 C1.86210937 7.76855469 1.59140625 6.96289062 1.3125 6.1328125 C1.06113281 5.38918457 0.80976563 4.64555664 0.55078125 3.87939453 C0 2 0 2 0 0 Z " fill="#E43F3D" transform="translate(133,295)"/>
<path d="M0 0 C0.33 1.32 0.66 2.64 1 4 C0.01 4.495 0.01 4.495 -1 5 C-1.65213292 7.02463255 -1.65213292 7.02463255 -2 9 C-1.34 9.33 -0.68 9.66 0 10 C-0.66 10.66 -1.32 11.32 -2 12 C-2.99 12 -3.98 12 -5 12 C-5.33 12.99 -5.66 13.98 -6 15 C-6.66 14.67 -7.32 14.34 -8 14 C-7.043419 12.22821947 -6.08467012 10.45760924 -5.125 8.6875 C-4.59132812 7.70136719 -4.05765625 6.71523437 -3.5078125 5.69921875 C-2 3 -2 3 0 0 Z " fill="#E44A49" transform="translate(150,196)"/>
<path d="M0 0 C2.33524782 2.25740623 4.18705073 4.2805761 6 7 C6 7.99 6 8.98 6 10 C6.66 10 7.32 10 8 10 C8.33 11.32 8.66 12.64 9 14 C8.34 14 7.68 14 7 14 C7 13.34 7 12.68 7 12 C5.02 12 3.04 12 1 12 C1.66 10.02 2.32 8.04 3 6 C2.34 6 1.68 6 1 6 C0.67 4.02 0.34 2.04 0 0 Z " fill="#E73838" transform="translate(112,344)"/>
<path d="M0 0 C0.33 0.99 0.66 1.98 1 3 C0.360625 3.28875 -0.27875 3.5775 -0.9375 3.875 C-3.15206079 4.82823451 -3.15206079 4.82823451 -4 7 C-4.99 7 -5.98 7 -7 7 C-7 7.66 -7 8.32 -7 9 C-7.99 9 -8.98 9 -10 9 C-10 9.99 -10 10.98 -10 12 C-11.32 12 -12.64 12 -14 12 C-14 11.34 -14 10.68 -14 10 C-12.35 9.34 -10.7 8.68 -9 8 C-9 7.34 -9 6.68 -9 6 C-7.03125 4.4921875 -7.03125 4.4921875 -4.5 2.875 C-3.24703125 2.06675781 -3.24703125 2.06675781 -1.96875 1.2421875 C-0.99421875 0.62730469 -0.99421875 0.62730469 0 0 Z " fill="#E83B3F" transform="translate(109,42)"/>
<path d="M0 0 C3.78699616 3.36621881 6.8272631 7.41641804 9 12 C8.67 12.66 8.34 13.32 8 14 C6 12.6875 6 12.6875 4 11 C4 10.01 4 9.02 4 8 C2.68 7.67 1.36 7.34 0 7 C0 4.69 0 2.38 0 0 Z " fill="#E94042" transform="translate(457,109)"/>
<path d="M0 0 C0.33 0 0.66 0 1 0 C1.50400451 2.91602609 2.00334666 5.83272092 2.5 8.75 C2.64308594 9.575 2.78617187 10.4 2.93359375 11.25 C3.06894531 12.04921875 3.20429687 12.8484375 3.34375 13.671875 C3.46943359 14.4050293 3.59511719 15.13818359 3.72460938 15.89355469 C4 18 4 18 4 22 C3.34 22 2.68 22 2 22 C0.2958322 16.84053135 -0.22225605 12.5574667 -0.125 7.0625 C-0.11597656 6.37865234 -0.10695313 5.69480469 -0.09765625 4.99023438 C-0.07438958 3.32666713 -0.03853167 1.66328369 0 0 Z " fill="#E24D50" transform="translate(93,281)"/>
<path d="M0 0 C0 0.66 0 1.32 0 2 C-0.60328125 2.19335938 -1.2065625 2.38671875 -1.828125 2.5859375 C-2.62734375 2.84632813 -3.4265625 3.10671875 -4.25 3.375 C-5.03890625 3.63023437 -5.8278125 3.88546875 -6.640625 4.1484375 C-9.0057443 4.92656738 -9.0057443 4.92656738 -11.046875 6.1640625 C-13.45034648 7.19274829 -14.58389983 6.86289292 -17 6 C-15.58671871 5.18162558 -14.16921654 4.37053781 -12.75 3.5625 C-11.56664062 2.88380859 -11.56664062 2.88380859 -10.359375 2.19140625 C-6.65564285 0.32114415 -4.18955307 0 0 0 Z " fill="#E34545" transform="translate(261,209)"/>
<path d="M0 0 C0.33 0.66 0.66 1.32 1 2 C1.99 2.33 2.98 2.66 4 3 C3.01 3.33 2.02 3.66 1 4 C1 4.66 1 5.32 1 6 C-0.75 7.5078125 -0.75 7.5078125 -3 9.125 C-3.7425 9.66382813 -4.485 10.20265625 -5.25 10.7578125 C-5.8275 11.16773438 -6.405 11.57765625 -7 12 C-7 10.02 -7 8.04 -7 6 C-4.50935112 5.31292445 -2.62113708 5 0 5 C0 3.35 0 1.7 0 0 Z " fill="#EA3F41" transform="translate(153,134)"/>
<path d="M0 0 C5.36003225 -0.32160194 8.30848371 0.50451261 13 3 C16.2366963 3.70758326 16.2366963 3.70758326 19 4 C19 4.66 19 5.32 19 6 C12.16018724 5.48378772 6.36123316 3.51409031 0 1 C0 0.67 0 0.34 0 0 Z " fill="#E13E3F" transform="translate(205,379)"/>
<path d="M0 0 C0 0.66 0 1.32 0 2 C-3.08809695 3.76462683 -4.23312136 4 -8 4 C-8 4.66 -8 5.32 -8 6 C-14.96428571 8.27678571 -14.96428571 8.27678571 -19 7 C-16.91870896 6.01649975 -14.83488641 5.03835542 -12.75 4.0625 C-11.58984375 3.51722656 -10.4296875 2.97195312 -9.234375 2.41015625 C-6.05302208 1.02311712 -3.46337445 0 0 0 Z " fill="#E74B4C" transform="translate(163,15)"/>
<path d="M0 0 C1.32 0 2.64 0 4 0 C3.01 3.96 2.02 7.92 1 12 C-0.80330533 8.39338934 -1.46599103 5.91606575 -2 2 C-1.34 2 -0.68 2 0 2 C0 1.34 0 0.68 0 0 Z " fill="#ED3234" transform="translate(244,118)"/>
<path d="M0 0 C4.23322844 0.62045463 7.52290295 2.10523559 11.3125 4.0625 C12.38113281 4.61035156 13.44976562 5.15820312 14.55078125 5.72265625 C15.35902344 6.14417969 16.16726563 6.56570312 17 7 C14.3333581 8.33332095 12.83319697 7.67102033 10 7 C10 6.34 10 5.68 10 5 C8.35 5 6.7 5 5 5 C5 4.34 5 3.68 5 3 C4.01 3 3.02 3 2 3 C2 2.34 2 1.68 2 1 C1.34 0.67 0.68 0.34 0 0 Z " fill="#E53F3E" transform="translate(344,18)"/>
<path d="M0 0 C0.33 0 0.66 0 1 0 C0.40984815 5.50808397 -0.56663769 10.64878069 -2 16 C-2.33 16 -2.66 16 -3 16 C-3.08133791 14.08404032 -3.13934367 12.16708068 -3.1875 10.25 C-3.22230469 9.18265625 -3.25710938 8.1153125 -3.29296875 7.015625 C-2.97032505 3.69454586 -2.28826707 2.37472553 0 0 Z " fill="#E63E41" transform="translate(496,292)"/>
<path d="M0 0 C0.66 0 1.32 0 2 0 C2 0.99 2 1.98 2 3 C2.66 3 3.32 3 4 3 C4 3.99 4 4.98 4 6 C4.66 6.33 5.32 6.66 6 7 C9.14433453 12.24055755 9.14433453 12.24055755 8.58203125 15.19921875 C8.29392578 16.09060547 8.29392578 16.09060547 8 17 C7.59007812 16.15695313 7.18015625 15.31390625 6.7578125 14.4453125 C6.21898437 13.34960938 5.68015625 12.25390625 5.125 11.125 C4.59132813 10.03445312 4.05765625 8.94390625 3.5078125 7.8203125 C2.15464063 4.96117453 2.15464063 4.96117453 0 3 C0 2.01 0 1.02 0 0 Z " fill="#E35050" transform="translate(375,219)"/>
<path d="M0 0 C0.33 1.32 0.66 2.64 1 4 C0.34 4 -0.32 4 -1 4 C-1.433125 4.928125 -1.433125 4.928125 -1.875 5.875 C-3 8 -3 8 -5 10 C-6.32 9.67 -7.64 9.34 -9 9 C-6.03 6.03 -3.06 3.06 0 0 Z " fill="#EA3738" transform="translate(172,171)"/>
<path d="M0 0 C0.33 0 0.66 0 1 0 C1 2.64 1 5.28 1 8 C0.34 8 -0.32 8 -1 8 C-1 9.65 -1 11.3 -1 13 C-1.66 13 -2.32 13 -3 13 C-3 13.66 -3 14.32 -3 15 C-3.66 14.67 -4.32 14.34 -5 14 C-4.54636829 12.41531323 -4.08688548 10.83230076 -3.625 9.25 C-3.36976562 8.36828125 -3.11453125 7.4865625 -2.8515625 6.578125 C-2.0790066 4.23919428 -1.16374324 2.16557438 0 0 Z " fill="#E94A47" transform="translate(18,153)"/>
<path d="M0 0 C0.99 0.495 0.99 0.495 2 1 C1.01 1.495 1.01 1.495 0 2 C0 1.34 0 0.68 0 0 Z M-3 2 C-2.01 2.33 -1.02 2.66 0 3 C-0.66 4.32 -1.32 5.64 -2 7 C-3.8253125 6.9690625 -3.8253125 6.9690625 -5.6875 6.9375 C-8.91977322 6.93175884 -11.84934741 7.21233685 -15 8 C-10.66457495 4.67617413 -8.52858726 3.87981332 -3 4 C-3 3.34 -3 2.68 -3 2 Z " fill="#F02123" transform="translate(336,399)"/>
<path d="M0 0 C0.99 0.495 0.99 0.495 2 1 C2 1.66 2 2.32 2 3 C2.66 3 3.32 3 4 3 C4 3.66 4 4.32 4 5 C4.66 5 5.32 5 6 5 C6 5.66 6 6.32 6 7 C6.66 7 7.32 7 8 7 C6.60804085 9.7839183 4.84424221 9.97898997 2 11 C2 8.69 2 6.38 2 4 C1.34 4 0.68 4 0 4 C0 2.68 0 1.36 0 0 Z " fill="#EC3634" transform="translate(199,306)"/>
<path d="M0 0 C-0.125 1.75 -0.125 1.75 -1 4 C-3.8125 6.3125 -3.8125 6.3125 -7 8 C-9.19921875 7.60546875 -9.19921875 7.60546875 -11 7 C-9.54634731 5.82750647 -8.08692581 4.66216184 -6.625 3.5 C-5.40683594 2.52546875 -5.40683594 2.52546875 -4.1640625 1.53125 C-2 0 -2 0 0 0 Z " fill="#E83335" transform="translate(244,216)"/>
<path d="M0 0 C2.43841124 2.43841124 2.76152751 4.18566115 3.625 7.5 C4.01558594 8.96953125 4.01558594 8.96953125 4.4140625 10.46875 C5 13 5 13 5 15 C4.01 15 3.02 15 2 15 C0.53329887 9.77487721 -0.22577402 5.4185766 0 0 Z " fill="#E82829" transform="translate(487,171)"/>
<path d="M0 0 C1.125 3.75 1.125 3.75 0 6 C-0.66 6 -1.32 6 -2 6 C-2 7.65 -2 9.3 -2 11 C-2.66 11 -3.32 11 -4 11 C-4 11.66 -4 12.32 -4 13 C-5.98 13.99 -5.98 13.99 -8 15 C-6.62712658 11.30123909 -4.93644547 8.0485524 -2.875 4.6875 C-2.33617187 3.80449219 -1.79734375 2.92148438 -1.2421875 2.01171875 C-0.83226562 1.34785156 -0.42234375 0.68398437 0 0 Z " fill="#E85958" transform="translate(37,116)"/>
<path d="M0 0 C0.33 0 0.66 0 1 0 C0.67 3.3 0.34 6.6 0 10 C-1.65 10.66 -3.3 11.32 -5 12 C-3.68938409 7.76570244 -2.05643741 3.92592596 0 0 Z " fill="#E73435" transform="translate(388,330)"/>
<path d="M0 0 C3.30477928 1.65238964 4.19939987 5.20781576 5.6875 8.4375 C6.02072266 9.13166016 6.35394531 9.82582031 6.69726562 10.54101562 C7.53091594 12.33137066 8.27264253 14.16389131 9 16 C8.67 16.66 8.34 17.32 8 18 C3.60225719 12.7645919 1.72276601 6.49350266 0 0 Z " fill="#E44A4A" transform="translate(472,135)"/>
<path d="M0 0 C6.75 -0.125 6.75 -0.125 9 1 C9 1.66 9 2.32 9 3 C9.66 3 10.32 3 11 3 C11 3.99 11 4.98 11 6 C6.49197399 4.74194623 3.5087188 3.09592835 0 0 Z " fill="#E94242" transform="translate(123,466)"/>
<path d="M0 0 C0.33 0.66 0.66 1.32 1 2 C0.34 2 -0.32 2 -1 2 C-1.33 3.32 -1.66 4.64 -2 6 C-5.63 6.33 -9.26 6.66 -13 7 C-10.63456284 4.63456284 -8.42932795 3.72458677 -5.375 2.375 C-4.37210937 1.92898438 -3.36921875 1.48296875 -2.3359375 1.0234375 C-1.56507813 0.68570312 -0.79421875 0.34796875 0 0 Z " fill="#E63E3B" transform="translate(320,407)"/>
<path d="M0 0 C0.33 0.66 0.66 1.32 1 2 C1.66 2 2.32 2 3 2 C3 1.34 3 0.68 3 0 C3.66 0 4.32 0 5 0 C3.68775452 3.93673644 2.08089673 6.22719294 -1 9 C-1.33 6.36 -1.66 3.72 -2 1 C-1.34 0.67 -0.68 0.34 0 0 Z " fill="#ED3030" transform="translate(459,380)"/>
<path d="M0 0 C0.33 0.66 0.66 1.32 1 2 C1.66 2 2.32 2 3 2 C3.66 3.65 4.32 5.3 5 7 C5.66 7 6.32 7 7 7 C7.33 7.99 7.66 8.98 8 10 C5 10 5 10 2 9 C2 7.35 2 5.7 2 4 C1.34 4 0.68 4 0 4 C0 2.68 0 1.36 0 0 Z " fill="#EA3333" transform="translate(121,358)"/>
<path d="M0 0 C2.22850988 5.7941257 -1.66652739 11.69665315 -4 17 C-4.66 17 -5.32 17 -6 17 C-4.33846988 11.14340094 -2.52958084 5.5409866 0 0 Z " fill="#E44D4B" transform="translate(141,211)"/>
<path d="M0 0 C3 3.625 3 3.625 3 7 C3.66 7 4.32 7 5 7 C5 10.3 5 13.6 5 17 C3.025333 14.03799949 2.28044646 11.90228368 1.375 8.5 C1.11460937 7.5409375 0.85421875 6.581875 0.5859375 5.59375 C0 3 0 3 0 0 Z " fill="#E44744" transform="translate(282,149)"/>
<path d="M0 0 C0.33 0 0.66 0 1 0 C1.13526139 2.24834496 1.23210804 4.49902514 1.3125 6.75 C1.37050781 8.00296875 1.42851562 9.2559375 1.48828125 10.546875 C1 14 1 14 -1.51953125 16.453125 C-2.33808594 16.96359375 -3.15664062 17.4740625 -4 18 C-4.66 17.67 -5.32 17.34 -6 17 C-5.01 15.515 -5.01 15.515 -4 14 C-3.34 14 -2.68 14 -2 14 C-1.34 9.38 -0.68 4.76 0 0 Z " fill="#EA5656" transform="translate(220,129)"/>
<path d="M0 0 C-0.33 1.32 -0.66 2.64 -1 4 C-5.29 4 -9.58 4 -14 4 C-9.15584557 1.57792279 -5.44453532 0 0 0 Z " fill="#E82827" transform="translate(177,11)"/>
<path d="M0 0 C0.99 0.33 1.98 0.66 3 1 C3 2.32 3 3.64 3 5 C-0.465 6.485 -0.465 6.485 -4 8 C-3.40138258 5.64828869 -2.73075648 3.3140622 -2 1 C-1.34 0.67 -0.68 0.34 0 0 Z " fill="#ED2120" transform="translate(379,459)"/>
<path d="M0 0 C1.32 0 2.64 0 4 0 C4 0.66 4 1.32 4 2 C5.32 2 6.64 2 8 2 C8.33 3.32 8.66 4.64 9 6 C10.32 6.33 11.64 6.66 13 7 C10 8 10 8 7.95703125 7.07421875 C6.89548828 6.38779297 6.89548828 6.38779297 5.8125 5.6875 C5.09707031 5.23761719 4.38164062 4.78773438 3.64453125 4.32421875 C3.10183594 3.88722656 2.55914062 3.45023437 2 3 C2 2.34 2 1.68 2 1 C1.34 0.67 0.68 0.34 0 0 Z " fill="#E64644" transform="translate(180,365)"/>
<path d="M0 0 C0.99 0.33 1.98 0.66 3 1 C2.58578031 5.83256305 0.53586014 7.82679218 -3 11 C-3 10.01 -3 9.02 -3 8 C-2.34 8 -1.68 8 -1 8 C-1.20625 7.4225 -1.4125 6.845 -1.625 6.25 C-2.08661261 3.48032433 -1.42944945 2.35438733 0 0 Z " fill="#E93835" transform="translate(339,336)"/>
<path d="M0 0 C1.65 0 3.3 0 5 0 C2.36113346 4.2026393 -0.36440339 7.56638098 -4 11 C-4 9.68 -4 8.36 -4 7 C-3.34 7 -2.68 7 -2 7 C-2 6.34 -2 5.68 -2 5 C-1.34 5 -0.68 5 0 5 C0 3.35 0 1.7 0 0 Z " fill="#E94748" transform="translate(131,155)"/>
<path d="M0 0 C0.33 0 0.66 0 1 0 C1.06058594 1.08539063 1.12117187 2.17078125 1.18359375 3.2890625 C1.26806064 4.73438486 1.35270551 6.17969682 1.4375 7.625 C1.47681641 8.33785156 1.51613281 9.05070313 1.55664062 9.78515625 C1.80309681 13.91803682 2.23470053 17.92269024 3 22 C2.01 21.67 1.02 21.34 0 21 C0 14.07 0 7.14 0 0 Z " fill="#EB5550" transform="translate(243,133)"/>
<path d="M0 0 C-0.66 1.32 -1.32 2.64 -2 4 C-5.63 4 -9.26 4 -13 4 C-13.33 3.34 -13.66 2.68 -14 2 C-12.95199219 1.90912109 -12.95199219 1.90912109 -11.8828125 1.81640625 C-10.97273438 1.73261719 -10.06265625 1.64882812 -9.125 1.5625 C-8.22007812 1.48128906 -7.31515625 1.40007812 -6.3828125 1.31640625 C-3.9906624 0.99876009 -2.3900132 0 0 0 Z " fill="#E43C3A" transform="translate(340,133)"/>
<path d="M0 0 C5.61 0.66 11.22 1.32 17 2 C17 2.33 17 2.66 17 3 C11.72 3 6.44 3 1 3 C0.67 2.01 0.34 1.02 0 0 Z " fill="#E94B4C" transform="translate(215,422)"/>
<path d="M0 0 C0.33 0 0.66 0 1 0 C1 1.65 1 3.3 1 5 C0.34 5 -0.32 5 -1 5 C-1 5.99 -1 6.98 -1 8 C-1.66 8 -2.32 8 -3 8 C-3 8.66 -3 9.32 -3 10 C-4.32 10.33 -5.64 10.66 -7 11 C-7 10.34 -7 9.68 -7 9 C-6.34 9 -5.68 9 -5 9 C-4.731875 8.2575 -4.46375 7.515 -4.1875 6.75 C-3.05336685 4.12358639 -1.84835933 2.16981312 0 0 Z " fill="#E85151" transform="translate(372,360)"/>
<path d="M0 0 C0.66 0 1.32 0 2 0 C2.99 2.97 3.98 5.94 5 9 C4.01 9 3.02 9 2 9 C2 8.01 2 7.02 2 6 C1.01 6.33 0.02 6.66 -1 7 C-1.33 6.01 -1.66 5.02 -2 4 C-1.34 4 -0.68 4 0 4 C0 2.68 0 1.36 0 0 Z " fill="#EA2629" transform="translate(187,287)"/>
<path d="M0 0 C3.45547093 1.72773547 4.62448238 5.51535535 6 9 C6.25 12 6.25 12 6 14 C5.34 13.67 4.68 13.34 4 13 C4 11.68 4 10.36 4 9 C2.68 8.67 1.36 8.34 0 8 C0.66 8 1.32 8 2 8 C1.34 5.36 0.68 2.72 0 0 Z " fill="#DF2C2F" transform="translate(345,242)"/>
<path d="M0 0 C6.04801071 0.54981916 11.30601106 1.90429574 17 4 C13.59598052 5.13732426 11.22543336 4.83989957 7.75 4.0625 C6.85796875 3.86785156 5.9659375 3.67320313 5.046875 3.47265625 C4.37140625 3.31667969 3.6959375 3.16070312 3 3 C3 2.34 3 1.68 3 1 C2.01 0.67 1.02 0.34 0 0 Z " fill="#E44240" transform="translate(306,6)"/>
<path d="M0 0 C1.32 0.33 2.64 0.66 4 1 C2.88121617 2.17262904 1.75476949 3.33795138 0.625 4.5 C-0.00148438 5.1496875 -0.62796875 5.799375 -1.2734375 6.46875 C-3 8 -3 8 -5 8 C-5 7.34 -5 6.68 -5 6 C-4.34 6 -3.68 6 -3 6 C-3.33 5.01 -3.66 4.02 -4 3 C-2.68 2.67 -1.36 2.34 0 2 C0 1.34 0 0.68 0 0 Z " fill="#E93738" transform="translate(421,429)"/>
<path d="M0 0 C4.62 2.31 9.24 4.62 14 7 C9.71372952 8.07156762 9.33924618 8.0365854 5.75 6.0625 C5.04359375 5.68222656 4.3371875 5.30195313 3.609375 4.91015625 C3.07828125 4.60980469 2.5471875 4.30945313 2 4 C2 3.34 2 2.68 2 2 C1.34 2 0.68 2 0 2 C0 1.34 0 0.68 0 0 Z " fill="#E95C5C" transform="translate(169,403)"/>
<path d="M0 0 C0.33 0 0.66 0 1 0 C0.39169139 6.44807122 0.39169139 6.44807122 -1.375 8.9375 C-3 10 -3 10 -6 10 C-6 9.34 -6 8.68 -6 8 C-5.34 8 -4.68 8 -4 8 C-3.71125 7.236875 -3.4225 6.47375 -3.125 5.6875 C-2 3 -2 3 0 0 Z " fill="#E93E41" transform="translate(302,297)"/>
<path d="M0 0 C0.66 0 1.32 0 2 0 C2 0.66 2 1.32 2 2 C2.66 2 3.32 2 4 2 C4 5.63 4 9.26 4 13 C1.99706653 9.99559979 1.50728374 8.29006055 0.875 4.8125 C0.70742188 3.91144531 0.53984375 3.01039063 0.3671875 2.08203125 C0.24601562 1.39496094 0.12484375 0.70789063 0 0 Z " fill="#E63A37" transform="translate(299,215)"/>
<path d="M0 0 C0.99 0.33 1.98 0.66 3 1 C-0.96 6.94 -0.96 6.94 -5 13 C-5.33 11.68 -5.66 10.36 -6 9 C-5.34 9 -4.68 9 -4 9 C-4 7.68 -4 6.36 -4 5 C-3.34 5 -2.68 5 -2 5 C-2 4.34 -2 3.68 -2 3 C-1.34 3 -0.68 3 0 3 C0 2.01 0 1.02 0 0 Z " fill="#E54A4C" transform="translate(123,167)"/>
<path d="M0 0 C1.65 0 3.3 0 5 0 C4.01 1.485 4.01 1.485 3 3 C2.34 3 1.68 3 1 3 C1 3.66 1 4.32 1 5 C-0.98 5.99 -0.98 5.99 -3 7 C-3 5.35 -3 3.7 -3 2 C-2.01 2 -1.02 2 0 2 C0 1.34 0 0.68 0 0 Z " fill="#E92A2D" transform="translate(404,443)"/>
<path d="M0 0 C3.63 2.31 7.26 4.62 11 7 C9.68 7.33 8.36 7.66 7 8 C6.01 7.34 5.02 6.68 4 6 C4 5.34 4 4.68 4 4 C3.01 4 2.02 4 1 4 C0.67 2.68 0.34 1.36 0 0 Z " fill="#E64B4F" transform="translate(157,395)"/>
<path d="M0 0 C2 1 2 1 2.8515625 3.28515625 C3.10679688 4.20167969 3.36203125 5.11820312 3.625 6.0625 C3.88539062 6.98160156 4.14578125 7.90070313 4.4140625 8.84765625 C4.60742188 9.55792969 4.80078125 10.26820313 5 11 C4.01 11 3.02 11 2 11 C0.19769832 7.17010894 -0.19622241 4.21878192 0 0 Z " fill="#E6423E" transform="translate(101,319)"/>
<path d="M0 0 C0.66 0 1.32 0 2 0 C1.01 3.96 0.02 7.92 -1 12 C-1.66 12 -2.32 12 -3 12 C-3.43200679 7.24792529 -1.98489083 4.21789302 0 0 Z " fill="#E42525" transform="translate(488,321)"/>
<path d="M0 0 C-0.0625 1.8125 -0.0625 1.8125 -1 4 C-4.5625 5.75 -4.5625 5.75 -8 7 C-8.33 6.34 -8.66 5.68 -9 5 C-7.87926138 4.16094435 -6.75325453 3.32892169 -5.625 2.5 C-4.99851562 2.0359375 -4.37203125 1.571875 -3.7265625 1.09375 C-2 0 -2 0 0 0 Z " fill="#EA3A37" transform="translate(95,54)"/>
<path d="M0 0 C0.639375 0.144375 1.27875 0.28875 1.9375 0.4375 C5.93844788 1.17236798 9.95504896 1.58581111 14 2 C14 2.99 14 3.98 14 5 C8.94744036 4.36843005 4.70406799 2.86540627 0 1 C0 0.67 0 0.34 0 0 Z " fill="#EA5556" transform="translate(153,481)"/>
<path d="M0 0 C3.95781786 0.27612683 5.69956508 0.74053348 8.75 3.375 C11 6 11 6 13 9 C9.91220974 7.53400783 7.09532795 5.82973607 4.25 3.9375 C3.45078125 3.41027344 2.6515625 2.88304687 1.828125 2.33984375 C1.22484375 1.89769531 0.6215625 1.45554687 0 1 C0 0.67 0 0.34 0 0 Z " fill="#E54948" transform="translate(102,452)"/>
<path d="M0 0 C0.33 1.32 0.66 2.64 1 4 C-3.455 6.97 -3.455 6.97 -8 10 C-8.33 9.34 -8.66 8.68 -9 8 C-8.43410156 7.50628906 -7.86820312 7.01257813 -7.28515625 6.50390625 C-6.55167969 5.86324219 -5.81820313 5.22257812 -5.0625 4.5625 C-4.33160156 3.92441406 -3.60070312 3.28632813 -2.84765625 2.62890625 C-1.87860647 1.77458541 -0.91348825 0.91348825 0 0 Z " fill="#EA4846" transform="translate(295,307)"/>
<path d="M0 0 C0.99 0 1.98 0 3 0 C1.90931332 3.77545388 1.0916909 6.47043472 -2 9 C-2.125 5.625 -2.125 5.625 -2 2 C-1.34 1.34 -0.68 0.68 0 0 Z " fill="#E93333" transform="translate(271,274)"/>
<path d="M0 0 C0.33 0 0.66 0 1 0 C1.3690205 9.41002278 1.3690205 9.41002278 -1 14 C-1.66 14 -2.32 14 -3 14 C-2.01 9.38 -1.02 4.76 0 0 Z " fill="#E33F40" transform="translate(134,230)"/>
<path d="M0 0 C2.64 0 5.28 0 8 0 C6.66666667 0.66666667 5.33333333 1.33333333 4 2 C2.4840625 2.804375 2.4840625 2.804375 0.9375 3.625 C-2 5 -2 5 -5 5 C-5 4.34 -5 3.68 -5 3 C-3.35 2.67 -1.7 2.34 0 2 C0 1.34 0 0.68 0 0 Z " fill="#E85758" transform="translate(235,175)"/>
<path d="M0 0 C-3.63 1.98 -7.26 3.96 -11 6 C-11 5.01 -11 4.02 -11 3 C-10.01 3 -9.02 3 -8 3 C-8 2.01 -8 1.02 -8 0 C-4.63458162 -1.08174162 -3.70152678 -0.92538169 0 0 Z " fill="#E7363C" transform="translate(277,90)"/>
<path d="M0 0 C0.33 0.66 0.66 1.32 1 2 C1.66 2 2.32 2 3 2 C3.33 6.62 3.66 11.24 4 16 C2.14353999 13.21530998 1.54842185 11.7318584 0.875 8.5625 C0.70742187 7.80066406 0.53984375 7.03882813 0.3671875 6.25390625 C0 4 0 4 0 0 Z " fill="#E54A50" transform="translate(220,261)"/>
<path d="M0 0 C1.46015291 0.28241641 2.91809793 0.57626614 4.375 0.875 C5.18710937 1.03742188 5.99921875 1.19984375 6.8359375 1.3671875 C9 2 9 2 11 4 C8.03 3.67 5.06 3.34 2 3 C1.67 4.32 1.34 5.64 1 7 C0.67 4.69 0.34 2.38 0 0 Z " fill="#E2575A" transform="translate(297,206)"/>
<path d="M0 0 C3.34148439 1.17403506 5.81103718 2.15434834 8 5 C8.6875 7.1875 8.6875 7.1875 9 9 C8.34 9 7.68 9 7 9 C7 8.34 7 7.68 7 7 C6.34 7 5.68 7 5 7 C3.7109375 5.46875 3.7109375 5.46875 2.375 3.5 C1.70597656 2.52546875 1.70597656 2.52546875 1.0234375 1.53125 C0.68570312 1.0259375 0.34796875 0.520625 0 0 Z " fill="#E94B4C" transform="translate(358,200)"/>
<path d="M0 0 C1.5625 1.25 1.5625 1.25 3 3 C2.6875 5.1875 2.6875 5.1875 2 7 C0.02 5.68 -1.96 4.36 -4 3 C-3 1 -3 1 0 0 Z " fill="#EF2628" transform="translate(356,193)"/>
<path d="M0 0 C3.09592835 3.5087188 4.74194623 6.49197399 6 11 C5.01 11 4.02 11 3 11 C0 4.5 0 4.5 0 0 Z " fill="#E8514F" transform="translate(466,123)"/>
<path d="M0 0 C-3.01490557 2.00993705 -5.2149927 2.72623341 -8.6875 3.625 C-10.17830078 4.01558594 -10.17830078 4.01558594 -11.69921875 4.4140625 C-12.45847656 4.60742188 -13.21773437 4.80078125 -14 5 C-14 4.34 -14 3.68 -14 3 C-13.01 3 -12.02 3 -11 3 C-11 2.34 -11 1.68 -11 1 C-7.32589215 -0.17571451 -3.83070817 -0.07366746 0 0 Z " fill="#E44849" transform="translate(200,114)"/>
<path d="M0 0 C3.63 0 7.26 0 11 0 C8.60236815 2.39763185 7.66726502 2.34280586 4.375 2.625 C3.55773437 2.69976562 2.74046875 2.77453125 1.8984375 2.8515625 C1.27195312 2.90054687 0.64546875 2.94953125 0 3 C0 2.01 0 1.02 0 0 Z " fill="#E43D40" transform="translate(297,493)"/>
<path d="M0 0 C2.3129482 2.3129482 2.49580975 3.47904875 3.125 6.625 C3.29257813 7.44226563 3.46015625 8.25953125 3.6328125 9.1015625 C3.81457031 10.04128906 3.81457031 10.04128906 4 11 C3.01 11.495 3.01 11.495 2 12 C-0.13586678 8.79619983 -0.23132175 7.98060033 -0.125 4.3125 C-0.10695313 3.50425781 -0.08890625 2.69601562 -0.0703125 1.86328125 C-0.04710938 1.24839844 -0.02390625 0.63351562 0 0 Z " fill="#E53A3B" transform="translate(97,305)"/>
<path d="M0 0 C0.66 0 1.32 0 2 0 C1.33989524 2.84550012 0.48275034 5.52325999 -0.5625 8.25 C-0.83191406 8.95640625 -1.10132813 9.6628125 -1.37890625 10.390625 C-1.68634766 11.18726563 -1.68634766 11.18726563 -2 12 C-2.33 12 -2.66 12 -3 12 C-3 9.69 -3 7.38 -3 5 C-2.34 5 -1.68 5 -1 5 C-0.67 3.35 -0.34 1.7 0 0 Z " fill="#E4464A" transform="translate(191,215)"/>
<path d="M0 0 C4.29 0 8.58 0 13 0 C13 0.66 13 1.32 13 2 C13.66 2.33 14.32 2.66 15 3 C14.01 2.855625 13.02 2.71125 12 2.5625 C8.00590535 1.99074821 4.00467063 1.49180166 0 1 C0 0.67 0 0.34 0 0 Z " fill="#E24141" transform="translate(297,169)"/>
<path d="M0 0 C0.66 0 1.32 0 2 0 C0.6581656 4.02550319 -1.4227573 4.88285636 -5 7 C-5.66 7 -6.32 7 -7 7 C-7.33 6.01 -7.66 5.02 -8 4 C-5.09399739 2.74335022 -3.20395416 2 0 2 C0 1.34 0 0.68 0 0 Z " fill="#E84C4C" transform="translate(167,127)"/>
<path d="M0 0 C3 1 3 1 4 3 C4.07033769 4.87379605 4.0843022 6.75001102 4.0625 8.625 C4.05347656 9.62789062 4.04445313 10.63078125 4.03515625 11.6640625 C4.02355469 12.43492188 4.01195312 13.20578125 4 14 C3.67 14 3.34 14 3 14 C0.88838269 4.58997722 0.88838269 4.58997722 0 0 Z " fill="#DE2327" transform="translate(347,108)"/>
<path d="M0 0 C4.82360189 -0.19294408 8.49646738 0.24252386 13 2 C13 2.33 13 2.66 13 3 C8.17639811 3.19294408 4.50353262 2.75747614 0 1 C0 0.67 0 0.34 0 0 Z " fill="#E22121" transform="translate(167,486)"/>
<path d="M0 0 C-3.00440021 2.00293347 -4.70993945 2.49271626 -8.1875 3.125 C-9.53908203 3.37636719 -9.53908203 3.37636719 -10.91796875 3.6328125 C-11.60503906 3.75398438 -12.29210937 3.87515625 -13 4 C-13 3.34 -13 2.68 -13 2 C-4.57142857 -0.28571429 -4.57142857 -0.28571429 0 0 Z " fill="#E7585A" transform="translate(289,380)"/>
<path d="M0 0 C1.32 0.33 2.64 0.66 4 1 C4 1.66 4 2.32 4 3 C3.34 3 2.68 3 2 3 C1.71125 3.639375 1.4225 4.27875 1.125 4.9375 C0 7 0 7 -2 8 C-2 6.35 -2 4.7 -2 3 C-1.34 2.67 -0.68 2.34 0 2 C0 1.34 0 0.68 0 0 Z " fill="#EA3337" transform="translate(332,346)"/>
<path d="M0 0 C3.42931954 3.7559214 4.56429083 8.23466745 6 13 C3.12785459 11.27671275 2.08251692 10.19391477 0.75 7.0625 C0 4 0 4 0 0 Z " fill="#E66767" transform="translate(106,330)"/>
<path d="M0 0 C5 2 5 2 10 4 C10 4.33 10 4.66 10 5 C7.36 5 4.72 5 2 5 C1.34 3.35 0.68 1.7 0 0 Z " fill="#E94247" transform="translate(216,321)"/>
<path d="M0 0 C1 3 1 3 0.22265625 5.04296875 C-0.16019531 5.75066406 -0.54304688 6.45835937 -0.9375 7.1875 C-1.31777344 7.90292969 -1.69804688 8.61835938 -2.08984375 9.35546875 C-2.54037109 10.16951172 -2.54037109 10.16951172 -3 11 C-4.04296875 9.13671875 -4.04296875 9.13671875 -5 7 C-4.3125 4.8125 -4.3125 4.8125 -3 3 C-2.01 2.67 -1.02 2.34 0 2 C0 1.34 0 0.68 0 0 Z " fill="#E75859" transform="translate(110,190)"/>
<path d="M0 0 C-2.64 1.65 -5.28 3.3 -8 5 C-8.33 3.35 -8.66 1.7 -9 0 C-3.375 -1.125 -3.375 -1.125 0 0 Z " fill="#EA3C3E" transform="translate(221,187)"/>
<path d="M0 0 C0.66 0.33 1.32 0.66 2 1 C1.01 2.98 0.02 4.96 -1 7 C-1.66 7 -2.32 7 -3 7 C-3.33 7.99 -3.66 8.98 -4 10 C-4.33 8.02 -4.66 6.04 -5 4 C-4.01 4.33 -3.02 4.66 -2 5 C-2 3.68 -2 2.36 -2 1 C-1.34 0.67 -0.68 0.34 0 0 Z " fill="#E63C3D" transform="translate(115,180)"/>
<path d="M0 0 C-3.42346555 3.14958831 -6.44262737 3.56179109 -11 4 C-11 3.34 -11 2.68 -11 2 C-7.36576791 -0.32590854 -4.22911669 -0.16265833 0 0 Z " fill="#E64845" transform="translate(356,477)"/>
<path d="M0 0 C1.32 0 2.64 0 4 0 C4 0.66 4 1.32 4 2 C4.99 2 5.98 2 7 2 C7 3.32 7 4.64 7 6 C3.63279613 4.60667426 2.0140476 3.0210714 0 0 Z " fill="#E43C3B" transform="translate(168,355)"/>
<path d="M0 0 C0.66 0 1.32 0 2 0 C2 0.99 2 1.98 2 3 C1.34 3 0.68 3 0 3 C-0.33 5.97 -0.66 8.94 -1 12 C-1.33 12 -1.66 12 -2 12 C-2.28571429 3.42857143 -2.28571429 3.42857143 0 0 Z " fill="#E61716" transform="translate(477,348)"/>
<path d="M0 0 C0.845625 0.144375 1.69125 0.28875 2.5625 0.4375 C6.03593149 1.0058797 9.51445662 1.51202393 13 2 C13 2.33 13 2.66 13 3 C9.04 3 5.08 3 1 3 C0.67 2.01 0.34 1.02 0 0 Z " fill="#E74C4D" transform="translate(226,326)"/>
<path d="M0 0 C0.33 1.32 0.66 2.64 1 4 C-2.3 4.33 -5.6 4.66 -9 5 C-7.694761 2.38952199 -6.64173426 2.31933577 -3.9375 1.375 C-3.20402344 1.11460937 -2.47054688 0.85421875 -1.71484375 0.5859375 C-1.14894531 0.39257812 -0.58304687 0.19921875 0 0 Z " fill="#E84148" transform="translate(278,321)"/>
<path d="M0 0 C1.60080151 4.00200378 0.29279692 7.04556236 -1 11 C-1.33 11 -1.66 11 -2 11 C-2.96891192 5.62694301 -2.96891192 5.62694301 -3 3 C-1.5625 1 -1.5625 1 0 0 Z " fill="#E73936" transform="translate(492,310)"/>
<path d="M0 0 C0.33 0.66 0.66 1.32 1 2 C0.67 2.66 0.34 3.32 0 4 C-0.66 4 -1.32 4 -2 4 C-2.33 5.98 -2.66 7.96 -3 10 C-3.99 9.67 -4.98 9.34 -6 9 C-5.01 7.02 -4.02 5.04 -3 3 C-2.34 3 -1.68 3 -1 3 C-0.67 2.01 -0.34 1.02 0 0 Z " fill="#E94A51" transform="translate(232,224)"/>
<path d="M0 0 C0.33 0 0.66 0 1 0 C0.88601335 1.62580966 0.75844341 3.25067157 0.625 4.875 C0.52058594 6.23238281 0.52058594 6.23238281 0.4140625 7.6171875 C0 10 0 10 -2 12 C-2 9.03 -2 6.06 -2 3 C-1.34 3 -0.68 3 0 3 C0 2.01 0 1.02 0 0 Z " fill="#E53637" transform="translate(99,214)"/>
<path d="M0 0 C3.37462715 0.54723683 5.08235 1.0549 8 3 C8 3.66 8 4.32 8 5 C8.66 5 9.32 5 10 5 C9.67 5.66 9.34 6.32 9 7 C7.4972763 6.02501855 5.99788037 5.04490611 4.5 4.0625 C3.6646875 3.51722656 2.829375 2.97195312 1.96875 2.41015625 C1.3190625 1.94480469 0.669375 1.47945313 0 1 C0 0.67 0 0.34 0 0 Z " fill="#E14447" transform="translate(332,95)"/>
<path d="M0 0 C0.99 0 1.98 0 3 0 C3 1.32 3 2.64 3 4 C1.02 4.33 -0.96 4.66 -3 5 C-3 4.34 -3 3.68 -3 3 C-2.34 3 -1.68 3 -1 3 C-0.67 2.01 -0.34 1.02 0 0 Z " fill="#E72323" transform="translate(64,81)"/>
<path d="M0 0 C3.36720387 1.39332574 4.9859524 2.9789286 7 6 C6.01 6.495 6.01 6.495 5 7 C5 6.34 5 5.68 5 5 C3.35 5 1.7 5 0 5 C0 3.35 0 1.7 0 0 Z " fill="#E73F3F" transform="translate(416,63)"/>
<path d="M0 0 C2.31 0.66 4.62 1.32 7 2 C6.01 3.485 6.01 3.485 5 5 C4.01 5 3.02 5 2 5 C2 4.01 2 3.02 2 2 C1.01 1.67 0.02 1.34 -1 1 C-0.67 0.67 -0.34 0.34 0 0 Z " fill="#E94443" transform="translate(337,15)"/>
<path d="M0 0 C0.99 0 1.98 0 3 0 C1.6302836 3.99500618 -0.25722422 6.80009492 -3 10 C-2.67 8.02 -2.34 6.04 -2 4 C-1.34 4 -0.68 4 0 4 C0 2.68 0 1.36 0 0 Z " fill="#E33E3E" transform="translate(467,370)"/>
<path d="M0 0 C0 3.57575896 -1.08840607 5.05295935 -3 8 C-3.99 7.67 -4.98 7.34 -6 7 C-4.02 4.69 -2.04 2.38 0 0 Z " fill="#E94C4F" transform="translate(162,181)"/>
<path d="M0 0 C-0.33 0.99 -0.66 1.98 -1 3 C-5.09724467 4.54613006 -7.81857651 5.29227216 -12 4 C-10.56570999 3.32645501 -9.12742943 2.66140299 -7.6875 2 C-6.88699219 1.62875 -6.08648437 1.2575 -5.26171875 0.875 C-3 0 -3 0 0 0 Z " fill="#DC3639" transform="translate(212,149)"/>
<path d="M0 0 C4.08691793 0.90820398 5.61817132 1.4087814 7.9375 5 C8.288125 5.99 8.63875 6.98 9 8 C8.67 8.66 8.34 9.32 8 10 C7.67 8.68 7.34 7.36 7 6 C6.34 6 5.68 6 5 6 C3.2856382 4.04072937 1.61594832 2.04119788 0 0 Z " fill="#E85155" transform="translate(211,116)"/>
<path d="M0 0 C0.66 0 1.32 0 2 0 C3.5625 2.8125 3.5625 2.8125 5 6 C4.67 6.99 4.34 7.98 4 9 C3.67 8.01 3.34 7.02 3 6 C2.34 6 1.68 6 1 6 C-0.0625 4.125 -0.0625 4.125 -1 2 C-0.67 1.34 -0.34 0.68 0 0 Z " fill="#E83A39" transform="translate(51,399)"/>
<path d="M0 0 C0.66 0.33 1.32 0.66 2 1 C0.02 5.455 0.02 5.455 -2 10 C-2.33 10 -2.66 10 -3 10 C-3 7.69 -3 5.38 -3 3 C-2.01 3 -1.02 3 0 3 C0 2.01 0 1.02 0 0 Z " fill="#EB4748" transform="translate(473,360)"/>
<path d="M0 0 C-0.66 0.66 -1.32 1.32 -2 2 C-2.99 2 -3.98 2 -5 2 C-5.33 2.99 -5.66 3.98 -6 5 C-6.66 4.67 -7.32 4.34 -8 4 C-7.1875 2.0625 -7.1875 2.0625 -6 0 C-3 -1 -3 -1 0 0 Z " fill="#F12527" transform="translate(150,206)"/>
<path d="M0 0 C0.66 0 1.32 0 2 0 C1.3125 2.4375 1.3125 2.4375 0 5 C-2.625 5.8125 -2.625 5.8125 -5 6 C-3.625 4 -3.625 4 -2 2 C-1.34 2 -0.68 2 0 2 C0 1.34 0 0.68 0 0 Z " fill="#E43937" transform="translate(84,61)"/>
<path d="M0 0 C2.0625 0.4375 2.0625 0.4375 4 1 C4 1.66 4 2.32 4 3 C1.5 4.625 1.5 4.625 -1 6 C-1.042721 4.33388095 -1.04063832 2.66617115 -1 1 C-0.67 0.67 -0.34 0.34 0 0 Z " fill="#EC3236" transform="translate(412,436)"/>
<path d="M0 0 C1 3 1 3 1 7 C-0.65 7 -2.3 7 -4 7 C-4 6.34 -4 5.68 -4 5 C-3.34 5 -2.68 5 -2 5 C-1.34 3.35 -0.68 1.7 0 0 Z " fill="#E42F31" transform="translate(155,189)"/>
<path d="M0 0 C0.99 0.33 1.98 0.66 3 1 C0.03 3.475 0.03 3.475 -3 6 C-3 5.34 -3 4.68 -3 4 C-3.66 3.67 -4.32 3.34 -5 3 C-3.35 2.67 -1.7 2.34 0 2 C0 1.34 0 0.68 0 0 Z " fill="#E6393A" transform="translate(142,146)"/>
<path d="M0 0 C1.33597652 0.80814651 2.668725 1.62163181 4 2.4375 C5.11375 3.11619141 5.11375 3.11619141 6.25 3.80859375 C6.8275 4.20175781 7.405 4.59492188 8 5 C8 5.33 8 5.66 8 6 C4.28400809 6.20086443 3.22791555 6.1519437 0 4 C0 2.68 0 1.36 0 0 Z " fill="#EB666C" transform="translate(317,129)"/>
<path d="M0 0 C3.35595828 0.59927826 5.37801226 1.84622436 8 4 C7.01 4.495 7.01 4.495 6 5 C3.96855359 4.06553465 1.96466413 3.06775224 0 2 C0 1.34 0 0.68 0 0 Z " fill="#E74446" transform="translate(308,125)"/>
<path d="M0 0 C6.75 -0.125 6.75 -0.125 9 1 C9 1.66 9 2.32 9 3 C2.25 2.25 2.25 2.25 0 0 Z " fill="#E63B3E" transform="translate(201,113)"/>
<path d="M0 0 C1.98 0 3.96 0 6 0 C6 0.66 6 1.32 6 2 C3.36 2.66 0.72 3.32 -2 4 C-2 3.34 -2 2.68 -2 2 C-1.34 2 -0.68 2 0 2 C0 1.34 0 0.68 0 0 Z " fill="#E1423D" transform="translate(280,85)"/>
<path d="M0 0 C3.77545388 1.09068668 6.47043472 1.9083091 9 5 C5.65626525 4.44271087 2.96687001 3.64826111 0 2 C0 1.34 0 0.68 0 0 Z " fill="#E7595B" transform="translate(366,28)"/>
<path d="M0 0 C0.495 0.37125 0.99 0.7425 1.5 1.125 C-1.02475462 2.38737731 -2.81200466 2.22356404 -5.625 2.1875 C-6.53507813 2.17847656 -7.44515625 2.16945312 -8.3828125 2.16015625 C-9.08148438 2.14855469 -9.78015625 2.13695312 -10.5 2.125 C-10.5 1.795 -10.5 1.465 -10.5 1.125 C-3.11538462 -1.09038462 -3.11538462 -1.09038462 0 0 Z " fill="#E80A08" transform="translate(228.5,0.875)"/>
<path d="M0 0 C0.33 0.99 0.66 1.98 1 3 C0 5 0 5 -3.0625 6.125 C-4.031875 6.41375 -5.00125 6.7025 -6 7 C-4.02 4.69 -2.04 2.38 0 0 Z " fill="#EA5856" transform="translate(357,379)"/>
<path d="M0 0 C-1.1858237 3.37503669 -2.27573689 5.64722731 -5 8 C-4.74438677 5.6568787 -4.40729228 3.32156597 -4 1 C-2 0 -2 0 0 0 Z " fill="#E7534D" transform="translate(347,331)"/>
<path d="M0 0 C0.33 0.99 0.66 1.98 1 3 C0.01 3.66 -0.98 4.32 -2 5 C-3.32 4.01 -4.64 3.02 -6 2 C-3 0 -3 0 0 0 Z " fill="#F60507" transform="translate(293,314)"/>
<path d="M0 0 C0.625 1.8125 0.625 1.8125 1 4 C0.01 5.485 0.01 5.485 -1 7 C-1.99 7 -2.98 7 -4 7 C-3.34 5.35 -2.68 3.7 -2 2 C-1.34 2 -0.68 2 0 2 C0 1.34 0 0.68 0 0 Z " fill="#E82C32" transform="translate(54,93)"/>
</svg>
